<?xml version="1.0" encoding="utf-8"?>
<!-- Generator: Adobe Illustrator 22.0.1, SVG Export Plug-In . SVG Version: 6.00 Build 0)  -->
<svg version="1.1" id="Layer_1" xmlns="http://www.w3.org/2000/svg" xmlns:xlink="http://www.w3.org/1999/xlink" x="0px" y="0px"
	 viewBox="0 0 64 64" style="enable-background:new 0 0 64 64;" xml:space="preserve">
<style type="text/css">
	.st0{fill:#FFFFFF;}
</style>
<path class="st0" d="M25.736,11.54c0.727-0.818,1.559-1.216,2.74-1.216h0.637h5.777h0.636c1.181,0,2.012,0.398,2.74,1.216
	c0.71,0.799,0.716,2.409,0.888,3.228h3.02c-0.44-3.603-1.066-7.468-6.648-7.468h-1.76h-3.529h-1.76
	c-5.581,0-6.208,3.865-6.648,7.468h3.02C25.02,13.949,25.026,12.339,25.736,11.54z"/>
<path class="st0" d="M56.359,16.271H7.641c-2.782,0-5.035,2.254-5.035,5.036v7.592c0.275,0.531,0.631,1.019,1.062,1.388
	c0.358,0.309,0.762,0.539,1.227,0.679l22.02,4.479v-1.148c0-1.351,1.175-2.45,2.62-2.45h4.933c1.443,0,2.618,1.099,2.618,2.45v1.22
	l22.001-4.546c1.154-0.411,1.835-1.088,2.292-1.891c0.007-0.011,0.01-0.022,0.015-0.033v-7.74
	C61.394,18.525,59.14,16.271,56.359,16.271z"/>
<path class="st0" d="M59.666,33.028l-22.581,4.666v3.232c0,1.351-1.175,2.45-2.618,2.45h-4.933c-1.445,0-2.62-1.099-2.62-2.45
	v-3.305L4.358,33.033L4.315,33.02c-0.642-0.188-1.212-0.491-1.709-0.86v19.505c0,2.781,2.254,5.035,5.035,5.035h48.717
	c2.782,0,5.036-2.254,5.036-5.035V32.17c-0.483,0.339-1.037,0.625-1.665,0.837L59.666,33.028z"/>
<path class="st0" d="M34.467,41.563c0.445,0,0.807-0.284,0.807-0.637v-6.629c0-0.353-0.361-0.637-0.807-0.637h-4.933
	c-0.445,0-0.807,0.285-0.807,0.637v6.629c0,0.353,0.362,0.637,0.807,0.637H34.467z"/>
</svg>
