<?xml version="1.0" encoding="utf-8"?>
<!-- Generator: Adobe Illustrator 22.0.0, SVG Export Plug-In . SVG Version: 6.00 Build 0)  -->
<svg version="1.1" id="Layer_1" xmlns="http://www.w3.org/2000/svg" xmlns:xlink="http://www.w3.org/1999/xlink" x="0px" y="0px"
	 viewBox="0 0 42 42" style="enable-background:new 0 0 42 42;" xml:space="preserve">
<style type="text/css">
	.st0{fill:url(#SVGID_1_);}
	.st1{fill:none;stroke:#DF1075;stroke-width:0.3972;stroke-miterlimit:10;}
	.st2{fill:#FFFFFF;stroke:#DF1075;stroke-width:0.1986;stroke-miterlimit:10;}
	.st3{fill:#DF1075;}
</style>
<linearGradient id="SVGID_1_" gradientUnits="userSpaceOnUse" x1="1" y1="21" x2="41" y2="21">
	<stop  offset="0" style="stop-color:#8BC53F"/>
	<stop  offset="1" style="stop-color:#EC0080"/>
</linearGradient>
<path class="st0" d="M21,41C9.972,41,1,32.028,1,21C1,9.972,9.972,1,21,1s20,8.972,20,20C41,32.028,32.028,41,21,41z M21,2.032
	C10.541,2.032,2.032,10.541,2.032,21S10.541,39.968,21,39.968S39.968,31.459,39.968,21S31.459,2.032,21,2.032z"/>
<path class="st1" d="M18.632,8.7h-0.626h-2.262l0,0c0,0-0.818,0-1.829,0c-0.962,0-1.829,0-1.829,0l0,0H9.873H9.248
	c-0.77,0-1.444,0.674-1.444,1.444v0.674v0.241v0.481l0,0v3.898l0,0v11.405l0,0v1.299l0,0v0.192l0,0c0,0.096,0,0.144,0,0.241
	c0,0.096,0,0.144,0.048,0.241c0.048,0.096,0.096,0.192,0.096,0.289c0,0.048,0,0.096,0.048,0.096l0,0
	c0.096,0.289,0.289,0.529,0.529,0.77c0.096,0.096,0.192,0.192,0.289,0.241c0.048,0,0.048,0.048,0.096,0.048
	c0.048,0.048,0.096,0.048,0.144,0.096c0.048,0,0.048,0.048,0.096,0.048C9.2,30.452,9.296,30.452,9.344,30.5
	c0.048,0,0.048,0.048,0.096,0.048s0.096,0,0.144,0.048c0.048,0,0.096,0,0.144,0.048c0.144,0.048,0.289,0.048,0.433,0.048h7.507
	c0.144,0,0.289,0,0.433-0.048c0.048,0,0.096,0,0.144-0.048c0.048,0,0.096,0,0.144-0.048c0.048,0,0.048-0.048,0.096-0.048
	c0.096-0.048,0.144-0.048,0.192-0.096c0.048,0,0.048-0.048,0.096-0.048c0.048,0,0.096-0.048,0.144-0.096
	c0.048,0,0.048-0.048,0.096-0.048c0.096-0.096,0.192-0.144,0.289-0.241c0.192-0.192,0.385-0.481,0.529-0.77l0,0l0,0
	c0.048-0.144,0.096-0.289,0.144-0.433c0-0.096,0-0.144,0.048-0.241c0-0.096,0-0.144,0-0.241l0,0v-0.192l0,0v-1.299l0,0V15.437l0,0
	v-3.946l0,0V11.01v-0.241v-0.626C20.028,9.374,19.402,8.7,18.632,8.7z M15.071,29.008c0,0.626-0.529,1.107-1.107,1.107
	c-0.626,0-1.107-0.529-1.107-1.107c0-0.626,0.481-1.107,1.107-1.107C14.541,27.901,15.071,28.383,15.071,29.008z M19.306,11.251
	v5.342v10.972H8.574V16.64v-5.39l0,0v-0.722c0-0.096,0.048-0.192,0.096-0.289h1.444h0.144h2.214h2.984h2.214h0.144h1.444
	c0.048,0.096,0.096,0.192,0.096,0.289L19.306,11.251L19.306,11.251z"/>
<path class="st2" d="M30.567,17.747h-10.25c-3.513,0-6.4,2.839-6.4,6.4v0.289c0,3.513,2.887,6.4,6.4,6.4h10.25
	c3.513,0,6.4-2.839,6.4-6.4V24.1C36.967,20.587,34.08,17.747,30.567,17.747z M27.15,24.87c-0.337,0-0.577-0.289-0.577-0.577
	c0-0.337,0.289-0.577,0.577-0.577c0.337,0,0.577,0.289,0.577,0.577C27.775,24.581,27.487,24.87,27.15,24.87z M28.064,25.543
	c-0.048-0.048-0.048-0.096-0.048-0.192c0-0.096,0.048-0.144,0.096-0.241c0.241-0.192,0.385-0.529,0.385-0.866
	c0-0.337-0.144-0.626-0.385-0.866c-0.144-0.096-0.144-0.289-0.048-0.385c0.096-0.144,0.289-0.144,0.385-0.048
	c0.385,0.337,0.577,0.818,0.577,1.299c0,0.481-0.241,0.962-0.626,1.299C28.353,25.688,28.16,25.639,28.064,25.543z M29.171,26.794
	c-0.144,0.096-0.289,0.096-0.385-0.048c-0.048-0.048-0.048-0.096-0.048-0.192c0-0.096,0.048-0.144,0.096-0.241
	c0.626-0.529,0.962-1.251,0.962-2.069c0-0.77-0.337-1.54-0.962-2.069c-0.144-0.096-0.144-0.289-0.048-0.385
	c0.096-0.144,0.289-0.144,0.385-0.048c0.722,0.626,1.155,1.54,1.155,2.502C30.326,25.254,29.893,26.169,29.171,26.794z
	 M30.037,27.709c-0.144,0.096-0.289,0.096-0.385-0.048c-0.048-0.048-0.048-0.096-0.048-0.192c0-0.096,0.048-0.144,0.096-0.241
	c0.866-0.77,1.396-1.829,1.396-2.984c0-1.155-0.481-2.214-1.396-2.984c-0.144-0.096-0.144-0.289-0.048-0.385
	c0.096-0.096,0.289-0.144,0.385-0.048c1.011,0.866,1.588,2.117,1.588,3.417C31.673,25.591,31.096,26.843,30.037,27.709z"/>
<path class="st3" d="M21.664,25.254h-0.337v0.577h-0.529v-0.577h-1.444l1.684-2.647h0.289v2.117h0.337V25.254z M20.749,24.677
	v-0.914l-0.529,0.914H20.749z"/>
<path class="st3" d="M24.84,25.351L24.84,25.351c-0.192,0.192-0.337,0.289-0.529,0.385c-0.192,0.096-0.385,0.144-0.626,0.144
	c-0.241,0-0.433-0.048-0.626-0.144c-0.192-0.096-0.385-0.192-0.529-0.337c-0.144-0.144-0.289-0.337-0.337-0.529
	c-0.096-0.192-0.144-0.433-0.144-0.626c0-0.241,0.048-0.433,0.144-0.626c0.096-0.192,0.192-0.385,0.337-0.529
	c0.144-0.144,0.337-0.289,0.529-0.337c0.192-0.096,0.433-0.144,0.626-0.144c0.241,0,0.433,0.048,0.626,0.144
	c0.192,0.096,0.385,0.192,0.529,0.337l-0.385,0.385c-0.096-0.096-0.241-0.192-0.337-0.241c-0.144-0.048-0.289-0.096-0.433-0.096
	c-0.144,0-0.289,0.048-0.433,0.096s-0.241,0.144-0.337,0.241c-0.096,0.096-0.192,0.241-0.241,0.337
	c-0.048,0.144-0.096,0.289-0.096,0.433s0.048,0.289,0.096,0.433c0.048,0.144,0.144,0.241,0.241,0.337
	c0.096,0.096,0.241,0.192,0.337,0.241c0.144,0.048,0.289,0.096,0.433,0.096c0.096,0,0.241,0,0.337-0.048
	c0.096-0.048,0.241-0.096,0.337-0.144v-0.626h-0.674v-0.529h1.155V25.351z"/>
</svg>
