<?xml version="1.0" encoding="utf-8"?>
<!-- Generator: Adobe Illustrator 22.0.0, SVG Export Plug-In . SVG Version: 6.00 Build 0)  -->
<svg version="1.1" id="Layer_1" xmlns="http://www.w3.org/2000/svg" xmlns:xlink="http://www.w3.org/1999/xlink" x="0px" y="0px"
	 viewBox="0 0 42 42" style="enable-background:new 0 0 42 42;" xml:space="preserve">
<style type="text/css">
	.st0{fill:#DF1075;}
	.st1{fill:#FFFFFF;}
</style>
<path class="st0" d="M16.109,6.578h-0.815h-2.947l0,0c0,0-1.066,0-2.383,0c-1.254,0-2.383,0-2.383,0l0,0H4.696H3.881
	C2.878,6.578,2,7.455,2,8.459v0.878V9.65v0.627l0,0v5.079l0,0v14.861l0,0v1.693l0,0v0.251l0,0c0,0.125,0,0.188,0,0.314
	s0,0.188,0.063,0.314s0.125,0.251,0.125,0.376c0,0.063,0,0.125,0.063,0.125l0,0c0.125,0.376,0.376,0.69,0.69,1.003
	c0.125,0.125,0.251,0.251,0.376,0.314c0.063,0,0.063,0.063,0.125,0.063c0.063,0.063,0.125,0.063,0.188,0.125
	c0.063,0,0.063,0.063,0.125,0.063c0.063,0.063,0.188,0.063,0.251,0.125c0.063,0,0.063,0.063,0.125,0.063s0.125,0,0.188,0.063
	c0.063,0,0.125,0,0.188,0.063c0.188,0.063,0.376,0.063,0.564,0.063h9.782c0.188,0,0.376,0,0.564-0.063c0.063,0,0.125,0,0.188-0.063
	c0.063,0,0.125,0,0.188-0.063c0.063,0,0.063-0.063,0.125-0.063c0.125-0.063,0.188-0.063,0.251-0.125
	c0.063,0,0.063-0.063,0.125-0.063s0.125-0.063,0.188-0.125c0.063,0,0.063-0.063,0.125-0.063c0.125-0.125,0.251-0.188,0.376-0.314
	c0.251-0.251,0.502-0.627,0.69-1.003l0,0l0,0c0.063-0.188,0.125-0.376,0.188-0.564c0-0.125,0-0.188,0.063-0.314
	c0-0.125,0-0.188,0-0.314l0,0v-0.251l0,0v-1.693l0,0V15.356l0,0v-5.142l0,0V9.587V9.274V8.459
	C17.927,7.455,17.112,6.578,16.109,6.578z M11.469,33.04c0,0.815-0.69,1.442-1.442,1.442c-0.815,0-1.442-0.69-1.442-1.442
	c0-0.815,0.627-1.442,1.442-1.442C10.779,31.597,11.469,32.224,11.469,33.04z M16.987,9.901v6.96v14.297H3.003V16.924V9.901l0,0
	V8.96c0-0.125,0.063-0.251,0.125-0.376H5.01h0.188h2.884h3.888h2.884h0.188h1.881C16.987,8.71,17.05,8.835,17.05,8.96L16.987,9.901
	L16.987,9.901z"/>
<path class="st0" d="M31.66,18.366H18.304c-1.027,0-2.008,0.195-2.919,0.536c0.012-0.011,0.023-0.023,0.035-0.034
	c-2.822,0.941-5.393,3.449-5.393,6.584v0.269c-0.038,0.323-0.063,0.651-0.063,0.985v0.376c0,0.33,0.025,0.653,0.063,0.973v0.218
	c0,3.951,3.198,7.148,7.148,7.148h1.129H31.66h1.254c2.201,0,3.312-1.085,4.227-2.063C38.886,31.836,40,29.601,40,27.083v-0.439
	C40,22.066,36.238,18.366,31.66,18.366z M30.469,22.442c0.125-0.125,0.376-0.188,0.502-0.063c1.317,1.129,2.069,2.759,2.069,4.452
	c0.063,1.756-0.69,3.386-2.069,4.515c-0.188,0.125-0.376,0.125-0.502-0.063c-0.063-0.063-0.063-0.125-0.063-0.251
	c0-0.125,0.063-0.188,0.125-0.313c1.129-1.003,1.818-2.383,1.818-3.888s-0.627-2.884-1.818-3.888
	C30.343,22.818,30.343,22.568,30.469,22.442z M29.34,23.634c0.125-0.188,0.376-0.188,0.502-0.063
	c0.941,0.815,1.505,2.007,1.505,3.261c0,1.317-0.564,2.508-1.505,3.323c-0.188,0.125-0.376,0.125-0.502-0.063
	c-0.063-0.063-0.063-0.125-0.063-0.251s0.063-0.188,0.125-0.314c0.815-0.69,1.254-1.63,1.254-2.696c0-1.003-0.439-2.007-1.254-2.696
	C29.215,24.01,29.215,23.759,29.34,23.634z M28.399,25.201c0.125-0.188,0.376-0.188,0.502-0.063
	c0.502,0.439,0.752,1.066,0.752,1.693s-0.313,1.254-0.815,1.693c-0.063,0.188-0.313,0.125-0.439,0
	c-0.063-0.063-0.063-0.125-0.063-0.251s0.063-0.188,0.125-0.314c0.314-0.251,0.502-0.69,0.502-1.129s-0.188-0.815-0.502-1.129
	C28.274,25.578,28.274,25.327,28.399,25.201z M27.208,26.142c0.439,0,0.752,0.376,0.752,0.752c0.063,0.376-0.314,0.753-0.752,0.753
	c-0.439,0-0.753-0.376-0.753-0.753C26.455,26.455,26.832,26.142,27.208,26.142z"/>
<path class="st1" d="M20.059,28.149H19.62v0.752h-0.69v-0.752H17.05l2.195-3.449h0.376v2.759h0.439V28.149z M18.868,27.396v-1.191
	l-0.69,1.191H18.868z"/>
<path class="st1" d="M24.198,28.274L24.198,28.274c-0.251,0.251-0.439,0.376-0.69,0.502c-0.251,0.125-0.502,0.188-0.815,0.188
	c-0.314,0-0.564-0.063-0.815-0.188c-0.251-0.125-0.502-0.251-0.69-0.439c-0.188-0.188-0.376-0.439-0.439-0.69
	c-0.125-0.251-0.188-0.564-0.188-0.815c0-0.314,0.063-0.564,0.188-0.815c0.125-0.251,0.251-0.502,0.439-0.69
	c0.188-0.188,0.439-0.376,0.69-0.439c0.251-0.125,0.564-0.188,0.815-0.188c0.314,0,0.564,0.063,0.815,0.188
	c0.251,0.125,0.502,0.251,0.69,0.439l-0.502,0.502c-0.125-0.125-0.314-0.251-0.439-0.314c-0.188-0.063-0.376-0.125-0.564-0.125
	c-0.188,0-0.376,0.063-0.564,0.125c-0.188,0.063-0.314,0.188-0.439,0.314c-0.125,0.125-0.251,0.314-0.314,0.439
	c-0.063,0.188-0.125,0.376-0.125,0.564c0,0.188,0.063,0.376,0.125,0.564c0.063,0.188,0.188,0.314,0.314,0.439
	c0.125,0.125,0.314,0.251,0.439,0.314c0.188,0.063,0.376,0.125,0.564,0.125c0.125,0,0.314,0,0.439-0.063
	c0.125-0.063,0.314-0.125,0.439-0.188v-0.815h-0.878v-0.69h1.505V28.274z"/>
</svg>
