<?xml version="1.0" encoding="utf-8"?>
<!-- Generator: Adobe Illustrator 22.0.0, SVG Export Plug-In . SVG Version: 6.00 Build 0)  -->
<svg version="1.1" id="Layer_1" xmlns="http://www.w3.org/2000/svg" xmlns:xlink="http://www.w3.org/1999/xlink" x="0px" y="0px"
	 viewBox="0 0 20 20" style="enable-background:new 0 0 20 20;" xml:space="preserve">
<style type="text/css">
	.st0{fill:#EC0080;}
</style>
<path class="st0" d="M19.375,8.681c0-3.961-4.197-7.172-9.375-7.172S0.625,4.72,0.625,8.681c0,2.267,1.375,4.289,3.522,5.603
	c-0.001,0.003-0.029,0.941-0.359,1.925c-0.341,1.015-0.976,2.078-0.395,2.213c0.386,0.09,2.965,0.509,5.049-2.667
	C8.949,15.82,9.469,15.854,10,15.854C15.178,15.854,19.375,12.643,19.375,8.681z M5.426,10.319c-0.811,0-1.468-0.657-1.468-1.468
	s0.658-1.468,1.468-1.468c0.811,0,1.468,0.657,1.468,1.468S6.237,10.319,5.426,10.319z M10.019,10.319
	c-0.811,0-1.468-0.657-1.468-1.468s0.658-1.468,1.468-1.468c0.811,0,1.468,0.657,1.468,1.468S10.83,10.319,10.019,10.319z
	 M14.612,10.319c-0.811,0-1.468-0.657-1.468-1.468s0.658-1.468,1.468-1.468c0.811,0,1.468,0.657,1.468,1.468
	S15.423,10.319,14.612,10.319z"/>
</svg>
