<?xml version="1.0" encoding="utf-8"?>
<!-- Generator: Adobe Illustrator 22.0.1, SVG Export Plug-In . SVG Version: 6.00 Build 0)  -->
<svg version="1.1" id="Layer_1" xmlns="http://www.w3.org/2000/svg" xmlns:xlink="http://www.w3.org/1999/xlink" x="0px" y="0px"
	 viewBox="0 0 64 64" style="enable-background:new 0 0 64 64;" xml:space="preserve">
<style type="text/css">
	.st0{fill:#FFFFFF;}
</style>
<path class="st0" d="M59.524,36.487c0-4.326-2.607-8.184-6.683-10.71c0.006,0.181,0.01,0.363,0.01,0.545
	c0,5.424-2.71,10.485-7.631,14.25c-4.467,3.417-10.291,5.388-16.506,5.607c3.264,2.523,7.793,4.088,12.8,4.088
	c1.02,0,2.02-0.065,2.993-0.189c4.005,6.103,8.96,5.298,9.701,5.125c1.116-0.261-0.104-2.303-0.76-4.252
	c-0.635-1.889-0.689-3.691-0.69-3.697C56.882,44.727,59.524,40.843,59.524,36.487z"/>
<path class="st0" d="M50.627,26.322c0-9.75-10.331-17.654-23.076-17.654S4.476,16.572,4.476,26.322
	c0,5.581,3.385,10.557,8.67,13.792c-0.002,0.008-0.071,2.316-0.885,4.737c-0.839,2.497-2.403,5.114-0.973,5.448
	c0.95,0.222,7.298,1.253,12.429-6.566c1.247,0.16,2.529,0.243,3.835,0.243C40.296,43.976,50.627,36.072,50.627,26.322z
	 M16.292,30.353c-1.996,0-3.614-1.618-3.614-3.614s1.618-3.614,3.614-3.614c1.996,0,3.614,1.618,3.614,3.614
	S18.288,30.353,16.292,30.353z M27.599,30.353c-1.996,0-3.614-1.618-3.614-3.614s1.618-3.614,3.614-3.614
	c1.996,0,3.614,1.618,3.614,3.614S29.594,30.353,27.599,30.353z M38.905,30.353c-1.996,0-3.614-1.618-3.614-3.614
	s1.618-3.614,3.614-3.614c1.996,0,3.614,1.618,3.614,3.614S40.901,30.353,38.905,30.353z"/>
</svg>
