<?xml version="1.0" encoding="utf-8"?>
<!-- Generator: Adobe Illustrator 22.0.1, SVG Export Plug-In . SVG Version: 6.00 Build 0)  -->
<svg version="1.1" id="Layer_1" xmlns="http://www.w3.org/2000/svg" xmlns:xlink="http://www.w3.org/1999/xlink" x="0px" y="0px"
	 viewBox="0 0 64 64" style="enable-background:new 0 0 64 64;" xml:space="preserve">
<style type="text/css">
	.st0{fill:#FFFFFF;}
	.st1{fill:#F7F7F7;}
	.st2{fill:#E40076;}
</style>
<path class="st0" d="M32.377,3.852h-0.754C22.995,3.852,16,10.847,16,19.475v25.049c0,8.628,6.995,15.623,15.623,15.623h0.754
	C41.005,60.148,48,53.153,48,44.525V19.475C48,10.847,41.005,3.852,32.377,3.852z M32,39.326c-0.946,0-1.713-0.767-1.713-1.713
	c0-0.946,0.767-1.713,1.713-1.713c0.946,0,1.713,0.767,1.713,1.713C33.713,38.559,32.946,39.326,32,39.326z M35.649,35.057
	c-0.155,0.13-0.344,0.194-0.531,0.194c-0.236,0-0.47-0.101-0.634-0.295c-0.621-0.739-1.53-1.164-2.494-1.164
	c-0.954,0-1.857,0.417-2.478,1.144c-0.297,0.347-0.819,0.389-1.166,0.092c-0.348-0.297-0.389-0.819-0.092-1.166
	c0.935-1.095,2.297-1.724,3.736-1.724c1.454,0,2.825,0.639,3.761,1.754C36.044,34.242,35.999,34.763,35.649,35.057z M39.116,33.041
	c-0.155,0.13-0.344,0.194-0.531,0.194c-0.236,0-0.47-0.1-0.634-0.295c-1.487-1.771-3.664-2.786-5.974-2.786
	c-2.285,0-4.448,0.998-5.933,2.738c-0.297,0.347-0.819,0.389-1.166,0.092c-0.347-0.297-0.389-0.818-0.092-1.166
	c1.8-2.109,4.421-3.319,7.191-3.319c2.8,0,5.439,1.231,7.241,3.377C39.512,32.226,39.466,32.748,39.116,33.041z M41.78,30.463
	c-0.155,0.13-0.344,0.194-0.531,0.194c-0.236,0-0.47-0.101-0.634-0.295c-2.152-2.563-5.303-4.033-8.646-4.033
	c-3.308,0-6.438,1.445-8.588,3.963c-0.296,0.348-0.819,0.389-1.166,0.092c-0.347-0.297-0.389-0.819-0.092-1.166
	c2.464-2.888,6.053-4.544,9.846-4.544c3.833,0,7.446,1.685,9.913,4.623C42.175,29.647,42.13,30.169,41.78,30.463z"/>
<path class="st1" d="M43,8c0,0,2.061,2.841,2.061,4.332v29.54c0,7.388-5.989,13.377-13.377,13.377h-5.245
	c-3.841,0-6.999-2.657-9.439-5.25c1.78,5.298,6.48,10.148,12.377,10.148h5.245C42.011,60.148,48,54.158,48,46.77V17.23
	C48,12,45,10,43,8z"/>
<path class="st2" d="M30.916,16.599h-0.873v1.387h-1.274v-1.387h-3.535l4.131-6.525h0.678v5.189h0.873V16.599z M28.768,15.263
	v-2.209l-1.305,2.219L28.768,15.263z"/>
<path class="st2" d="M38.766,16.876l-0.021,0.061c-0.391,0.37-0.827,0.654-1.31,0.853s-0.992,0.298-1.526,0.298
	c-0.562,0-1.089-0.106-1.582-0.319c-0.493-0.212-0.925-0.502-1.295-0.868c-0.37-0.366-0.661-0.796-0.873-1.289
	c-0.212-0.493-0.319-1.021-0.319-1.582c0-0.562,0.106-1.089,0.319-1.582c0.212-0.493,0.503-0.923,0.873-1.29
	c0.37-0.366,0.801-0.656,1.295-0.868c0.493-0.212,1.021-0.319,1.582-0.319c0.534,0,1.043,0.099,1.526,0.298
	c0.483,0.199,0.919,0.483,1.31,0.853l-0.955,0.956c-0.254-0.24-0.543-0.425-0.868-0.555c-0.325-0.13-0.663-0.195-1.012-0.195
	c-0.377,0-0.73,0.07-1.058,0.211c-0.329,0.14-0.617,0.334-0.863,0.58c-0.247,0.247-0.44,0.534-0.581,0.863
	c-0.14,0.329-0.211,0.679-0.211,1.048c0,0.37,0.07,0.72,0.211,1.048s0.334,0.617,0.581,0.863c0.246,0.247,0.534,0.44,0.863,0.581
	c0.329,0.14,0.681,0.211,1.058,0.211c0.288,0,0.569-0.043,0.843-0.128c0.274-0.086,0.531-0.217,0.771-0.396v-1.51H35.92v-1.336
	h2.846V16.876z"/>
</svg>
