<?xml version="1.0" encoding="utf-8"?>
<!-- Generator: Adobe Illustrator 22.0.0, SVG Export Plug-In . SVG Version: 6.00 Build 0)  -->
<svg version="1.1" id="Layer_1" xmlns="http://www.w3.org/2000/svg" xmlns:xlink="http://www.w3.org/1999/xlink" x="0px" y="0px"
	 viewBox="0 0 42 42" style="enable-background:new 0 0 42 42;" xml:space="preserve">
<style type="text/css">
	.st0{fill:url(#SVGID_1_);}
	.st1{fill:none;stroke:#EC0080;stroke-width:0.3972;stroke-miterlimit:10;}
	.st2{fill:none;stroke:#EC0080;stroke-width:0.1986;stroke-miterlimit:10;}
</style>
<linearGradient id="SVGID_1_" gradientUnits="userSpaceOnUse" x1="1" y1="21" x2="41" y2="21">
	<stop  offset="0" style="stop-color:#8BC53F"/>
	<stop  offset="1" style="stop-color:#EC0080"/>
</linearGradient>
<path class="st0" d="M21,41C9.972,41,1,32.028,1,21C1,9.972,9.972,1,21,1s20,8.972,20,20C41,32.028,32.028,41,21,41z M21,2.032
	C10.541,2.032,2.032,10.541,2.032,21S10.541,39.968,21,39.968S39.968,31.459,39.968,21S31.459,2.032,21,2.032z"/>
<path class="st1" d="M14.546,8.154h8.794c0.126,0,0.239,0.057,0.322,0.148l5.474,6.192c0.073,0.089,0.118,0.207,0.118,0.337v16.977
	c0,0.561-0.202,1.07-0.529,1.439c-0.326,0.369-0.776,0.598-1.272,0.598H14.546c-0.496,0-0.946-0.229-1.272-0.598
	c-0.326-0.369-0.529-0.878-0.529-1.439V10.191c0-0.561,0.202-1.07,0.529-1.439C13.601,8.383,14.051,8.154,14.546,8.154z"/>
<path class="st2" d="M23.474,22.644h-4.947c-0.164,0-0.276,0.15-0.276,0.305v2.859c0,0.155,0.113,0.305,0.276,0.305h4.947
	c0.164,0,0.276-0.15,0.276-0.305v-2.859C23.75,22.794,23.637,22.644,23.474,22.644z"/>
<path class="st2" d="M22.157,29.713h1.592v-3.031c0-0.042-0.029-0.083-0.073-0.083h-1.445c-0.045,0-0.073,0.041-0.073,0.083V29.713z
	"/>
<path class="st2" d="M20.204,29.713h1.592v-3.031c0-0.042-0.029-0.083-0.073-0.083h-1.445c-0.044,0-0.074,0.041-0.074,0.083V29.713z
	"/>
<path class="st2" d="M18.25,29.713h1.592v-3.031c0-0.042-0.029-0.083-0.073-0.083h-1.445c-0.044,0-0.074,0.042-0.074,0.083V29.713z"
	/>
<path class="st2" d="M17.815,19.045h-0.882c-0.118,0-0.225,0.054-0.303,0.14c-0.078,0.086-0.127,0.205-0.127,0.335v9.717
	c0,0.13,0.049,0.249,0.127,0.335c0.078,0.086,0.186,0.14,0.303,0.14h0.882V19.045z"/>
<path class="st2" d="M19.843,19.045H18.25v3.03c0,0.042,0.029,0.083,0.074,0.083h1.445c0.044,0,0.073-0.041,0.073-0.083V19.045z"/>
<path class="st2" d="M21.796,19.045h-1.592v3.03c0,0.042,0.029,0.083,0.074,0.083h1.445c0.045,0,0.073-0.041,0.073-0.083V19.045z"/>
<path class="st2" d="M23.75,19.045h-1.592v3.03c0,0.041,0.029,0.083,0.073,0.083h1.445c0.045,0,0.073-0.04,0.073-0.083V19.045z"/>
<path class="st2" d="M25.067,19.045h-0.902v10.667h0.902c0.118,0,0.225-0.054,0.303-0.14c0.078-0.086,0.127-0.205,0.127-0.335
	v-9.717c0-0.13-0.048-0.249-0.127-0.335C25.292,19.099,25.185,19.045,25.067,19.045z"/>
</svg>
