<?xml version="1.0" encoding="utf-8"?>
<!-- Generator: Adobe Illustrator 22.0.0, SVG Export Plug-In . SVG Version: 6.00 Build 0)  -->
<svg version="1.1" id="Layer_1" xmlns="http://www.w3.org/2000/svg" xmlns:xlink="http://www.w3.org/1999/xlink" x="0px" y="0px"
	 viewBox="0 0 42 42" style="enable-background:new 0 0 42 42;" xml:space="preserve">
<style type="text/css">
	.st0{fill:#EC0080;}
</style>
<path class="st0" d="M7.799,1.027h3.859c-0.064,0.063-0.126,0.129-0.186,0.196c-0.344,0.389-0.621,0.851-0.809,1.362H7.799
	c-0.39,0-0.745,0.181-1.003,0.473C6.538,3.351,6.378,3.753,6.378,4.194v33.612c0,0.441,0.16,0.843,0.418,1.135
	c0.258,0.292,0.613,0.473,1.003,0.473h2.865c0.188,0.511,0.465,0.974,0.809,1.362c0.06,0.068,0.122,0.133,0.186,0.196H7.799
	c-0.771,0-1.471-0.356-1.978-0.93C5.315,39.47,5,38.678,5,37.806V4.194C5,3.322,5.315,2.53,5.822,1.957
	C6.329,1.383,7.029,1.027,7.799,1.027"/>
<path class="st0" d="M36.816,10.885l-8.511-9.628c-0.128-0.142-0.305-0.23-0.5-0.23H14.132c-0.771,0-1.471,0.356-1.978,0.93
	c-0.507,0.573-0.822,1.365-0.822,2.237v33.612c0,0.872,0.315,1.664,0.822,2.237c0.507,0.573,1.207,0.93,1.978,0.93h20.068
	c0.771,0,1.471-0.356,1.978-0.93C36.685,39.47,37,38.678,37,37.806V11.41C37,11.208,36.93,11.024,36.816,10.885z M25.966,17.961
	h2.475v4.712c0,0.066-0.045,0.129-0.114,0.129H26.08c-0.069,0-0.114-0.064-0.114-0.129V17.961z M22.929,17.961h2.476v4.712
	c0,0.066-0.045,0.129-0.114,0.129h-2.247c-0.069,0-0.114-0.063-0.114-0.129V17.961z M19.891,17.961h2.476v4.712
	c0,0.064-0.045,0.129-0.114,0.129h-2.247c-0.07,0-0.114-0.064-0.114-0.129V17.961z M19.215,34.546h-1.372
	c-0.183,0-0.35-0.083-0.472-0.218c-0.121-0.134-0.197-0.319-0.197-0.521V18.7c0-0.203,0.075-0.387,0.197-0.521
	c0.121-0.134,0.288-0.218,0.472-0.218h1.372V34.546z M22.367,34.546h-2.476v-4.712c0-0.064,0.046-0.129,0.114-0.129h2.247
	c0.07,0,0.114,0.063,0.114,0.129V34.546z M25.404,34.546h-2.476v-4.712c0-0.065,0.045-0.129,0.114-0.129h2.247
	c0.07,0,0.114,0.063,0.114,0.129V34.546z M28.442,34.546h-2.475v-4.712c0-0.065,0.044-0.129,0.114-0.129h2.247
	c0.069,0,0.114,0.064,0.114,0.129V34.546z M28.442,28.477c0,0.241-0.174,0.474-0.429,0.474H20.32c-0.253,0-0.429-0.233-0.429-0.474
	v-4.446c0-0.241,0.174-0.474,0.429-0.474h7.692c0.254,0,0.429,0.233,0.429,0.474V28.477z M31.159,33.807
	c0,0.203-0.075,0.387-0.197,0.521c-0.121,0.134-0.289,0.218-0.472,0.218h-1.402V17.961h1.402c0.183,0,0.35,0.083,0.472,0.218
	c0.121,0.134,0.197,0.319,0.197,0.521V33.807z"/>
</svg>
