<?xml version="1.0" encoding="utf-8"?>
<!-- Generator: Adobe Illustrator 22.0.0, SVG Export Plug-In . SVG Version: 6.00 Build 0)  -->
<svg version="1.1" id="Layer_1" xmlns="http://www.w3.org/2000/svg" xmlns:xlink="http://www.w3.org/1999/xlink" x="0px" y="0px"
	 viewBox="0 0 42 42" style="enable-background:new 0 0 42 42;" xml:space="preserve">
<style type="text/css">
	.st0{fill:url(#SVGID_1_);}
	.st1{fill:none;stroke:#EC0080;stroke-width:0.4011;stroke-miterlimit:10;}
</style>
<linearGradient id="SVGID_1_" gradientUnits="userSpaceOnUse" x1="1" y1="21" x2="41" y2="21">
	<stop  offset="0" style="stop-color:#8BC53F"/>
	<stop  offset="1" style="stop-color:#EC0080"/>
</linearGradient>
<path class="st0" d="M21,41C9.972,41,1,32.028,1,21C1,9.972,9.972,1,21,1s20,8.972,20,20C41,32.028,32.028,41,21,41z M21,2.032
	C10.541,2.032,2.032,10.541,2.032,21S10.541,39.968,21,39.968S39.968,31.459,39.968,21S31.459,2.032,21,2.032z"/>
<path class="st1" d="M35.398,23.347c0-2.263-1.364-4.281-3.496-5.603c0.003,0.095,0.005,0.19,0.005,0.285
	c0,2.837-1.418,5.485-3.992,7.454c-2.337,1.788-5.383,2.818-8.635,2.933c1.708,1.32,4.077,2.138,6.696,2.138
	c0.533,0,1.057-0.034,1.566-0.099c2.095,3.192,4.687,2.772,5.075,2.681c0.584-0.137-0.055-1.205-0.398-2.225
	c-0.332-0.988-0.36-1.931-0.361-1.934C34.016,27.658,35.398,25.626,35.398,23.347z"/>
<path class="st1" d="M30.744,18.03c0-5.101-5.404-9.235-12.071-9.235S6.602,12.929,6.602,18.03c0,2.92,1.771,5.523,4.535,7.215
	c-0.001,0.004-0.037,1.212-0.463,2.478c-0.439,1.306-1.257,2.675-0.509,2.85c0.497,0.116,3.818,0.655,6.502-3.435
	c0.652,0.083,1.323,0.127,2.006,0.127C25.34,27.265,30.744,23.13,30.744,18.03z M12.783,20.138c-1.044,0-1.891-0.846-1.891-1.891
	s0.847-1.891,1.891-1.891c1.044,0,1.891,0.846,1.891,1.891S13.827,20.138,12.783,20.138z M18.698,20.138
	c-1.044,0-1.891-0.846-1.891-1.891s0.847-1.891,1.891-1.891c1.044,0,1.891,0.846,1.891,1.891S19.742,20.138,18.698,20.138z
	 M24.612,20.138c-1.044,0-1.891-0.846-1.891-1.891s0.847-1.891,1.891-1.891c1.044,0,1.891,0.846,1.891,1.891
	S25.656,20.138,24.612,20.138z"/>
</svg>
