<?xml version="1.0" encoding="utf-8"?>
<!-- Generator: Adobe Illustrator 22.0.0, SVG Export Plug-In . SVG Version: 6.00 Build 0)  -->
<svg version="1.1" id="Layer_1" xmlns="http://www.w3.org/2000/svg" xmlns:xlink="http://www.w3.org/1999/xlink" x="0px" y="0px"
	 viewBox="0 0 42 42" style="enable-background:new 0 0 42 42;" xml:space="preserve">
<style type="text/css">
	.st0{fill:#EC0080;}
</style>
<path class="st0" d="M41,24.26c0-3.143-1.894-5.947-4.856-7.782c0.005,0.132,0.007,0.264,0.007,0.396
	c0,3.941-1.969,7.619-5.545,10.354c-3.246,2.483-7.477,3.915-11.994,4.074c2.372,1.834,5.663,2.97,9.301,2.97
	c0.741,0,1.468-0.047,2.175-0.138c2.91,4.434,6.51,3.85,7.049,3.724c0.811-0.19-0.076-1.674-0.552-3.09
	c-0.461-1.373-0.5-2.682-0.502-2.687C39.08,30.248,41,27.425,41,24.26z"/>
<path class="st0" d="M34.535,16.874c0-7.085-7.507-12.828-16.767-12.828S1,9.789,1,16.874c0,4.055,2.46,7.671,6.3,10.022
	c-0.002,0.006-0.052,1.683-0.643,3.442c-0.61,1.815-1.746,3.716-0.707,3.959c0.69,0.162,5.303,0.91,9.031-4.771
	c0.906,0.116,1.838,0.176,2.787,0.176C27.028,29.702,34.535,23.959,34.535,16.874z M9.586,19.803c-1.45,0-2.626-1.176-2.626-2.626
	s1.176-2.626,2.626-2.626c1.45,0,2.626,1.176,2.626,2.626S11.037,19.803,9.586,19.803z M17.802,19.803
	c-1.45,0-2.626-1.176-2.626-2.626s1.176-2.626,2.626-2.626c1.45,0,2.626,1.176,2.626,2.626S19.252,19.803,17.802,19.803z
	 M26.017,19.803c-1.45,0-2.626-1.176-2.626-2.626s1.176-2.626,2.626-2.626c1.45,0,2.626,1.176,2.626,2.626
	S27.467,19.803,26.017,19.803z"/>
</svg>
