<?xml version="1.0" encoding="utf-8"?>
<!-- Generator: Adobe Illustrator 22.0.1, SVG Export Plug-In . SVG Version: 6.00 Build 0)  -->
<svg version="1.1" id="Layer_1" xmlns="http://www.w3.org/2000/svg" xmlns:xlink="http://www.w3.org/1999/xlink" x="0px" y="0px"
	 viewBox="0 0 64 64" style="enable-background:new 0 0 64 64;" xml:space="preserve">
<style type="text/css">
	.st0{fill-rule:evenodd;clip-rule:evenodd;fill:#FFFFFF;}
	.st1{fill:#FFFFFF;}
</style>
<path class="st0" d="M35.618,14.238c0.49-0.491,1.073-0.876,1.713-1.14c0.636-0.264,1.32-0.403,2.012-0.403
	c0.693,0,1.376,0.139,2.012,0.403c0.64,0.265,1.223,0.65,1.713,1.14l-0.692,0.692l-0.693,0.692c-0.303-0.303-0.652-0.54-1.028-0.702
	c-0.014-0.006-0.028-0.012-0.042-0.018c-0.394-0.164-0.826-0.25-1.27-0.25c-0.444,0-0.876,0.086-1.27,0.25l-0.009,0.004
	c-0.388,0.162-0.749,0.404-1.061,0.716L36.31,14.93L35.618,14.238L35.618,14.238z"/>
<path class="st0" d="M29.687,8.306c1.277-1.277,2.787-2.276,4.434-2.959c1.644-0.681,3.417-1.041,5.222-1.041
	c1.805,0,3.578,0.361,5.222,1.041C46.213,6.03,47.723,7.03,49,8.306l-0.692,0.692l-0.693,0.693
	c-0.243-0.244-0.497-0.475-0.758-0.695c-0.92-0.772-1.943-1.391-3.033-1.843c-1.403-0.581-2.923-0.889-4.48-0.889
	s-3.077,0.308-4.48,0.889c-1.077,0.446-2.089,1.056-3,1.816c-0.273,0.227-0.537,0.468-0.791,0.722L30.38,8.999L29.687,8.306
	L29.687,8.306z"/>
<path class="st0" d="M32.688,11.307L33.38,12l0.692,0.692c0.263-0.263,0.542-0.503,0.835-0.721c0.492-0.366,1.023-0.666,1.58-0.897
	c0.893-0.37,1.862-0.566,2.856-0.566c0.994,0,1.964,0.196,2.856,0.566c0.57,0.236,1.112,0.545,1.613,0.921
	c0.281,0.211,0.549,0.444,0.802,0.697L45.306,12l0.693-0.692c-0.879-0.879-1.92-1.568-3.057-2.039
	c-0.253-0.105-0.51-0.198-0.771-0.281C41.262,8.7,40.309,8.55,39.343,8.55c-0.954,0-1.896,0.146-2.795,0.427
	c-0.272,0.085-0.54,0.182-0.804,0.291C34.608,9.74,33.566,10.428,32.688,11.307z"/>
<path class="st0" d="M38.252,17.277c0.66-0.66,1.73-0.66,2.39,0c0.66,0.66,0.66,1.73,0,2.39c-0.66,0.66-1.729,0.66-2.389,0
	C37.592,19.007,37.592,17.937,38.252,17.277L38.252,17.277z"/>
<path class="st1" d="M39.558,21.566v10.526v21.544H18.443h-0.001V32.092V20.161c0-0.19,0.061-0.368,0.157-0.526h3.148h4.333h10.489
	c-0.406-1.005-0.251-2.172,0.438-3.058h-4.443c0,0-4.389,0.02-7.129,0.04c0.001-0.013,0.001-0.027,0.002-0.04h-5.674
	c-1.519,0-2.762,1.243-2.762,2.762V20.7v1.368v7.742v22.369v2.532v0.377c0,0.633,0.129,1.237,0.363,1.788
	c0.234,0.55,0.572,1.047,0.989,1.464c0.313,0.313,0.67,0.581,1.062,0.795c0.261,0.142,0.537,0.26,0.825,0.35
	c0.432,0.135,0.89,0.208,1.365,0.208h14.793c2.532,0,4.604-2.071,4.604-4.604v-0.377V52.18V29.811v-7.742v-0.924
	C40.554,21.406,40.06,21.548,39.558,21.566z M29,58.658c-1.225,0-2.218-0.993-2.218-2.219c0-1.227,0.993-2.219,2.218-2.219
	s2.218,0.992,2.218,2.219C31.218,57.665,30.224,58.658,29,58.658z"/>
</svg>
