<?xml version="1.0" encoding="utf-8"?>
<!-- Generator: Adobe Illustrator 22.0.0, SVG Export Plug-In . SVG Version: 6.00 Build 0)  -->
<svg version="1.1" id="Layer_1" xmlns="http://www.w3.org/2000/svg" xmlns:xlink="http://www.w3.org/1999/xlink" x="0px" y="0px"
	 viewBox="0 0 42 42" style="enable-background:new 0 0 42 42;" xml:space="preserve">
<style type="text/css">
	.st0{fill:url(#SVGID_1_);}
	.st1{fill:none;stroke:#EC0080;stroke-width:0.3972;stroke-miterlimit:10;}
</style>
<linearGradient id="SVGID_1_" gradientUnits="userSpaceOnUse" x1="1" y1="21" x2="41" y2="21">
	<stop  offset="0" style="stop-color:#8BC53F"/>
	<stop  offset="1" style="stop-color:#EC0080"/>
</linearGradient>
<path class="st0" d="M21,41C9.972,41,1,32.028,1,21C1,9.972,9.972,1,21,1s20,8.972,20,20C41,32.028,32.028,41,21,41z M21,2.032
	C10.541,2.032,2.032,10.541,2.032,21S10.541,39.968,21,39.968S39.968,31.459,39.968,21S31.459,2.032,21,2.032z"/>
<path class="st1" d="M22.351,11.834c0.253-0.253,0.554-0.452,0.884-0.588c0.328-0.136,0.681-0.208,1.038-0.208
	c0.358,0,0.71,0.072,1.038,0.208c0.33,0.137,0.631,0.335,0.884,0.588l-0.357,0.357l-0.358,0.357
	c-0.156-0.156-0.336-0.279-0.53-0.362c-0.007-0.003-0.014-0.006-0.022-0.009c-0.203-0.085-0.426-0.129-0.655-0.129
	c-0.229,0-0.452,0.044-0.655,0.129l-0.005,0.002c-0.2,0.084-0.387,0.208-0.548,0.369l-0.358-0.357L22.351,11.834L22.351,11.834z"/>
<path class="st1" d="M19.29,8.773c0.659-0.659,1.438-1.175,2.288-1.527c0.848-0.351,1.763-0.537,2.695-0.537
	c0.931,0,1.846,0.186,2.695,0.537c0.85,0.352,1.63,0.868,2.289,1.527L28.899,9.13l-0.358,0.358
	c-0.125-0.126-0.256-0.245-0.391-0.359c-0.475-0.398-1.003-0.718-1.565-0.951c-0.724-0.3-1.508-0.459-2.312-0.459
	c-0.803,0-1.588,0.159-2.312,0.459c-0.556,0.23-1.078,0.545-1.548,0.937c-0.141,0.117-0.277,0.242-0.408,0.373l-0.358-0.357
	L19.29,8.773L19.29,8.773z"/>
<path class="st1" d="M20.839,10.322l0.357,0.358l0.357,0.357c0.136-0.136,0.28-0.26,0.431-0.372
	c0.254-0.189,0.528-0.344,0.815-0.463c0.461-0.191,0.961-0.292,1.474-0.292s1.013,0.101,1.474,0.292
	c0.294,0.122,0.574,0.281,0.832,0.475c0.145,0.109,0.283,0.229,0.414,0.36l0.357-0.357l0.358-0.357
	c-0.454-0.454-0.991-0.809-1.578-1.052C26,9.216,25.867,9.168,25.732,9.125c-0.469-0.149-0.961-0.226-1.459-0.226
	c-0.492,0-0.978,0.075-1.442,0.22c-0.14,0.044-0.279,0.094-0.415,0.15C21.83,9.513,21.292,9.868,20.839,10.322z"/>
<path class="st1" d="M23.71,13.403c0.341-0.341,0.893-0.341,1.233,0c0.341,0.341,0.341,0.893,0,1.233
	c-0.341,0.341-0.892,0.341-1.233,0C23.369,14.295,23.369,13.743,23.71,13.403L23.71,13.403z"/>
<path class="st1" d="M24.384,15.616v5.432v11.118H13.488h-0.001V21.048v-6.157c0-0.098,0.031-0.19,0.081-0.271h1.624h2.236h5.413
	c-0.21-0.519-0.13-1.121,0.226-1.578h-2.293c0,0-2.265,0.01-3.679,0.021c0.001-0.007,0.001-0.014,0.001-0.021h-2.928
	c-0.784,0-1.425,0.641-1.425,1.425v0.702v0.706v3.995v11.543v1.307v0.195c0,0.327,0.067,0.638,0.187,0.923
	c0.121,0.284,0.295,0.54,0.51,0.755c0.162,0.162,0.346,0.3,0.548,0.41c0.135,0.073,0.277,0.134,0.426,0.181
	c0.223,0.07,0.459,0.107,0.704,0.107h7.634c1.307,0,2.376-1.069,2.376-2.376v-0.195v-1.307V19.871v-3.995v-0.477
	C24.898,15.533,24.643,15.607,24.384,15.616z M18.936,34.757c-0.632,0-1.145-0.512-1.145-1.145c0-0.633,0.512-1.145,1.145-1.145
	c0.632,0,1.145,0.512,1.145,1.145C20.08,34.244,19.567,34.757,18.936,34.757z"/>
</svg>
