<?xml version="1.0" encoding="utf-8"?>
<!-- Generator: Adobe Illustrator 22.0.0, SVG Export Plug-In . SVG Version: 6.00 Build 0)  -->
<svg version="1.1" id="Layer_1" xmlns="http://www.w3.org/2000/svg" xmlns:xlink="http://www.w3.org/1999/xlink" x="0px" y="0px"
	 viewBox="0 0 42 42" style="enable-background:new 0 0 42 42;" xml:space="preserve">
<style type="text/css">
	.st0{fill:#EC0080;}
</style>
<path class="st0" d="M24.858,8.393c0.348-0.349,0.762-0.622,1.216-0.809c0.451-0.187,0.937-0.286,1.428-0.286
	c0.492,0,0.977,0.099,1.428,0.286c0.454,0.188,0.868,0.461,1.216,0.809l-0.491,0.491l-0.492,0.491
	c-0.215-0.215-0.463-0.383-0.73-0.498c-0.01-0.004-0.02-0.009-0.03-0.013c-0.28-0.116-0.586-0.177-0.901-0.177
	c-0.315,0-0.622,0.061-0.901,0.177l-0.006,0.003c-0.275,0.115-0.532,0.287-0.753,0.508l-0.492-0.491L24.858,8.393L24.858,8.393z"/>
<path class="st0" d="M20.648,4.183c0.906-0.906,1.978-1.615,3.147-2.1c1.167-0.483,2.425-0.739,3.706-0.739
	c1.281,0,2.54,0.256,3.706,0.739c1.17,0.485,2.241,1.195,3.148,2.1l-0.491,0.491l-0.492,0.492c-0.172-0.173-0.353-0.337-0.538-0.493
	c-0.653-0.548-1.379-0.987-2.153-1.308c-0.996-0.412-2.075-0.631-3.18-0.631s-2.184,0.219-3.18,0.631
	c-0.764,0.317-1.483,0.75-2.129,1.289C22,4.815,21.812,4.986,21.632,5.166L21.14,4.675L20.648,4.183L20.648,4.183z"/>
<path class="st0" d="M22.778,6.313l0.491,0.492l0.491,0.491c0.187-0.187,0.385-0.357,0.593-0.512
	c0.349-0.26,0.726-0.473,1.121-0.637c0.634-0.263,1.322-0.402,2.027-0.402c0.706,0,1.394,0.139,2.027,0.402
	c0.405,0.168,0.789,0.387,1.145,0.654c0.199,0.15,0.39,0.315,0.569,0.495l0.491-0.491l0.492-0.491
	c-0.624-0.624-1.363-1.113-2.17-1.447c-0.18-0.075-0.362-0.141-0.547-0.199c-0.645-0.204-1.322-0.311-2.007-0.311
	c-0.677,0-1.346,0.104-1.984,0.303c-0.193,0.06-0.383,0.129-0.571,0.207C24.141,5.201,23.401,5.689,22.778,6.313z"/>
<path class="st0" d="M26.727,10.55c0.468-0.468,1.228-0.468,1.696,0c0.468,0.468,0.468,1.228,0,1.696s-1.227,0.468-1.696,0
	C26.259,11.778,26.259,11.019,26.727,10.55L26.727,10.55z"/>
<path class="st0" d="M27.654,13.595v7.471v15.291H12.667h-0.001V21.066v-8.468c0-0.135,0.043-0.261,0.111-0.373h2.234h3.075h7.445
	c-0.288-0.713-0.178-1.542,0.311-2.17H22.69c0,0-3.115,0.014-5.06,0.028c0.001-0.009,0.001-0.019,0.001-0.028h-4.027
	c-1.078,0-1.96,0.882-1.96,1.96v0.966v0.971v5.495v15.877v1.797v0.268c0,0.449,0.092,0.878,0.258,1.269
	c0.166,0.39,0.406,0.743,0.702,1.039c0.222,0.222,0.476,0.412,0.754,0.564c0.185,0.101,0.381,0.185,0.586,0.248
	c0.307,0.096,0.632,0.148,0.969,0.148h10.5c1.797,0,3.268-1.47,3.268-3.268v-0.268v-1.797V19.447v-5.495v-0.656
	C28.361,13.481,28.011,13.582,27.654,13.595z M20.161,39.922c-0.869,0-1.574-0.705-1.574-1.575c0-0.871,0.705-1.575,1.574-1.575
	c0.869,0,1.574,0.704,1.574,1.575C21.735,39.217,21.029,39.922,20.161,39.922z"/>
</svg>
