<?xml version="1.0" encoding="utf-8"?>
<!-- Generator: Adobe Illustrator 22.0.1, SVG Export Plug-In . SVG Version: 6.00 Build 0)  -->
<svg version="1.1" id="Layer_1" xmlns="http://www.w3.org/2000/svg" xmlns:xlink="http://www.w3.org/1999/xlink" x="0px" y="0px"
	 viewBox="0 0 64 64" style="enable-background:new 0 0 64 64;" xml:space="preserve">
<style type="text/css">
	.st0{fill-rule:evenodd;clip-rule:evenodd;fill:#FFFFFF;}
	.st1{fill:#FFFFFF;}
</style>
<path class="st0" d="M29.027,49.571c-0.633-0.671-1.159-1.231-1.6-1.703c-4.08-0.79-8.163-1.58-12.267-2.375
	c2.112-10.91,4.219-21.79,6.332-32.705c0.2,0.027,0.368,0.042,0.532,0.074c7.33,1.418,14.658,2.843,21.991,4.243
	c0.536,0.102,0.621,0.288,0.523,0.794c-0.927,4.756-1.85,9.514-2.772,14.271c0.055,0.042,0.111,0.083,0.164,0.128
	c0.135-0.06,0.273-0.114,0.415-0.161c0.639-0.213,1.305-0.279,1.957-0.215c1.148-5.93,2.297-11.86,3.443-17.79
	c0.051-0.263,0.102-0.529,0.114-0.796c0.114-2.463-1.513-4.442-4.132-4.956C37.7,7.199,31.672,6.028,25.637,4.892
	c-0.718-0.135-1.512-0.164-2.219-0.008c-2.17,0.477-3.342,1.947-3.756,4.088c-2.539,13.133-5.083,26.264-7.625,39.396
	c-0.029,0.151-0.059,0.301-0.082,0.453c-0.401,2.715,1.219,5.009,3.911,5.53c6.161,1.194,12.321,2.388,18.483,3.578
	c0.878,0.17,1.719,0.117,2.476-0.122C35.896,56.841,33.85,54.675,29.027,49.571z M31.707,10.298
	c1.438,0.237,2.871,0.514,4.293,0.832c0.19,0.042,0.314,0.381,0.469,0.583c-0.216,0.1-0.445,0.307-0.646,0.282
	c-0.722-0.09-1.434-0.258-2.15-0.397c-0.716-0.139-1.439-0.248-2.142-0.435c-0.192-0.051-0.323-0.333-0.481-0.508
	C31.27,10.529,31.513,10.266,31.707,10.298z M29.961,9.975c0.168,0.012,0.317,0.281,0.6,0.56c-0.363,0.156-0.598,0.349-0.759,0.3
	c-0.17-0.052-0.27-0.335-0.4-0.518C29.589,10.193,29.784,9.962,29.961,9.975z M25.516,54.241c-1.302,0-2.358-1.056-2.358-2.358
	c0-1.302,1.056-2.358,2.358-2.358c1.302,0,2.358,1.056,2.358,2.358C27.874,53.185,26.818,54.241,25.516,54.241z"/>
<path class="st1" d="M28.087,33.81c-0.333-0.253-0.643-0.542-0.922-0.867c-1.045-1.213-1.554-2.761-1.435-4.357
	c0.232-3.111,2.854-5.548,5.97-5.548c0.15,0,0.303,0.006,0.454,0.017c3.296,0.246,5.777,3.128,5.531,6.423
	c-0.002,0.021-0.004,0.042-0.006,0.063l1.835,1.835c0.168-0.556,0.28-1.137,0.325-1.736c0.334-4.483-3.041-8.403-7.524-8.737
	c-0.204-0.015-0.411-0.023-0.614-0.023c-4.239,0-7.807,3.315-8.123,7.546c-0.162,2.172,0.531,4.277,1.952,5.927
	c0.724,0.841,1.593,1.511,2.559,1.989V33.81z"/>
<path class="st1" d="M39.299,56.691c-0.15-0.118-0.959-0.969-8.422-8.867c-1.884-1.994-3.48-3.735-3.553-3.874
	c-0.332-0.635-0.06-1.568,0.572-1.959c0.559-0.349,1.41-0.428,2.006-0.185c0.416,0.168,0.921,0.572,1.825,1.463
	c0.805,0.792,1.595,1.419,1.85,1.467c0.266,0.048,0.495-0.044,0.693-0.279c0.094-0.112,0.176-0.213,0.182-0.226
	c0.006-0.013-1.11-3.433-2.477-7.602l-2.485-7.578l0.051-0.432c0.105-0.906,0.656-1.581,1.519-1.868
	c0.863-0.288,1.706-0.078,2.336,0.584l0.299,0.315l1.473,4.359c1.447,4.281,1.477,4.353,1.479,3.974
	c0.008-0.798,0.344-1.429,1.006-1.886c0.865-0.598,2.1-0.448,2.857,0.35c0.282,0.295,0.325,0.385,0.71,1.47l0.408,1.155l0.002-0.381
	c0.004-0.792,0.344-1.427,1.004-1.883c0.865-0.598,2.1-0.448,2.857,0.35c0.281,0.292,0.329,0.394,0.759,1.568
	c0.253,0.69,0.434,1.162,0.404,1.049c-0.089-0.338,0.047-1.105,0.26-1.483c0.306-0.54,0.634-0.81,1.225-1.009
	c0.86-0.289,1.698-0.078,2.338,0.588l0.298,0.31l2.093,6.226c1.839,5.466,2.104,6.291,2.15,6.737
	C55.273,56.944,44.547,60.643,39.299,56.691L39.299,56.691z"/>
</svg>
