<?xml version="1.0" encoding="utf-8"?>
<!-- Generator: Adobe Illustrator 22.0.0, SVG Export Plug-In . SVG Version: 6.00 Build 0)  -->
<svg version="1.1" id="Layer_1" xmlns="http://www.w3.org/2000/svg" xmlns:xlink="http://www.w3.org/1999/xlink" x="0px" y="0px"
	 viewBox="0 0 42 42" style="enable-background:new 0 0 42 42;" xml:space="preserve">
<style type="text/css">
	.st0{fill:url(#SVGID_1_);}
	.st1{fill:none;stroke:#EC0080;stroke-width:0.3972;stroke-miterlimit:10;}
	.st2{fill:none;stroke:#EC0080;stroke-width:0.1986;stroke-miterlimit:10;}
</style>
<linearGradient id="SVGID_1_" gradientUnits="userSpaceOnUse" x1="1" y1="21" x2="41" y2="21">
	<stop  offset="0" style="stop-color:#8BC53F"/>
	<stop  offset="1" style="stop-color:#EC0080"/>
</linearGradient>
<path class="st0" d="M21,41C9.972,41,1,32.028,1,21C1,9.972,9.972,1,21,1s20,8.972,20,20C41,32.028,32.028,41,21,41z M21,2.032
	C10.541,2.032,2.032,10.541,2.032,21S10.541,39.968,21,39.968S39.968,31.459,39.968,21S31.459,2.032,21,2.032z"/>
<g>
	<path class="st1" d="M32.342,10.56c0,0.451-0.009,0.903,0.004,1.353c0.008,0.287-0.102,0.405-0.395,0.399
		c-1.61-0.031-1.265,0.216-1.304-1.205c-0.029-1.057,0.048-2.115-0.042-3.172c0.186-0.041,0.293,0.086,0.394,0.2
		C31.573,8.784,32.369,10.466,32.342,10.56z"/>
	<path class="st1" d="M21.894,14.194c-0.397-0.551-0.639-1.187-0.965-1.777c-0.09-0.163-0.052-0.334-0.014-0.506
		c0.063-0.287,0.128-0.574,0.172-0.864c0.116-0.779,0.357-1.472,1.132-1.85c0.137-0.067,0.255-0.18,0.37-0.284
		c1.548-1.4,3.361-1.381,5.237-0.956c0.441,0.1,0.87,0.236,1.327,0.204c0.273-0.019,0.367,0.095,0.365,0.361
		c-0.009,0.919-0.009,1.838,0,2.757c0.003,0.26-0.104,0.438-0.324,0.543c-0.17,0.081-0.353,0.169-0.535,0.182
		c-1.285,0.092-2.135,0.806-2.75,1.874c-0.186-0.143-0.373-0.286-0.559-0.428c-0.006-0.663,0.26-1.2,0.738-1.65
		c0.263-0.248,0.51-0.515,0.752-0.785c0.279-0.312,0.183-0.568-0.199-0.634c-1.321-0.227-2.654-0.559-3.902,0.301
		c-0.387,0.267-0.814,1.25-0.614,1.671c0.187,0.395,0.299,0.806,0.414,1.221C22.357,13.816,22.154,14.034,21.894,14.194z"/>
	<path class="st1" d="M22.937,8.335c-0.474,0.354-0.888,0.663-1.304,0.971c-0.055,0.041-0.144,0.061-0.171,0.114
		c-0.369,0.72-1.079,0.597-1.696,0.679c-0.416,0.055-0.805,0.198-1.209,0.289c-0.641,0.144-1.301-0.128-1.511-0.621
		c-0.069-0.162-0.151-0.307,0.143-0.369c1.758-0.367,3.512-0.753,5.268-1.131C22.589,8.238,22.725,8.22,22.937,8.335z"/>
	<path class="st1" d="M30.343,9.886c0,0.571-0.003,1.142,0.001,1.714c0.002,0.219-0.049,0.37-0.313,0.369
		c-0.27-0.001-0.303-0.165-0.303-0.377c0.002-1.125,0.001-2.25,0.002-3.375c0-0.198,0.004-0.386,0.284-0.396
		c0.304-0.011,0.33,0.177,0.329,0.405C30.341,8.778,30.343,9.332,30.343,9.886z"/>
	<path class="st1" d="M18.801,11.189c-0.154-0.015-0.317-0.003-0.459-0.052c-0.186-0.065-0.481-0.116-0.448-0.349
		c0.033-0.237,0.319-0.107,0.491-0.135c0.76-0.125,1.5-0.376,2.281-0.374c0.099,0,0.222-0.053,0.269,0.072
		c0.051,0.137-0.033,0.25-0.159,0.277C20.105,10.766,19.524,11.228,18.801,11.189z"/>
</g>
<path class="st1" d="M25.014,17.994l-0.052,13.371l-9.395-0.035l0.059-15.248l5.754,0.022c-0.073-0.248-0.114-0.509-0.116-0.78
	l-2.03-0.008c-0.148-0.001-0.268-0.121-0.267-0.269c0.001-0.148,0.121-0.268,0.269-0.267l2.074,0.008
	c0.058-0.319,0.168-0.619,0.323-0.892l-5.941-0.022c-0.451-0.002-0.818,0.363-0.82,0.814l-0.071,18.456
	c-0.002,0.451,0.363,0.818,0.814,0.82l9.283,0.035c0.451,0.002,0.818-0.363,0.82-0.814l0.061-15.581
	C25.546,17.768,25.29,17.901,25.014,17.994z M15.428,14.334c0.292-0.167,0.551,0.286,0.259,0.453
	C15.395,14.954,15.136,14.501,15.428,14.334z M20.256,33.502c-0.476-0.002-0.861-0.389-0.859-0.866
	c0.002-0.476,0.389-0.861,0.866-0.859c0.476,0.002,0.861,0.389,0.859,0.866C21.12,33.12,20.732,33.504,20.256,33.502z"/>
<path class="st2" d="M23.669,14.624c-0.066-0.058-0.154-0.088-0.263-0.088h-0.437v0.669h0.437c0.109,0,0.197-0.029,0.263-0.088
	c0.066-0.059,0.1-0.141,0.1-0.248C23.769,14.765,23.735,14.683,23.669,14.624z"/>
<path class="st2" d="M24.109,12.57c-1.505,0-2.725,1.22-2.725,2.725c0,1.505,1.22,2.725,2.725,2.725c1.505,0,2.725-1.22,2.725-2.725
	C26.834,13.79,25.614,12.57,24.109,12.57z M23.78,16.44l-0.47-0.848h-0.342v0.848h-0.387v-2.29h0.854
	c0.202,0,0.373,0.068,0.512,0.202c0.139,0.135,0.208,0.307,0.208,0.517c0,0.161-0.041,0.3-0.124,0.419
	c-0.082,0.119-0.191,0.204-0.326,0.256l0.52,0.895H23.78z M25.434,16.275c-0.135,0.13-0.304,0.195-0.509,0.195
	c-0.177,0-0.333-0.049-0.469-0.147c-0.136-0.098-0.227-0.225-0.275-0.379l0.351-0.158c0.026,0.093,0.073,0.167,0.141,0.22
	c0.068,0.054,0.148,0.08,0.239,0.08c0.099,0,0.18-0.031,0.242-0.092c0.062-0.061,0.094-0.139,0.094-0.232
	c0-0.061-0.017-0.116-0.052-0.164c-0.035-0.048-0.08-0.088-0.135-0.121c-0.056-0.033-0.117-0.064-0.184-0.095
	c-0.067-0.031-0.135-0.064-0.202-0.101c-0.068-0.037-0.129-0.078-0.184-0.123c-0.056-0.046-0.101-0.106-0.135-0.18
	c-0.035-0.074-0.052-0.158-0.052-0.251c0-0.184,0.06-0.332,0.178-0.442c0.119-0.11,0.268-0.165,0.446-0.165
	c0.147,0,0.276,0.039,0.388,0.117c0.112,0.078,0.19,0.182,0.233,0.311l-0.348,0.161c-0.016-0.071-0.047-0.127-0.094-0.167
	c-0.047-0.04-0.104-0.059-0.171-0.059c-0.073,0-0.133,0.022-0.18,0.065c-0.047,0.044-0.07,0.099-0.07,0.167
	c0,0.073,0.033,0.137,0.098,0.192c0.065,0.055,0.144,0.103,0.236,0.144c0.092,0.042,0.185,0.088,0.278,0.14
	c0.093,0.052,0.172,0.126,0.238,0.224c0.065,0.098,0.098,0.216,0.098,0.353C25.636,15.976,25.569,16.145,25.434,16.275z"/>
</svg>
