<?xml version="1.0" encoding="utf-8"?>
<!-- Generator: Adobe Illustrator 22.0.0, SVG Export Plug-In . SVG Version: 6.00 Build 0)  -->
<svg version="1.1" id="Layer_1" xmlns="http://www.w3.org/2000/svg" xmlns:xlink="http://www.w3.org/1999/xlink" x="0px" y="0px"
	 viewBox="0 0 42 42" style="enable-background:new 0 0 42 42;" xml:space="preserve">
<style type="text/css">
	.st0{fill:#EC0080;}
</style>
<path class="st0" d="M36.095,5.635c0,0.674-0.013,1.348,0.006,2.021c0.012,0.428-0.153,0.604-0.59,0.596
	c-2.404-0.046-1.889,0.322-1.947-1.799c-0.043-1.578,0.072-3.159-0.062-4.736c0.277-0.061,0.438,0.128,0.588,0.299
	C34.946,2.983,36.136,5.495,36.095,5.635z"/>
<path class="st0" d="M22.051,2.312c-0.708,0.528-1.327,0.99-1.947,1.45c-0.083,0.061-0.215,0.091-0.255,0.17
	c-0.551,1.075-1.611,0.892-2.533,1.013c-0.621,0.082-1.202,0.296-1.806,0.432c-0.957,0.215-1.943-0.191-2.257-0.927
	c-0.103-0.243-0.225-0.459,0.214-0.551c2.625-0.548,5.244-1.125,7.866-1.688C21.531,2.168,21.734,2.141,22.051,2.312z"/>
<path class="st0" d="M33.109,4.628c0,0.853-0.004,1.706,0.002,2.559c0.003,0.328-0.074,0.552-0.467,0.55
	c-0.403-0.001-0.452-0.247-0.452-0.563c0.004-1.68,0.001-3.36,0.002-5.04c0-0.296,0.006-0.576,0.424-0.592
	c0.454-0.017,0.492,0.264,0.491,0.605C33.107,2.974,33.109,3.801,33.109,4.628z"/>
<path class="st0" d="M15.874,6.574c-0.23-0.023-0.473-0.004-0.685-0.078c-0.277-0.097-0.718-0.173-0.669-0.521
	c0.05-0.355,0.476-0.16,0.733-0.202c1.135-0.186,2.239-0.561,3.406-0.559c0.148,0,0.331-0.079,0.401,0.108
	c0.076,0.204-0.05,0.374-0.237,0.413C17.821,5.943,16.955,6.632,15.874,6.574z"/>
<path class="st0" d="M25.153,16.735L25.075,36.7l-14.03-0.053l0.089-22.769l8.592,0.032c-0.109-0.37-0.17-0.76-0.173-1.164
	l-3.032-0.011c-0.221-0.001-0.4-0.181-0.399-0.402c0.001-0.221,0.181-0.4,0.402-0.399l3.097,0.012
	c0.086-0.476,0.251-0.925,0.482-1.332L11.23,10.58c-0.674-0.003-1.222,0.542-1.225,1.215L9.899,39.354
	c-0.002,0.674,0.542,1.222,1.216,1.225l13.861,0.052c0.674,0.002,1.222-0.542,1.225-1.216l0.091-23.266
	C25.946,16.399,25.564,16.597,25.153,16.735z M10.838,11.27c0.436-0.25,0.823,0.427,0.387,0.676
	C10.789,12.196,10.402,11.519,10.838,11.27z M18.048,39.893c-0.711-0.003-1.286-0.581-1.283-1.292
	c0.003-0.711,0.581-1.286,1.293-1.283c0.711,0.003,1.285,0.581,1.283,1.293C19.338,39.322,18.759,39.896,18.048,39.893z"/>
<path class="st0" d="M23.144,11.704c-0.099-0.087-0.23-0.131-0.393-0.131h-0.653v0.999h0.653c0.163,0,0.294-0.044,0.393-0.131
	c0.099-0.087,0.149-0.211,0.149-0.371C23.293,11.914,23.243,11.792,23.144,11.704z"/>
<path class="st0" d="M31.875,2.593c0.004-0.397-0.137-0.568-0.544-0.539c-0.682,0.048-1.323-0.156-1.981-0.305
	c-2.8-0.635-5.508-0.664-7.819,1.427C21.357,3.332,21.181,3.5,20.976,3.6c-1.157,0.564-1.517,1.6-1.69,2.762
	c-0.064,0.433-0.161,0.862-0.256,1.29c-0.057,0.257-0.113,0.513,0.021,0.756c0.421,0.762,0.757,1.57,1.221,2.308
	c-0.334,0.591-0.54,1.263-0.54,1.99c0,2.247,1.822,4.069,4.069,4.069c2.247,0,4.069-1.822,4.069-4.069
	c0-1.031-0.396-1.961-1.027-2.678c0.885-1.279,2.068-2.115,3.751-2.235c0.272-0.019,0.546-0.151,0.799-0.272
	c0.327-0.157,0.487-0.423,0.483-0.811C31.861,5.337,31.862,3.965,31.875,2.593z M23.31,14.416l-0.702-1.266h-0.511v1.266H21.52
	v-3.42h1.275c0.302,0,0.557,0.101,0.764,0.302c0.207,0.201,0.311,0.459,0.311,0.773c0,0.24-0.061,0.449-0.184,0.626
	c-0.123,0.177-0.285,0.305-0.486,0.382l0.777,1.337H23.31z M25.779,14.169c-0.201,0.194-0.454,0.291-0.759,0.291
	c-0.264,0-0.497-0.073-0.7-0.22c-0.203-0.147-0.34-0.335-0.411-0.566l0.524-0.235c0.038,0.139,0.109,0.249,0.211,0.329
	c0.102,0.08,0.221,0.12,0.358,0.12c0.148,0,0.269-0.046,0.362-0.138c0.093-0.092,0.14-0.207,0.14-0.346
	c0-0.092-0.026-0.173-0.078-0.244c-0.052-0.071-0.119-0.131-0.202-0.18c-0.083-0.049-0.175-0.096-0.275-0.142
	c-0.101-0.046-0.201-0.096-0.302-0.151c-0.101-0.055-0.193-0.116-0.275-0.184c-0.083-0.068-0.15-0.158-0.202-0.269
	c-0.052-0.111-0.078-0.236-0.078-0.375c0-0.275,0.089-0.495,0.267-0.66c0.177-0.164,0.4-0.246,0.666-0.246
	c0.219,0,0.412,0.058,0.579,0.175c0.167,0.117,0.284,0.272,0.349,0.464l-0.52,0.24c-0.024-0.107-0.07-0.189-0.14-0.249
	c-0.07-0.059-0.155-0.089-0.255-0.089c-0.11,0-0.199,0.033-0.269,0.098c-0.07,0.065-0.104,0.148-0.104,0.249
	c0,0.11,0.049,0.205,0.147,0.287c0.098,0.081,0.215,0.153,0.353,0.215s0.276,0.132,0.415,0.209c0.139,0.077,0.258,0.189,0.355,0.335
	c0.098,0.147,0.147,0.322,0.147,0.526C26.082,13.723,25.981,13.975,25.779,14.169z M27.877,6.315
	c-0.361,0.403-0.729,0.801-1.122,1.172c-0.511,0.482-0.851,1.033-1.005,1.669c-0.581-0.32-1.239-0.518-1.949-0.518
	c-0.958,0-1.826,0.345-2.521,0.898c-0.122-0.414-0.255-0.825-0.443-1.222c-0.298-0.628,0.339-2.097,0.917-2.495
	c1.863-1.284,3.854-0.789,5.826-0.45C28.151,5.467,28.294,5.849,27.877,6.315z"/>
</svg>
