<?xml version="1.0" encoding="utf-8"?>
<!-- Generator: Adobe Illustrator 22.0.1, SVG Export Plug-In . SVG Version: 6.00 Build 0)  -->
<svg version="1.1" id="Layer_1" xmlns="http://www.w3.org/2000/svg" xmlns:xlink="http://www.w3.org/1999/xlink" x="0px" y="0px"
	 viewBox="0 0 64 64" style="enable-background:new 0 0 64 64;" xml:space="preserve">
<style type="text/css">
	.st0{fill:#FFFFFF;}
</style>
<path class="st0" d="M28.085,24.299c0,0,4.49,2.816,4.49,9.347c0,0,0.122,2.163,0,2.939c0,0,0.2,2,0.733,2.204
	c0,0,2.818-7.551-3.59-14.285c0,0-5.592-5.877-13.551-0.531c0,0-6.816,4.979-3.755,16.285c0,0,1.714,4.898,3.755,6.612
	c0,0,3.551,2.612,0.98,5.714c0,0-2.775,3.184-6.286-0.775c0,0-12.571-13.224-2.735-29.754c0,0,7.592-11.224,20.938-6.408
	c0,0,12.163,4.775,12.285,19.306c0,0-0.33,10.938-8.043,11.265c0,0-8.176,0.374-7.875-11.836
	C25.432,34.38,25.8,27.768,28.085,24.299z"/>
<path class="st0" d="M34.167,17.524c0,0,2.775,2.326,4.571,5.469c0,0,4.449-3.02,10.612,0.327c0,0,11.592,7.673,1.918,22.448
	c0,0-1.429,1.918-2.408,2.694c0,0-1.755,3.115,1.959,5.333c0,0,3.061,1.198,5.347-2.435c0,0,11.673-12.204,2.898-28.162
	C59.064,23.197,50.166,8.422,34.167,17.524z"/>
</svg>
