<?xml version="1.0" encoding="utf-8"?>
<!-- Generator: Adobe Illustrator 22.0.0, SVG Export Plug-In . SVG Version: 6.00 Build 0)  -->
<svg version="1.1" id="Layer_1" xmlns="http://www.w3.org/2000/svg" xmlns:xlink="http://www.w3.org/1999/xlink" x="0px" y="0px"
	 viewBox="0 0 42 42" style="enable-background:new 0 0 42 42;" xml:space="preserve">
<style type="text/css">
	.st0{fill:#EC0080;}
</style>
<polygon class="st0" points="33.964,16.528 23.31,16.528 22.35,19.545 25.694,19.57 22.951,27.793 26.848,27.793 29.328,19.57 
	33.078,19.589 "/>
<path class="st0" d="M5.273,22.55c0-6.882,14.242-10.866,15.897-11.305l-1.119,2.397l2.354-1.303l1.967,1.836l-0.512-2.642
	l8.184-1.464l-8.5-0.168l-0.512-2.642l-1.139,2.438l-2.671-0.329l1.967,1.836l-0.007,0.015c-1.8,0.188-19.886,2.302-20.179,11.255
	C0.619,33.856,27.962,34.741,27.962,34.741S5.081,32.472,5.273,22.55z"/>
<path class="st0" d="M37,16.666l-7.486,11.127h4.051l0.974-1.641h3.487v1.641H41V16.666H37z M37.981,23.3h-1.519l1.519-2.654V23.3z"
	/>
<path class="st0" d="M19.406,16.528H12.83L9.119,27.793h3.923l1.25-3.916h3.346c2.211-0.577,3.837-2.178,3.837-4.314
	C21.474,17,19.406,16.528,19.406,16.528z M17.003,21.115h-1.808l0.641-2.115h1.679c0,0,0.436,0.282,0.436,1.058
	C17.951,20.897,17.003,21.115,17.003,21.115z"/>
</svg>
