<?xml version="1.0" encoding="utf-8"?>
<!-- Generator: Adobe Illustrator 22.0.0, SVG Export Plug-In . SVG Version: 6.00 Build 0)  -->
<svg version="1.1" id="Layer_1" xmlns="http://www.w3.org/2000/svg" xmlns:xlink="http://www.w3.org/1999/xlink" x="0px" y="0px"
	 viewBox="0 0 42 42" style="enable-background:new 0 0 42 42;" xml:space="preserve">
<style type="text/css">
	.st0{fill:url(#SVGID_1_);}
	.st1{fill:none;stroke:#EC0080;stroke-width:0.4011;stroke-miterlimit:10;}
</style>
<linearGradient id="SVGID_1_" gradientUnits="userSpaceOnUse" x1="1" y1="21" x2="41" y2="21">
	<stop  offset="0" style="stop-color:#8BC53F"/>
	<stop  offset="1" style="stop-color:#EC0080"/>
</linearGradient>
<path class="st0" d="M21,41C9.972,41,1,32.028,1,21C1,9.972,9.972,1,21,1s20,8.972,20,20C41,32.028,32.028,41,21,41z M21,2.032
	C10.541,2.032,2.032,10.541,2.032,21S10.541,39.968,21,39.968S39.968,31.459,39.968,21S31.459,2.032,21,2.032z"/>
<polygon class="st1" points="31.275,17.455 22.831,17.455 22.07,19.847 24.721,19.867 22.546,26.384 25.635,26.384 27.601,19.867 
	30.573,19.882 "/>
<path class="st1" d="M8.535,22.229c0-5.455,11.288-8.612,12.6-8.96l-0.887,1.9l1.866-1.033l1.559,1.455l-0.405-2.094l6.487-1.161
	l-6.737-0.134l-0.406-2.094l-0.903,1.932l-2.117-0.261l1.559,1.455l-0.006,0.012c-1.427,0.149-15.762,1.824-15.994,8.92
	c-0.305,9.022,21.367,9.723,21.367,9.723S8.383,30.093,8.535,22.229z"/>
<path class="st1" d="M33.682,17.565l-5.934,8.819h3.211l0.772-1.301h2.764v1.301h2.357v-8.819H33.682z M34.459,22.823h-1.204
	l1.204-2.103V22.823z"/>
<path class="st1" d="M19.737,17.455h-5.212l-2.941,8.929h3.109l0.991-3.104h2.652c1.753-0.457,3.041-1.726,3.041-3.419
	C21.376,17.829,19.737,17.455,19.737,17.455z M17.832,21.091h-1.433l0.508-1.676h1.331c0,0,0.346,0.224,0.345,0.838
	C18.584,20.918,17.832,21.091,17.832,21.091z"/>
</svg>
