<?xml version="1.0" encoding="utf-8"?>
<!-- Generator: Adobe Illustrator 22.0.0, SVG Export Plug-In . SVG Version: 6.00 Build 0)  -->
<svg version="1.1" id="Layer_1" xmlns="http://www.w3.org/2000/svg" xmlns:xlink="http://www.w3.org/1999/xlink" x="0px" y="0px"
	 viewBox="0 0 42 42" style="enable-background:new 0 0 42 42;" xml:space="preserve">
<style type="text/css">
	.st0{fill:url(#SVGID_1_);}
	.st1{fill:none;stroke:#EC0080;stroke-width:0.3972;stroke-miterlimit:10;}
</style>
<linearGradient id="SVGID_1_" gradientUnits="userSpaceOnUse" x1="1" y1="21" x2="41" y2="21">
	<stop  offset="0" style="stop-color:#8BC53F"/>
	<stop  offset="1" style="stop-color:#EC0080"/>
</linearGradient>
<path class="st0" d="M21,41C9.972,41,1,32.028,1,21C1,9.972,9.972,1,21,1s20,8.972,20,20C41,32.028,32.028,41,21,41z M21,2.032
	C10.541,2.032,2.032,10.541,2.032,21S10.541,39.968,21,39.968S39.968,31.459,39.968,21S31.459,2.032,21,2.032z"/>
<path class="st1" d="M17.815,32.152c-1.221,0-2.214-0.993-2.214-2.214c0-1.221,0.993-2.214,2.214-2.214s2.214,0.993,2.214,2.214
	C20.028,31.159,19.035,32.152,17.815,32.152z"/>
<circle class="st1" cx="27.09" cy="29.938" r="2.214"/>
<path class="st1" d="M17.138,23.297h12.165c0.319,0,0.595-0.223,0.662-0.536l1.918-9.022c0.042-0.2-0.008-0.408-0.136-0.566
	c-0.128-0.159-0.322-0.251-0.526-0.251l-16.166,0l-0.54-2.539c-0.066-0.312-0.342-0.536-0.662-0.536l-3.075,0
	c-0.374,0-0.676,0.303-0.676,0.676c0,0.374,0.303,0.676,0.676,0.676l2.527,0l2.396,11.274c-0.476,0.406-0.778,1.01-0.778,1.683
	c0,1.221,0.993,2.214,2.214,2.214h12.165c0.374,0,0.676-0.303,0.676-0.676c0-0.374-0.303-0.676-0.676-0.676H17.138
	c-0.475,0-0.861-0.386-0.861-0.861C16.277,23.683,16.663,23.297,17.138,23.297z"/>
</svg>
