<?xml version="1.0" encoding="utf-8"?>
<!-- Generator: Adobe Illustrator 22.0.0, SVG Export Plug-In . SVG Version: 6.00 Build 0)  -->
<svg version="1.1" id="Layer_1" xmlns="http://www.w3.org/2000/svg" xmlns:xlink="http://www.w3.org/1999/xlink" x="0px" y="0px"
	 viewBox="0 0 42 42" style="enable-background:new 0 0 42 42;" xml:space="preserve">
<style type="text/css">
	.st0{fill:#EC0080;}
</style>
<path class="st0" d="M15.495,40.272c-2.109,0-3.826-1.716-3.826-3.826c0-2.109,1.716-3.826,3.826-3.826s3.826,1.716,3.826,3.826
	C19.321,38.556,17.604,40.272,15.495,40.272z"/>
<circle class="st0" cx="31.524" cy="36.446" r="3.826"/>
<path class="st0" d="M14.326,24.97h21.023c0.552,0,1.029-0.386,1.143-0.926l3.314-15.591c0.073-0.345-0.013-0.705-0.235-0.979
	c-0.222-0.274-0.556-0.433-0.908-0.433l-27.937,0L9.793,2.654C9.679,2.114,9.202,1.728,8.65,1.728l-5.313,0
	c-0.646,0-1.169,0.523-1.169,1.169c0,0.646,0.523,1.169,1.169,1.169l4.367,0l4.141,19.483c-0.822,0.702-1.344,1.745-1.344,2.908
	c0,2.109,1.716,3.826,3.826,3.826h21.023c0.646,0,1.169-0.523,1.169-1.169s-0.523-1.169-1.169-1.169H14.326
	c-0.82,0-1.488-0.667-1.488-1.488C12.838,25.637,13.506,24.97,14.326,24.97z"/>
</svg>
