<?xml version="1.0" encoding="utf-8"?>
<!-- Generator: Adobe Illustrator 22.0.1, SVG Export Plug-In . SVG Version: 6.00 Build 0)  -->
<svg version="1.1" id="Layer_1" xmlns="http://www.w3.org/2000/svg" xmlns:xlink="http://www.w3.org/1999/xlink" x="0px" y="0px"
	 viewBox="0 0 64 64" style="enable-background:new 0 0 64 64;" xml:space="preserve">
<style type="text/css">
	.st0{fill:#FFFFFF;}
	.st1{fill:#EC0080;}
</style>
<path class="st0" d="M15.6,7.187h4.794c-0.079,0.078-0.156,0.16-0.231,0.244c-0.427,0.483-0.771,1.057-1.005,1.693H15.6
	c-0.485,0-0.926,0.225-1.246,0.587c-0.32,0.362-0.519,0.862-0.519,1.41V52.88c0,0.548,0.199,1.047,0.519,1.41
	c0.32,0.362,0.762,0.588,1.246,0.588h3.559c0.234,0.635,0.578,1.21,1.005,1.693c0.074,0.084,0.151,0.166,0.231,0.244H15.6
	c-0.957,0-1.827-0.442-2.457-1.155c-0.63-0.712-1.021-1.696-1.021-2.779V11.12c0-1.083,0.391-2.067,1.021-2.779
	C13.773,7.629,14.642,7.187,15.6,7.187"/>
<path class="st0" d="M23.468,7.187h16.986c0.243,0,0.463,0.109,0.621,0.285L51.65,19.434c0.142,0.172,0.228,0.401,0.228,0.652V52.88
	c0,1.083-0.391,2.067-1.021,2.779c-0.63,0.713-1.5,1.155-2.457,1.155H23.468c-0.957,0-1.827-0.442-2.457-1.155
	c-0.63-0.712-1.021-1.696-1.021-2.779V11.12c0-1.083,0.391-2.067,1.021-2.779C21.641,7.629,22.51,7.187,23.468,7.187z"/>
<path class="st1" d="M40.712,35.176h-9.556c-0.316,0-0.533,0.29-0.533,0.589v5.523c0,0.299,0.218,0.589,0.533,0.589h9.556
	c0.316,0,0.533-0.29,0.533-0.589v-5.523C41.245,35.466,41.027,35.176,40.712,35.176z"/>
<path class="st1" d="M38.17,48.83h3.075v-5.854c0-0.08-0.056-0.16-0.142-0.16h-2.792c-0.086,0-0.142,0.079-0.142,0.16V48.83z"/>
<path class="st1" d="M34.396,48.83h3.076v-5.854c0-0.082-0.055-0.16-0.142-0.16h-2.792c-0.085,0-0.142,0.08-0.142,0.16V48.83z"/>
<path class="st1" d="M30.623,48.83h3.076v-5.854c0-0.082-0.055-0.16-0.142-0.16h-2.792c-0.084,0-0.142,0.081-0.142,0.16V48.83z"/>
<path class="st1" d="M29.782,28.224h-1.704c-0.228,0-0.435,0.104-0.586,0.27c-0.151,0.167-0.245,0.396-0.245,0.648v18.77
	c0,0.252,0.094,0.481,0.245,0.648c0.151,0.167,0.358,0.27,0.586,0.27h1.704V28.224z"/>
<path class="st1" d="M33.698,28.224h-3.076v5.854c0,0.081,0.056,0.16,0.142,0.16h2.792c0.086,0,0.142-0.08,0.142-0.16V28.224z"/>
<path class="st1" d="M37.472,28.224h-3.076v5.854c0,0.082,0.056,0.16,0.142,0.16h2.792c0.086,0,0.142-0.078,0.142-0.16V28.224z"/>
<path class="st1" d="M41.245,28.224H38.17v5.854c0,0.08,0.056,0.16,0.142,0.16h2.792c0.086,0,0.142-0.078,0.142-0.16V28.224z"/>
<path class="st1" d="M43.79,28.224h-1.742V48.83h1.742c0.228,0,0.435-0.104,0.586-0.27c0.151-0.167,0.245-0.396,0.245-0.648v-18.77
	c0-0.252-0.094-0.481-0.245-0.648C44.226,28.328,44.018,28.224,43.79,28.224z"/>
</svg>
