<?xml version="1.0" encoding="utf-8"?>
<!-- Generator: Adobe Illustrator 22.0.0, SVG Export Plug-In . SVG Version: 6.00 Build 0)  -->
<svg version="1.1" id="Layer_1" xmlns="http://www.w3.org/2000/svg" xmlns:xlink="http://www.w3.org/1999/xlink" x="0px" y="0px"
	 viewBox="0 0 42 42" style="enable-background:new 0 0 42 42;" xml:space="preserve">
<style type="text/css">
	.st0{fill:none;stroke:#6D6E70;stroke-width:1.0438;stroke-miterlimit:10;}
</style>
<path class="st0" d="M40.57,18.248c0-8.269-8.762-14.972-19.57-14.972S1.43,9.979,1.43,18.248c0,4.733,2.871,8.953,7.353,11.697
	c-0.002,0.007-0.061,1.965-0.75,4.018c-0.712,2.118-2.038,4.337-0.825,4.621c0.805,0.189,6.189,1.062,10.541-5.568
	c1.058,0.135,2.145,0.206,3.253,0.206C31.808,33.22,40.57,26.517,40.57,18.248z M11.451,21.666c-1.693,0-3.065-1.372-3.065-3.065
	c0-1.693,1.373-3.065,3.065-3.065c1.693,0,3.065,1.372,3.065,3.065C14.517,20.294,13.144,21.666,11.451,21.666z M21.04,21.666
	c-1.693,0-3.065-1.372-3.065-3.065c0-1.693,1.373-3.065,3.065-3.065c1.693,0,3.065,1.372,3.065,3.065
	C24.105,20.294,22.733,21.666,21.04,21.666z M30.629,21.666c-1.693,0-3.065-1.372-3.065-3.065c0-1.693,1.373-3.065,3.065-3.065
	c1.693,0,3.065,1.372,3.065,3.065C33.694,20.294,32.321,21.666,30.629,21.666z"/>
</svg>
