<?xml version="1.0" encoding="utf-8"?>
<!-- Generator: Adobe Illustrator 22.0.1, SVG Export Plug-In . SVG Version: 6.00 Build 0)  -->
<svg version="1.1" id="Layer_1" xmlns="http://www.w3.org/2000/svg" xmlns:xlink="http://www.w3.org/1999/xlink" x="0px" y="0px"
	 viewBox="0 0 64 64" style="enable-background:new 0 0 64 64;" xml:space="preserve">
<style type="text/css">
	.st0{fill:#FFFFFF;}
</style>
<path class="st0" d="M14.682,43.309l-0.015-0.325c-0.022-0.445-0.469-1.224-0.846-1.464l-1.972-1.276
	c-1.745-1.128-2.371-3.457-1.422-5.305l1.071-2.092c0.203-0.397,0.203-1.296,0-1.691l-1.071-2.094
	c-0.945-1.846-0.323-4.177,1.422-5.303l1.972-1.276c0.377-0.24,0.823-1.021,0.846-1.463l0.015-0.327H1.091l6.093,11.308
	L1.091,43.309H14.682z"/>
<path class="st0" d="M12.551,24.847c-1.173,0.755-1.61,2.382-0.973,3.625l1.073,2.092c0.391,0.764,0.391,2.107,0,2.873l-1.073,2.092
	c-0.637,1.241-0.199,2.87,0.973,3.625l1.976,1.278c0.72,0.465,1.392,1.629,1.433,2.487l0.122,2.347
	c0.07,1.394,1.259,2.585,2.652,2.655l2.349,0.118c0.859,0.042,2.02,0.715,2.487,1.435l1.276,1.976
	c0.506,0.783,1.418,1.267,2.382,1.267c0.44,0,0.868-0.102,1.243-0.294l2.094-1.073c0.367-0.188,0.888-0.297,1.435-0.297
	c0.546,0,1.071,0.109,1.436,0.297l2.094,1.073c0.377,0.192,0.809,0.294,1.241,0.294c0.968,0,1.88-0.484,2.386-1.267l1.278-1.976
	c0.465-0.72,1.629-1.392,2.486-1.435l2.349-0.118c1.392-0.07,2.583-1.261,2.655-2.655l0.118-2.347
	c0.041-0.859,0.713-2.022,1.437-2.487l1.972-1.278c1.174-0.755,1.606-2.384,0.971-3.623l-1.071-2.094
	c-0.393-0.766-0.393-2.109,0-2.873l1.075-2.092c0.632-1.243,0.199-2.87-0.975-3.625l-1.972-1.28
	c-0.033-0.017-0.063-0.041-0.089-0.061l-0.787,1.029c0.055,0.043,0.111,0.083,0.17,0.122l1.976,1.276
	c0.617,0.401,0.857,1.293,0.521,1.948l-1.071,2.094c-0.58,1.136-0.58,2.916,0,4.051l1.071,2.092c0.336,0.657,0.096,1.547-0.521,1.95
	l-1.976,1.276c-1.071,0.692-1.961,2.234-2.028,3.51l-0.114,2.349c-0.041,0.735-0.691,1.387-1.429,1.426l-2.349,0.118
	c-1.274,0.064-2.814,0.953-3.508,2.024l-1.278,1.978c-0.27,0.414-0.764,0.672-1.296,0.672c-0.229,0-0.454-0.052-0.65-0.15
	l-2.094-1.073c-0.55-0.283-1.27-0.438-2.027-0.438c-0.757,0-1.474,0.155-2.028,0.438l-2.09,1.073
	c-0.196,0.098-0.421,0.15-0.654,0.15c-0.528,0-1.027-0.257-1.296-0.672l-1.274-1.978c-0.693-1.071-2.236-1.959-3.51-2.024
	l-2.35-0.118c-0.735-0.039-1.385-0.691-1.424-1.426l-0.12-2.349c-0.063-1.276-0.953-2.818-2.022-3.51l-1.98-1.276
	c-0.618-0.403-0.859-1.293-0.522-1.95l1.071-2.09c0.587-1.138,0.587-2.918,0-4.053l-1.071-2.094
	c-0.336-0.656-0.092-1.547,0.522-1.948l1.974-1.276c1.075-0.692,1.965-2.236,2.027-3.51l0.12-2.349
	c0.039-0.737,0.689-1.389,1.424-1.426l2.35-0.118c1.274-0.065,2.818-0.955,3.51-2.026l1.274-1.978
	c0.27-0.414,0.768-0.672,1.296-0.672c0.236,0,0.458,0.052,0.654,0.151l2.094,1.073c0.55,0.281,1.267,0.438,2.024,0.438
	c0.757,0,1.477-0.157,2.027-0.438l2.094-1.073c0.196-0.1,0.421-0.151,0.654-0.151c0.528,0,1.027,0.259,1.293,0.672l1.278,1.978
	c0.578,0.892,1.74,1.656,2.851,1.924l0.502-0.657c0.144-0.188,0.299-0.36,0.462-0.522l-0.24-0.013
	c-0.857-0.04-2.02-0.713-2.486-1.435l-1.278-1.974c-0.506-0.783-1.418-1.269-2.382-1.269c-0.436,0-0.868,0.102-1.245,0.296
	l-2.094,1.073c-0.365,0.187-0.886,0.296-1.436,0.296c-0.547,0-1.067-0.109-1.435-0.296l-2.094-1.073
	c-0.375-0.194-0.803-0.296-1.243-0.296c-0.964,0-1.876,0.486-2.382,1.269l-1.276,1.974c-0.467,0.722-1.629,1.394-2.487,1.435
	l-2.349,0.12c-1.392,0.068-2.581,1.259-2.652,2.653l-0.122,2.349c-0.041,0.859-0.713,2.02-1.433,2.486L12.551,24.847z"/>
<path class="st0" d="M30.567,17.829c0.235-0.022,0.465-0.041,0.7-0.052c0.245-0.013,0.487-0.02,0.731-0.02
	c0.246,0,0.491,0.007,0.733,0.02c2.642,0.133,5.093,0.992,7.166,2.376l0.787-1.032c-2.482-1.679-5.471-2.661-8.686-2.661
	c-8.566,0-15.537,6.972-15.537,15.54c0,5.004,2.378,9.462,6.06,12.305c0.284,0.22,0.576,0.428,0.875,0.63
	c0.595,0.397,1.222,0.755,1.872,1.067c0.451,0.22,0.916,0.417,1.394,0.591c0.715,0.262,1.453,0.473,2.21,0.628
	c0.502,0.103,1.017,0.185,1.54,0.238c0.521,0.052,1.049,0.079,1.584,0.079c0.535,0,1.064-0.028,1.592-0.079
	c0.517-0.054,1.03-0.135,1.54-0.238c0.755-0.155,1.494-0.366,2.209-0.628c0.476-0.174,0.938-0.371,1.392-0.591
	c0.652-0.312,1.274-0.67,1.873-1.067c0.299-0.201,0.591-0.41,0.871-0.63c3.688-2.844,6.06-7.301,6.06-12.305
	c0-1.747-0.292-3.425-0.824-4.995l-0.968,1.261c0.321,1.189,0.501,2.443,0.501,3.734c0,7.853-6.389,14.244-14.246,14.244
	c-7.851,0-14.24-6.391-14.24-14.244C17.758,24.63,23.382,18.549,30.567,17.829z"/>
<path class="st0" d="M42.22,20.312l-0.79,1.028l-0.868,1.136l-8.651,11.297l-4.193-5.165c-0.99-1.221-2.785-1.407-4.003-0.415
	c-1.221,0.992-1.407,2.783-0.415,4.003l6.468,7.966c0.543,0.669,1.352,1.053,2.21,1.053h0.043c0.875-0.013,1.688-0.423,2.219-1.115
	l9.716-12.693l1.003-1.307l0.879-1.152l0.626-0.818l0.859-1.117l0.888-1.163l0.547-0.715c0.956-1.245,0.72-3.034-0.528-3.989
	c-0.469-0.356-1.008-0.547-1.555-0.58c-0.77-0.048-1.544,0.222-2.127,0.774c-0.111,0.102-0.214,0.214-0.31,0.336l-1.448,1.893
	L42.22,20.312z"/>
<path class="st0" d="M62.909,20.693H50.43c-0.142,0.439-0.355,0.853-0.646,1.23l-0.133,0.175l0.539,0.393l1.965,1.267
	c1.743,1.126,2.365,3.457,1.422,5.303l-1.075,2.094c-0.201,0.395-0.201,1.294,0,1.691l1.075,2.092
	c0.944,1.848,0.321,4.177-1.422,5.305l-1.976,1.276c-0.375,0.24-0.827,1.019-0.846,1.464l-0.018,0.325h13.594l-6.095-11.308
	L62.909,20.693z"/>
</svg>
