<?xml version="1.0" encoding="utf-8"?>
<!-- Generator: Adobe Illustrator 22.0.0, SVG Export Plug-In . SVG Version: 6.00 Build 0)  -->
<svg version="1.1" id="Layer_1" xmlns="http://www.w3.org/2000/svg" xmlns:xlink="http://www.w3.org/1999/xlink" x="0px" y="0px"
	 viewBox="0 0 42 42" style="enable-background:new 0 0 42 42;" xml:space="preserve">
<style type="text/css">
	.st0{fill:#DF1075;}
</style>
<path class="st0" d="M9.904,28.246l-0.009-0.208C9.88,27.753,9.593,27.253,9.352,27.1l-1.264-0.818
	c-1.118-0.723-1.519-2.215-0.911-3.399l0.686-1.34c0.13-0.254,0.13-0.83,0-1.084l-0.686-1.342c-0.606-1.183-0.207-2.676,0.911-3.398
	l1.264-0.818c0.241-0.154,0.528-0.654,0.542-0.937l0.009-0.209H1.196L5.1,21.001l-3.904,7.245H9.904z"/>
<path class="st0" d="M8.538,16.417c-0.751,0.484-1.032,1.526-0.623,2.322l0.687,1.341c0.251,0.49,0.251,1.35,0,1.841l-0.687,1.34
	c-0.408,0.795-0.128,1.839,0.623,2.322l1.266,0.819c0.461,0.298,0.892,1.043,0.918,1.594L10.8,29.5
	c0.045,0.893,0.807,1.656,1.699,1.701l1.505,0.076c0.55,0.027,1.294,0.458,1.594,0.919l0.818,1.266
	c0.324,0.502,0.909,0.812,1.526,0.812c0.282,0,0.556-0.065,0.796-0.188l1.342-0.687c0.235-0.121,0.569-0.19,0.919-0.19
	c0.35,0,0.686,0.07,0.92,0.19l1.342,0.687c0.241,0.123,0.518,0.188,0.795,0.188c0.62,0,1.204-0.31,1.529-0.812l0.819-1.266
	c0.298-0.461,1.043-0.892,1.593-0.919l1.505-0.076c0.892-0.045,1.655-0.808,1.701-1.701l0.076-1.504
	c0.026-0.55,0.457-1.295,0.921-1.594l1.264-0.819c0.752-0.484,1.029-1.527,0.622-2.321l-0.686-1.342
	c-0.252-0.491-0.252-1.351,0-1.841l0.689-1.341c0.405-0.796,0.128-1.839-0.625-2.322l-1.264-0.82
	c-0.021-0.011-0.04-0.026-0.057-0.039l-0.504,0.659c0.035,0.027,0.071,0.053,0.109,0.078l1.266,0.818
	c0.395,0.257,0.549,0.828,0.334,1.248l-0.686,1.342c-0.372,0.728-0.372,1.868,0,2.596l0.686,1.341
	c0.215,0.421,0.062,0.991-0.334,1.249l-1.266,0.818c-0.686,0.444-1.256,1.432-1.299,2.249l-0.073,1.505
	c-0.026,0.471-0.443,0.889-0.916,0.913l-1.505,0.076c-0.816,0.041-1.803,0.61-2.248,1.297l-0.819,1.267
	c-0.173,0.265-0.49,0.431-0.831,0.431c-0.147,0-0.291-0.033-0.416-0.096l-1.342-0.687c-0.353-0.181-0.814-0.28-1.299-0.28
	c-0.485,0-0.944,0.099-1.299,0.28l-1.339,0.687c-0.125,0.063-0.27,0.096-0.419,0.096c-0.338,0-0.658-0.164-0.83-0.431l-0.816-1.267
	c-0.444-0.686-1.433-1.255-2.249-1.297l-1.506-0.076c-0.471-0.025-0.887-0.443-0.912-0.913l-0.077-1.505
	c-0.04-0.818-0.61-1.806-1.295-2.249l-1.268-0.818c-0.396-0.258-0.55-0.828-0.335-1.249L9.338,22.3c0.376-0.729,0.376-1.869,0-2.597
	l-0.686-1.342c-0.215-0.42-0.059-0.991,0.335-1.248l1.265-0.818c0.689-0.444,1.259-1.433,1.299-2.249l0.077-1.505
	c0.025-0.472,0.441-0.89,0.912-0.913l1.506-0.076c0.816-0.041,1.805-0.612,2.249-1.298l0.816-1.267
	c0.173-0.265,0.492-0.431,0.83-0.431c0.151,0,0.293,0.033,0.419,0.097l1.342,0.687c0.353,0.18,0.812,0.28,1.297,0.28
	c0.485,0,0.946-0.101,1.299-0.28l1.342-0.687c0.125-0.064,0.27-0.097,0.419-0.097c0.338,0,0.658,0.166,0.828,0.431l0.819,1.267
	c0.37,0.571,1.115,1.061,1.827,1.233l0.322-0.421c0.092-0.121,0.192-0.231,0.296-0.335l-0.154-0.008
	c-0.549-0.026-1.294-0.457-1.593-0.919l-0.819-1.265c-0.324-0.502-0.909-0.813-1.526-0.813c-0.279,0-0.556,0.065-0.797,0.189
	l-1.342,0.687c-0.234,0.12-0.568,0.189-0.92,0.189c-0.35,0-0.684-0.07-0.919-0.189l-1.342-0.687
	c-0.24-0.124-0.515-0.189-0.796-0.189c-0.618,0-1.202,0.311-1.526,0.813l-0.818,1.265c-0.299,0.463-1.044,0.893-1.594,0.919
	L12.499,10.8c-0.892,0.044-1.654,0.807-1.699,1.7l-0.078,1.505c-0.026,0.55-0.457,1.294-0.918,1.593L8.538,16.417z"/>
<path class="st0" d="M20.082,11.92c0.15-0.014,0.298-0.026,0.449-0.033c0.157-0.008,0.312-0.013,0.468-0.013
	c0.157,0,0.315,0.005,0.47,0.013c1.693,0.085,3.263,0.635,4.592,1.523l0.504-0.661c-1.59-1.075-3.506-1.705-5.565-1.705
	c-5.489,0-9.955,4.467-9.955,9.957c0,3.206,1.524,6.062,3.883,7.884c0.182,0.141,0.369,0.275,0.561,0.404
	c0.381,0.254,0.783,0.484,1.2,0.684c0.289,0.141,0.587,0.267,0.893,0.379c0.458,0.168,0.931,0.303,1.416,0.402
	c0.322,0.066,0.652,0.118,0.987,0.153c0.334,0.033,0.672,0.051,1.015,0.051c0.343,0,0.681-0.018,1.02-0.051
	c0.331-0.034,0.66-0.086,0.987-0.153c0.484-0.099,0.957-0.234,1.415-0.402c0.305-0.111,0.601-0.238,0.892-0.379
	c0.418-0.2,0.816-0.429,1.2-0.684c0.192-0.129,0.379-0.263,0.558-0.404c2.363-1.822,3.883-4.678,3.883-7.884
	c0-1.119-0.187-2.195-0.528-3.2l-0.62,0.808c0.206,0.762,0.321,1.565,0.321,2.392c0,5.032-4.094,9.127-9.128,9.127
	c-5.031,0-9.124-4.095-9.124-9.127C11.875,16.278,15.478,12.382,20.082,11.92z"/>
<path class="st0" d="M27.549,13.511l-0.506,0.659l-0.556,0.728l-5.543,7.238l-2.687-3.309c-0.634-0.782-1.784-0.902-2.565-0.266
	c-0.782,0.635-0.902,1.783-0.266,2.565l4.144,5.104c0.348,0.428,0.866,0.674,1.416,0.674h0.027c0.561-0.008,1.081-0.271,1.422-0.715
	l6.226-8.133l0.642-0.838l0.563-0.738l0.401-0.524l0.55-0.716l0.569-0.745l0.35-0.458c0.613-0.797,0.461-1.944-0.338-2.556
	c-0.301-0.228-0.646-0.35-0.996-0.372c-0.493-0.031-0.989,0.142-1.363,0.496c-0.071,0.065-0.137,0.137-0.199,0.215l-0.928,1.213
	L27.549,13.511z"/>
<path class="st0" d="M40.804,13.755h-7.996c-0.091,0.282-0.227,0.547-0.414,0.788l-0.085,0.112l0.346,0.252l1.259,0.812
	c1.117,0.722,1.516,2.215,0.911,3.398l-0.689,1.342c-0.129,0.253-0.129,0.829,0,1.084l0.689,1.34
	c0.605,1.184,0.206,2.676-0.911,3.399L32.648,27.1c-0.24,0.154-0.53,0.653-0.542,0.938l-0.012,0.208h8.71l-3.905-7.245
	L40.804,13.755z"/>
</svg>
