<?xml version="1.0" encoding="utf-8"?>
<!-- Generator: Adobe Illustrator 22.0.0, SVG Export Plug-In . SVG Version: 6.00 Build 0)  -->
<svg version="1.1" id="Layer_1" xmlns="http://www.w3.org/2000/svg" xmlns:xlink="http://www.w3.org/1999/xlink" x="0px" y="0px"
	 viewBox="0 0 42 42" style="enable-background:new 0 0 42 42;" xml:space="preserve">
<style type="text/css">
	.st0{fill:none;stroke:#DF1075;stroke-width:0.3972;stroke-miterlimit:10;}
	.st1{fill:url(#SVGID_1_);}
</style>
<path class="st0" d="M12.034,26.855l-0.008-0.168c-0.012-0.23-0.243-0.634-0.438-0.758l-1.021-0.661
	c-0.903-0.584-1.227-1.789-0.736-2.746l0.554-1.083c0.105-0.206,0.105-0.671,0-0.876l-0.554-1.084
	c-0.489-0.956-0.167-2.162,0.736-2.745l1.021-0.661c0.195-0.124,0.426-0.529,0.438-0.757l0.008-0.169H4.999L8.153,21l-3.154,5.854
	H12.034z"/>
<path class="st0" d="M10.931,17.297c-0.607,0.391-0.834,1.233-0.504,1.876l0.555,1.083c0.203,0.396,0.203,1.091,0,1.487
	l-0.555,1.083c-0.33,0.642-0.103,1.486,0.504,1.876l1.023,0.662c0.373,0.241,0.721,0.843,0.742,1.288l0.063,1.215
	c0.036,0.722,0.652,1.338,1.373,1.375l1.216,0.061c0.445,0.022,1.046,0.37,1.288,0.743l0.661,1.023
	c0.262,0.405,0.734,0.656,1.233,0.656c0.228,0,0.449-0.053,0.643-0.152l1.084-0.555c0.19-0.097,0.46-0.154,0.743-0.154
	c0.283,0,0.554,0.056,0.744,0.154l1.084,0.555c0.195,0.099,0.419,0.152,0.642,0.152c0.501,0,0.973-0.25,1.235-0.656l0.662-1.023
	c0.241-0.373,0.843-0.721,1.287-0.743l1.216-0.061c0.721-0.036,1.337-0.653,1.375-1.375l0.061-1.215
	c0.021-0.445,0.369-1.047,0.744-1.288l1.021-0.662c0.608-0.391,0.832-1.234,0.503-1.876l-0.555-1.084
	c-0.204-0.397-0.204-1.092,0-1.487l0.556-1.083c0.327-0.643,0.103-1.486-0.505-1.876l-1.021-0.662
	c-0.017-0.009-0.032-0.021-0.046-0.032l-0.407,0.532c0.029,0.022,0.057,0.043,0.088,0.063l1.023,0.661
	c0.319,0.208,0.444,0.669,0.27,1.009l-0.554,1.084c-0.3,0.588-0.3,1.509,0,2.097l0.554,1.083c0.174,0.34,0.05,0.801-0.27,1.009
	l-1.023,0.661c-0.554,0.358-1.015,1.157-1.05,1.817l-0.059,1.216c-0.021,0.38-0.358,0.718-0.74,0.738l-1.216,0.061
	c-0.66,0.033-1.457,0.493-1.816,1.048l-0.661,1.024c-0.14,0.214-0.396,0.348-0.671,0.348c-0.119,0-0.235-0.027-0.336-0.077
	l-1.084-0.555c-0.285-0.146-0.658-0.227-1.05-0.227c-0.392,0-0.763,0.08-1.05,0.227l-1.082,0.555
	c-0.101,0.051-0.218,0.077-0.338,0.077c-0.273,0-0.531-0.133-0.671-0.348l-0.66-1.024c-0.359-0.554-1.158-1.014-1.817-1.048
	l-1.217-0.061c-0.38-0.02-0.717-0.358-0.737-0.738l-0.062-1.216c-0.032-0.661-0.493-1.459-1.047-1.817l-1.025-0.661
	c-0.32-0.208-0.444-0.669-0.27-1.009l0.554-1.082c0.304-0.589,0.304-1.51,0-2.098l-0.554-1.084c-0.174-0.339-0.048-0.801,0.27-1.009
	l1.022-0.661c0.556-0.358,1.017-1.158,1.05-1.817l0.062-1.216c0.02-0.381,0.357-0.719,0.737-0.738l1.217-0.061
	c0.66-0.033,1.459-0.494,1.817-1.049l0.66-1.024c0.14-0.214,0.398-0.348,0.671-0.348c0.122,0,0.237,0.027,0.338,0.078l1.084,0.555
	c0.285,0.145,0.656,0.227,1.048,0.227c0.392,0,0.765-0.081,1.05-0.227l1.084-0.555c0.101-0.052,0.218-0.078,0.338-0.078
	c0.273,0,0.531,0.134,0.669,0.348l0.661,1.024c0.299,0.462,0.901,0.857,1.476,0.996l0.26-0.34c0.074-0.098,0.155-0.186,0.239-0.27
	l-0.124-0.007c-0.444-0.021-1.046-0.369-1.287-0.743l-0.662-1.022c-0.262-0.405-0.734-0.657-1.233-0.657
	c-0.226,0-0.449,0.053-0.644,0.153l-1.084,0.555c-0.189,0.097-0.459,0.153-0.744,0.153c-0.283,0-0.553-0.056-0.743-0.153
	l-1.084-0.555c-0.194-0.1-0.416-0.153-0.643-0.153c-0.499,0-0.971,0.251-1.233,0.657l-0.661,1.022
	c-0.242,0.374-0.843,0.722-1.288,0.743l-1.216,0.062c-0.721,0.035-1.336,0.652-1.373,1.374l-0.063,1.216
	c-0.021,0.445-0.369,1.046-0.742,1.287L10.931,17.297z"/>
<path class="st0" d="M20.258,13.664c0.121-0.011,0.241-0.021,0.362-0.027c0.127-0.007,0.252-0.011,0.379-0.011
	c0.127,0,0.254,0.004,0.38,0.011c1.368,0.069,2.636,0.513,3.71,1.23l0.407-0.534c-1.285-0.869-2.832-1.377-4.497-1.377
	c-4.435,0-8.043,3.61-8.043,8.045c0,2.591,1.231,4.898,3.137,6.37c0.147,0.114,0.298,0.222,0.453,0.326
	c0.308,0.205,0.633,0.391,0.969,0.552c0.233,0.114,0.474,0.216,0.722,0.306c0.37,0.136,0.752,0.245,1.144,0.325
	c0.26,0.054,0.527,0.096,0.797,0.123c0.27,0.027,0.543,0.041,0.82,0.041c0.277,0,0.551-0.014,0.824-0.041
	c0.268-0.028,0.533-0.07,0.797-0.123c0.391-0.08,0.773-0.189,1.143-0.325c0.247-0.09,0.486-0.192,0.721-0.306
	c0.337-0.162,0.66-0.347,0.969-0.552c0.155-0.104,0.306-0.212,0.451-0.326c1.909-1.472,3.137-3.78,3.137-6.37
	c0-0.904-0.151-1.773-0.426-2.586l-0.501,0.653c0.166,0.616,0.259,1.265,0.259,1.933c0,4.066-3.308,7.374-7.375,7.374
	c-4.065,0-7.372-3.308-7.372-7.374C13.627,17.184,16.539,14.037,20.258,13.664z"/>
<path class="st0" d="M26.291,14.949l-0.409,0.532l-0.449,0.588l-4.478,5.848l-2.171-2.674c-0.512-0.632-1.442-0.728-2.072-0.215
	c-0.632,0.513-0.728,1.44-0.215,2.072l3.349,4.124c0.281,0.346,0.7,0.545,1.144,0.545h0.022c0.453-0.007,0.874-0.219,1.149-0.577
	l5.03-6.571l0.519-0.677l0.455-0.596l0.324-0.424l0.445-0.578l0.46-0.602l0.283-0.37c0.495-0.644,0.373-1.571-0.273-2.065
	c-0.243-0.185-0.522-0.283-0.805-0.3c-0.399-0.025-0.799,0.115-1.101,0.401c-0.057,0.053-0.111,0.111-0.161,0.174l-0.749,0.98
	L26.291,14.949z"/>
<path class="st0" d="M37.001,15.146h-6.46c-0.074,0.227-0.184,0.442-0.335,0.637l-0.069,0.091l0.279,0.204l1.017,0.656
	c0.902,0.583,1.225,1.789,0.736,2.745l-0.556,1.084c-0.104,0.205-0.104,0.67,0,0.876l0.556,1.083
	c0.488,0.957,0.166,2.162-0.736,2.746l-1.023,0.661c-0.194,0.124-0.428,0.528-0.438,0.758l-0.009,0.168h7.037L33.846,21
	L37.001,15.146z"/>
<linearGradient id="SVGID_1_" gradientUnits="userSpaceOnUse" x1="1" y1="21" x2="41" y2="21">
	<stop  offset="0" style="stop-color:#8BC53F"/>
	<stop  offset="1" style="stop-color:#EC0080"/>
</linearGradient>
<path class="st1" d="M21,41C9.972,41,1,32.028,1,21C1,9.972,9.972,1,21,1s20,8.972,20,20C41,32.028,32.028,41,21,41z M21,2.032
	C10.541,2.032,2.032,10.541,2.032,21S10.541,39.968,21,39.968S39.968,31.459,39.968,21S31.459,2.032,21,2.032z"/>
</svg>
