<?xml version="1.0" encoding="utf-8"?>
<!-- Generator: Adobe Illustrator 22.0.0, SVG Export Plug-In . SVG Version: 6.00 Build 0)  -->
<svg version="1.1" id="Layer_1" xmlns="http://www.w3.org/2000/svg" xmlns:xlink="http://www.w3.org/1999/xlink" x="0px" y="0px"
	 viewBox="0 0 42 42" style="enable-background:new 0 0 42 42;" xml:space="preserve">
<style type="text/css">
	.st0{fill-rule:evenodd;clip-rule:evenodd;fill:#EC0080;}
	.st1{fill:#EC0080;}
</style>
<g>
	<path class="st0" d="M17.712,34.383c-0.47-0.498-0.86-0.913-1.187-1.264c-3.027-0.586-6.057-1.173-9.102-1.762
		c1.567-8.095,3.13-16.168,4.698-24.266c0.148,0.02,0.273,0.031,0.395,0.055c5.438,1.052,10.876,2.109,16.317,3.148
		c0.398,0.076,0.461,0.214,0.388,0.589c-0.688,3.529-1.373,7.059-2.057,10.589c0.041,0.031,0.082,0.062,0.122,0.095
		c0.1-0.045,0.203-0.084,0.308-0.119c0.474-0.158,0.968-0.207,1.452-0.159c0.852-4.4,1.704-8.8,2.554-13.2
		c0.038-0.195,0.076-0.393,0.085-0.591c0.085-1.828-1.123-3.296-3.066-3.677c-4.471-0.877-8.944-1.746-13.422-2.589
		c-0.533-0.1-1.122-0.122-1.646-0.006c-1.61,0.354-2.48,1.445-2.787,3.033c-1.884,9.744-3.772,19.487-5.658,29.231
		c-0.022,0.112-0.044,0.224-0.061,0.336c-0.298,2.014,0.905,3.716,2.902,4.103c4.571,0.886,9.142,1.772,13.714,2.655
		c0.651,0.126,1.276,0.087,1.837-0.09C22.809,39.777,21.29,38.17,17.712,34.383z M19.7,5.244c1.067,0.176,2.13,0.382,3.186,0.617
		c0.141,0.032,0.233,0.283,0.348,0.432c-0.16,0.074-0.331,0.228-0.479,0.209c-0.536-0.067-1.064-0.192-1.595-0.294
		c-0.531-0.103-1.068-0.184-1.589-0.323c-0.142-0.038-0.239-0.247-0.357-0.377C19.376,5.415,19.556,5.22,19.7,5.244z M18.405,5.004
		C18.53,5.013,18.64,5.212,18.85,5.42c-0.269,0.115-0.444,0.259-0.564,0.223c-0.126-0.038-0.2-0.249-0.297-0.384
		C18.129,5.166,18.273,4.994,18.405,5.004z M15.107,37.848c-0.966,0-1.75-0.783-1.75-1.749c0-0.966,0.783-1.749,1.75-1.749
		c0.966,0,1.749,0.783,1.749,1.749C16.856,37.064,16.073,37.848,15.107,37.848z"/>
	<path class="st1" d="M17.015,22.689c-0.247-0.188-0.477-0.402-0.684-0.643c-0.775-0.9-1.153-2.048-1.065-3.233
		c0.172-2.308,2.118-4.116,4.429-4.116c0.112,0,0.225,0.004,0.337,0.013c2.445,0.183,4.286,2.321,4.104,4.766
		c-0.001,0.016-0.003,0.031-0.005,0.046l1.361,1.361c0.125-0.413,0.208-0.843,0.241-1.288c0.248-3.326-2.256-6.235-5.582-6.483
		c-0.151-0.011-0.305-0.017-0.456-0.017c-3.145,0-5.793,2.459-6.027,5.599c-0.12,1.611,0.394,3.173,1.448,4.398
		c0.537,0.624,1.182,1.121,1.898,1.476V22.689z"/>
	<path class="st1" d="M25.333,39.666c-0.111-0.088-0.711-0.719-6.249-6.579c-1.398-1.48-2.582-2.771-2.636-2.874
		c-0.247-0.471-0.045-1.163,0.424-1.454c0.415-0.259,1.047-0.317,1.489-0.138c0.309,0.125,0.684,0.425,1.354,1.085
		c0.598,0.588,1.183,1.053,1.373,1.089c0.197,0.036,0.367-0.033,0.514-0.207c0.07-0.083,0.131-0.158,0.135-0.167
		c0.005-0.01-0.823-2.547-1.838-5.64l-1.844-5.623l0.038-0.32c0.078-0.673,0.487-1.173,1.127-1.386
		c0.641-0.213,1.266-0.058,1.733,0.433l0.222,0.234l1.093,3.234c1.074,3.176,1.096,3.23,1.097,2.949
		c0.006-0.592,0.255-1.061,0.747-1.4c0.642-0.444,1.558-0.332,2.12,0.259c0.209,0.219,0.242,0.286,0.527,1.09l0.303,0.857
		l0.002-0.283c0.003-0.587,0.255-1.059,0.745-1.397c0.642-0.444,1.558-0.332,2.12,0.26c0.209,0.217,0.244,0.293,0.563,1.164
		c0.188,0.512,0.322,0.862,0.3,0.778c-0.066-0.251,0.035-0.82,0.193-1.1c0.227-0.401,0.47-0.601,0.909-0.749
		c0.638-0.214,1.26-0.058,1.734,0.437l0.221,0.23l1.553,4.619c1.365,4.055,1.561,4.668,1.595,4.999
		C37.186,39.853,29.227,42.598,25.333,39.666L25.333,39.666z"/>
</g>
</svg>
