<?xml version="1.0" encoding="utf-8"?>
<!-- Generator: Adobe Illustrator 22.0.0, SVG Export Plug-In . SVG Version: 6.00 Build 0)  -->
<svg version="1.1" id="Layer_1" xmlns="http://www.w3.org/2000/svg" xmlns:xlink="http://www.w3.org/1999/xlink" x="0px" y="0px"
	 viewBox="0 0 42 42" style="enable-background:new 0 0 42 42;" xml:space="preserve">
<style type="text/css">
	.st0{fill:url(#SVGID_1_);}
	.st1{fill:#FFFFFF;}
</style>
<g>
	<g>
		<g>
			<g>
				<g>
					<linearGradient id="SVGID_1_" gradientUnits="userSpaceOnUse" x1="1" y1="21" x2="41" y2="21">
						<stop  offset="0" style="stop-color:#8BC53F"/>
						<stop  offset="1" style="stop-color:#EC0080"/>
					</linearGradient>
					<path class="st0" d="M21,41C9.972,41,1,32.028,1,21C1,9.972,9.972,1,21,1s20,8.972,20,20C41,32.028,32.028,41,21,41z M21,2.032
						C10.541,2.032,2.032,10.541,2.032,21S10.541,39.968,21,39.968S39.968,31.459,39.968,21S31.459,2.032,21,2.032z"/>
				</g>
			</g>
		</g>
	</g>
</g>
<path class="st1" d="M17.941,21c0-1.689,1.369-3.059,3.059-3.059c1.69,0,3.059,1.369,3.059,3.059S22.69,24.059,21,24.059
	C19.311,24.059,17.941,22.69,17.941,21 M16.288,21c0,2.603,2.11,4.712,4.712,4.712c2.603,0,4.712-2.11,4.712-4.712
	s-2.11-4.713-4.712-4.713S16.288,18.397,16.288,21 M24.797,16.101c0,0.608,0.493,1.101,1.101,1.101c0.608,0,1.101-0.493,1.101-1.101
	S26.507,15,25.899,15C25.291,15,24.797,15.493,24.797,16.101 M17.292,28.47c-0.895-0.041-1.381-0.19-1.704-0.316
	c-0.429-0.167-0.734-0.365-1.055-0.687c-0.321-0.321-0.52-0.626-0.687-1.055c-0.126-0.323-0.275-0.809-0.316-1.704
	c-0.044-0.967-0.054-1.258-0.054-3.708c0-2.451,0.009-2.741,0.054-3.709c0.041-0.895,0.19-1.381,0.316-1.704
	c0.166-0.429,0.365-0.734,0.687-1.055c0.321-0.321,0.626-0.52,1.055-0.686c0.323-0.126,0.809-0.275,1.704-0.316
	c0.967-0.044,1.258-0.053,3.708-0.053c2.451,0,2.741,0.009,3.709,0.053c0.895,0.041,1.381,0.191,1.704,0.316
	c0.429,0.166,0.734,0.365,1.055,0.686c0.321,0.321,0.52,0.627,0.686,1.055c0.126,0.323,0.275,0.809,0.316,1.704
	c0.044,0.968,0.053,1.258,0.053,3.709c0,2.45-0.009,2.741-0.053,3.708c-0.041,0.895-0.191,1.381-0.316,1.704
	c-0.166,0.429-0.365,0.734-0.686,1.055c-0.321,0.321-0.627,0.52-1.055,0.687c-0.323,0.126-0.809,0.275-1.704,0.316
	c-0.967,0.044-1.258,0.054-3.709,0.054C18.55,28.523,18.259,28.514,17.292,28.47 M17.217,11.879c-0.977,0.044-1.644,0.2-2.228,0.426
	c-0.603,0.234-1.115,0.548-1.625,1.059c-0.51,0.51-0.824,1.022-1.059,1.625c-0.227,0.584-0.382,1.251-0.426,2.228
	c-0.045,0.979-0.056,1.291-0.056,3.783s0.011,2.805,0.056,3.784c0.044,0.977,0.2,1.644,0.426,2.227
	c0.234,0.604,0.548,1.115,1.059,1.626c0.51,0.51,1.022,0.824,1.625,1.059c0.584,0.227,1.251,0.382,2.228,0.426
	c0.979,0.044,1.291,0.055,3.783,0.055s2.805-0.011,3.784-0.056c0.977-0.044,1.644-0.2,2.228-0.426
	c0.603-0.234,1.115-0.548,1.625-1.059s0.824-1.022,1.059-1.626c0.227-0.584,0.382-1.25,0.426-2.227
	c0.044-0.979,0.055-1.291,0.055-3.783s-0.011-2.805-0.055-3.784c-0.044-0.977-0.2-1.644-0.426-2.228
	c-0.234-0.603-0.548-1.115-1.059-1.625c-0.51-0.51-1.022-0.824-1.625-1.059c-0.584-0.227-1.251-0.382-2.228-0.426
	c-0.979-0.044-1.291-0.055-3.784-0.055S18.195,11.834,17.217,11.879"/>
</svg>
