<?xml version="1.0" encoding="utf-8"?>
<!-- Generator: Adobe Illustrator 25.4.1, SVG Export Plug-In . SVG Version: 6.00 Build 0)  -->
<svg version="1.1" id="Layer_1" xmlns="http://www.w3.org/2000/svg" xmlns:xlink="http://www.w3.org/1999/xlink" x="0px" y="0px"
	 viewBox="0 0 32 32" style="enable-background:new 0 0 32 32;" xml:space="preserve">
<style type="text/css">
	.st0{fill:#FFFFFF;}
</style>
<path class="st0" d="M15.2,26.8c-0.7,0-1.2,0.5-1.2,1.2v0.4c0,0.7,0.5,1.2,1.2,1.2h1.7c0.7,0,1.2-0.5,1.2-1.2V28
	c0-0.7-0.5-1.2-1.2-1.2H15.2z"/>
<path class="st0" d="M5.7,9.7c0.8,0.7,2,0.6,2.7-0.1c2-2.2,4.7-3.4,7.6-3.4s5.6,1.2,7.6,3.4c0.4,0.4,0.9,0.6,1.4,0.6
	c0.5,0,0.9-0.2,1.3-0.5c0.8-0.7,0.8-1.9,0.1-2.7c0,0,0,0,0,0c-2.7-3-6.5-4.7-10.4-4.7c-3.9,0-7.8,1.7-10.4,4.7
	C4.8,7.8,4.9,9,5.7,9.7C5.7,9.7,5.7,9.7,5.7,9.7z"/>
<path class="st0" d="M4,20.5c0.6-0.1,1-0.6,0.9-1.2c-0.1-0.7-0.2-1.4-0.2-2.1c0-2.3,0.6-4.5,1.8-6.4c-0.7-0.1-1.3-0.6-1.7-1.3
	c-1.5,2.3-2.2,5-2.2,7.7c0,0.8,0.1,1.6,0.2,2.5C2.9,20.2,3.4,20.6,4,20.5C4,20.5,4,20.5,4,20.5z"/>
<path class="st0" d="M26.7,10.2c-0.3,0.3-0.7,0.5-1.2,0.6c1.2,1.9,1.8,4.1,1.8,6.4c0,0.7-0.1,1.4-0.2,2.1c-0.1,0.6,0.3,1.1,0.9,1.2
	c0.1,0,0.1,0,0.2,0c0.5,0,0.9-0.4,1-0.9c0.1-0.8,0.2-1.6,0.2-2.5c0-2.8-0.8-5.5-2.2-7.7C27.1,9.7,26.9,10,26.7,10.2z"/>
<path class="st0" d="M7.1,13.3c-1,0-1.9,0.9-1.9,2v5.6c0,1.1,0.8,2,1.9,2S9,22,9,20.9v-5.6C9,14.2,8.2,13.3,7.1,13.3z"/>
<path class="st0" d="M23,20.9c0,1.1,0.8,2,1.9,2c1,0,1.9-0.9,1.9-2v-5.6c0-1.1-0.8-2-1.9-2c-1,0-1.9,0.9-1.9,2V20.9z"/>
<path class="st0" d="M28.4,21.2c-0.2,0-0.3,0-0.5,0c-0.2,0-0.3-0.1-0.4-0.1c-0.5,1.9-1.7,3.5-3.3,4.6c-1.4,0.9-3.1,1.6-5.2,1.9
	c0,0.2,0.1,0.3,0.1,0.5v0.4c1.8-0.3,3.4-0.8,4.7-1.5C26.2,25.7,27.7,23.7,28.4,21.2z"/>
</svg>
