<?xml version="1.0" encoding="utf-8"?>
<!-- Generator: Adobe Illustrator 25.4.1, SVG Export Plug-In . SVG Version: 6.00 Build 0)  -->
<svg version="1.1" id="Layer_1" xmlns="http://www.w3.org/2000/svg" xmlns:xlink="http://www.w3.org/1999/xlink" x="0px" y="0px"
	 viewBox="0 0 32 32" style="enable-background:new 0 0 32 32;" xml:space="preserve">
<style type="text/css">
	.st0{fill:#FFFFFF;}
</style>
<path class="st0" d="M21.5,4.7h-3.4c0,0-2.6,0-4.2,0c0,0,0,0,0,0h-3.4c-0.9,0-1.6,0.7-1.6,1.6v0.8V8v4.6v10.3v1.5v0.2
	c0,0.4,0.1,0.7,0.2,1.1c0.1,0.3,0.3,0.6,0.6,0.9c0.2,0.2,0.4,0.3,0.6,0.5c0.2,0.1,0.3,0.2,0.5,0.2c0.3,0.1,0.5,0.1,0.8,0.1h8.8
	c1.5,0,2.7-1.2,2.7-2.7v-0.2v-1.5V12.6V8V7.2V6.4C23.1,5.5,22.4,4.7,21.5,4.7z M17.3,25.4c0,0.7-0.6,1.3-1.3,1.3s-1.3-0.6-1.3-1.3
	S15.3,24,16,24C16.7,24,17.3,24.6,17.3,25.4z M20.9,23.1L20.9,23.1h-9.8h0v-9.3V7.2c0-0.1,0-0.2,0.1-0.3h1.5h2h6.2
	c0,0.1,0.1,0.2,0.1,0.3v6.7L20.9,23.1L20.9,23.1z"/>
</svg>
