<?xml version="1.0" encoding="utf-8"?>
<!-- Generator: Adobe Illustrator 22.0.0, SVG Export Plug-In . SVG Version: 6.00 Build 0)  -->
<svg version="1.1" id="Layer_1" xmlns="http://www.w3.org/2000/svg" xmlns:xlink="http://www.w3.org/1999/xlink" x="0px" y="0px"
	 viewBox="0 0 42 42" style="enable-background:new 0 0 42 42;" xml:space="preserve">
<style type="text/css">
	.st0{fill:#FFFFFF;}
</style>
<path class="st0" d="M39.664,6.644c0,0.806-0.015,1.612,0.007,2.417c0.014,0.512-0.182,0.723-0.706,0.713
	c-2.876-0.055-2.259,0.385-2.329-2.152c-0.052-1.888,0.086-3.779-0.075-5.665c0.332-0.073,0.523,0.153,0.704,0.357
	C38.29,3.472,39.713,6.477,39.664,6.644z"/>
<path class="st0" d="M22.865,2.67c-0.847,0.632-1.587,1.184-2.329,1.734c-0.099,0.073-0.257,0.108-0.306,0.203
	c-0.66,1.286-1.927,1.067-3.03,1.212c-0.743,0.098-1.438,0.354-2.16,0.516c-1.145,0.257-2.324-0.228-2.699-1.109
	c-0.124-0.29-0.269-0.549,0.256-0.659c3.14-0.656,6.273-1.345,9.409-2.02C22.242,2.497,22.486,2.465,22.865,2.67z"/>
<path class="st0" d="M36.093,5.44c0,1.02-0.005,2.041,0.003,3.061c0.003,0.392-0.088,0.66-0.558,0.659
	c-0.483-0.002-0.541-0.295-0.54-0.674c0.004-2.01,0.002-4.019,0.003-6.029c0-0.354,0.007-0.689,0.508-0.708
	c0.543-0.02,0.589,0.316,0.587,0.723C36.09,3.461,36.093,4.451,36.093,5.44z"/>
<path class="st0" d="M15.476,7.768c-0.275-0.027-0.566-0.005-0.819-0.094c-0.331-0.116-0.859-0.208-0.801-0.624
	c0.059-0.424,0.569-0.191,0.877-0.242c1.358-0.223,2.679-0.671,4.074-0.668c0.177,0,0.396-0.094,0.48,0.129
	c0.091,0.244-0.059,0.447-0.284,0.494C17.805,7.012,16.769,7.838,15.476,7.768z"/>
<path class="st0" d="M26.575,19.922l-0.093,15.834L9.699,35.694l0.106-19.188l10.277,0.039c-0.131-0.442-0.203-0.909-0.207-1.393
	l-3.626-0.014c-0.265-0.001-0.479-0.216-0.477-0.481c0.001-0.265,0.216-0.479,0.481-0.478l3.704,0.014
	c0.103-0.57,0.301-1.106,0.576-1.593L9.921,12.56c-0.806-0.003-1.462,0.648-1.465,1.454L8.328,38.931
	c-0.003,0.806,0.648,1.462,1.454,1.465l16.581,0.062c0.806,0.003,1.462-0.648,1.465-1.454l0.108-19.783
	C27.525,19.52,27.067,19.758,26.575,19.922z M9.451,13.385c0.522-0.299,0.985,0.51,0.463,0.809
	C9.393,14.492,8.93,13.683,9.451,13.385z M18.076,39.576c-0.851-0.003-1.538-0.695-1.535-1.546c0.003-0.851,0.695-1.538,1.546-1.535
	c0.851,0.003,1.538,0.696,1.535,1.547C19.619,38.892,18.927,39.579,18.076,39.576z"/>
<path class="st0" d="M24.172,13.904c-0.119-0.104-0.275-0.157-0.47-0.157h-0.781v1.195h0.781c0.195,0,0.352-0.052,0.47-0.157
	c0.119-0.105,0.178-0.252,0.178-0.444C24.35,14.155,24.29,14.009,24.172,13.904z"/>
<path class="st0" d="M34.616,3.005c0.005-0.475-0.164-0.679-0.651-0.645c-0.815,0.058-1.583-0.186-2.37-0.365
	c-3.35-0.76-6.588-0.794-9.354,1.707c-0.206,0.186-0.417,0.388-0.662,0.507c-1.384,0.674-1.815,1.914-2.021,3.304
	c-0.077,0.518-0.193,1.031-0.306,1.543c-0.068,0.307-0.135,0.613,0.026,0.904c0.503,0.911,0.905,1.878,1.461,2.761
	c-0.4,0.706-0.646,1.511-0.646,2.381c0,2.688,2.179,4.867,4.867,4.867c2.688,0,4.867-2.179,4.867-4.867
	c0-1.233-0.473-2.346-1.229-3.203c1.058-1.53,2.474-2.53,4.487-2.674c0.326-0.023,0.653-0.181,0.956-0.326
	c0.392-0.187,0.583-0.506,0.578-0.97C34.6,6.288,34.6,4.647,34.616,3.005z M24.371,17.148l-0.839-1.514h-0.611v1.514H22.23v-4.091
	h1.525c0.361,0,0.666,0.121,0.914,0.361c0.248,0.241,0.372,0.549,0.372,0.924c0,0.287-0.074,0.537-0.221,0.749
	c-0.147,0.212-0.341,0.365-0.582,0.457l0.93,1.599H24.371z M27.325,16.853c-0.241,0.232-0.544,0.348-0.908,0.348
	c-0.315,0-0.594-0.088-0.837-0.263c-0.242-0.175-0.406-0.401-0.491-0.677l0.627-0.282c0.046,0.167,0.13,0.297,0.252,0.393
	c0.122,0.096,0.265,0.143,0.428,0.143c0.177,0,0.322-0.055,0.433-0.165c0.112-0.11,0.167-0.248,0.167-0.414
	c0-0.11-0.031-0.207-0.093-0.292c-0.062-0.085-0.143-0.157-0.242-0.215c-0.099-0.058-0.209-0.115-0.33-0.17
	c-0.12-0.055-0.241-0.115-0.361-0.181c-0.121-0.065-0.23-0.139-0.33-0.221c-0.099-0.081-0.18-0.189-0.242-0.321
	c-0.062-0.133-0.093-0.282-0.093-0.449c0-0.33,0.106-0.593,0.319-0.789c0.212-0.197,0.478-0.295,0.797-0.295
	c0.262,0,0.493,0.07,0.693,0.21c0.2,0.14,0.339,0.325,0.417,0.555l-0.622,0.287c-0.028-0.128-0.084-0.227-0.167-0.297
	c-0.083-0.071-0.185-0.106-0.306-0.106c-0.131,0-0.238,0.039-0.321,0.117c-0.083,0.078-0.125,0.177-0.125,0.297
	c0,0.131,0.058,0.245,0.175,0.343c0.117,0.098,0.258,0.183,0.422,0.258c0.165,0.074,0.33,0.158,0.497,0.25
	c0.167,0.092,0.308,0.226,0.425,0.401c0.117,0.175,0.175,0.385,0.175,0.63C27.686,16.319,27.566,16.621,27.325,16.853z
	 M29.834,7.458c-0.431,0.482-0.872,0.958-1.342,1.401c-0.611,0.576-1.018,1.236-1.202,1.996c-0.695-0.383-1.482-0.62-2.331-0.62
	c-1.145,0-2.185,0.412-3.016,1.074c-0.146-0.495-0.305-0.986-0.53-1.462c-0.356-0.751,0.406-2.508,1.097-2.984
	c2.229-1.536,4.61-0.944,6.97-0.538C30.161,6.443,30.332,6.901,29.834,7.458z"/>
</svg>
