<?xml version="1.0" encoding="utf-8"?>
<!-- Generator: Adobe Illustrator 22.0.0, SVG Export Plug-In . SVG Version: 6.00 Build 0)  -->
<svg version="1.1" id="Layer_1" xmlns="http://www.w3.org/2000/svg" xmlns:xlink="http://www.w3.org/1999/xlink" x="0px" y="0px"
	 viewBox="0 0 42 42" style="enable-background:new 0 0 42 42;" xml:space="preserve">
<style type="text/css">
	.st0{fill:#FFFFFF;}
</style>
<path class="st0" d="M35.905,8.112h-3.312l3.512,8.044h-4.316l-2.508-8.044h-3.312l1.488,7.951h-4.305l-0.496-7.951h-3.312
	l-0.502,8.044h-4.316l1.505-8.044h-3.313l-2.508,8.044H5.895l3.512-8.044H6.095L1.437,16.41v0.252v0.257
	c0,1.201,0.973,2.174,2.174,2.174c0.993,0,1.821-0.67,2.081-1.58c0.345,0.921,1.227,1.581,2.267,1.581
	c1.039,0,1.921-0.66,2.266-1.581c0.26,0.91,1.088,1.58,2.081,1.58c0.993,0,1.821-0.67,2.081-1.58
	c0.345,0.921,1.227,1.581,2.266,1.581c0.971,0,1.805-0.577,2.192-1.403c0.331,0.872,1.168,1.494,2.155,1.494
	c0.931,0,1.728-0.553,2.094-1.347c0.439,0.799,1.279,1.348,2.253,1.348c1,0,1.859-0.578,2.287-1.412
	c0.351,0.829,1.172,1.41,2.129,1.41c0.958,0,1.78-0.583,2.13-1.414c0.404,0.781,1.21,1.322,2.148,1.322
	c1.04,0,1.922-0.661,2.266-1.582c0.26,0.91,1.088,1.581,2.081,1.581c1.2,0,2.173-0.973,2.173-2.174v-0.257V16.41L35.905,8.112z
	 M10.132,16.662v0.005c0,1.199-0.975,2.174-2.173,2.174c-1.199,0-2.174-0.975-2.174-2.174v-0.005V16.41h4.347V16.662z
	 M16.653,18.841c-1.199,0-2.173-0.975-2.173-2.174v-0.005V16.41h4.21v0.19v0.273c0,0.138,0.017,0.27,0.04,0.401
	C18.464,18.177,17.639,18.841,16.653,18.841z M25.348,18.918c-0.959,0-1.783-0.587-2.132-1.42c0.056-0.2,0.096-0.406,0.096-0.624
	V16.6v-0.268h4.141V16.6v0.273c0,0.177,0.024,0.347,0.061,0.513C27.192,18.277,26.347,18.918,25.348,18.918z M36.216,16.662v0.005
	c0,1.199-0.975,2.174-2.174,2.174c-0.937,0-1.731-0.6-2.035-1.433c0.041-0.172,0.068-0.349,0.068-0.534V16.6v-0.19h4.141V16.662z"/>
<path class="st0" d="M1.437,36.016c0-0.592,0.485-1.077,1.077-1.077h36.973c0.592,0,1.077,0.485,1.077,1.077v0.254H1.437V36.016z"/>
<path class="st0" d="M6.095,6.997c0-0.697,0.57-1.267,1.267-1.267h27.277c0.697,0,1.267,0.57,1.267,1.267v0.704H6.095V6.997z"/>
<path class="st0" d="M3.611,19.647v14.459v0.408H38.39v-0.408V19.647c-0.93,0-1.733-0.555-2.095-1.351
	c-0.43,0.804-1.279,1.353-2.253,1.353c-0.974,0-1.822-0.549-2.253-1.353c-0.362,0.796-1.164,1.351-2.094,1.351
	c-0.93,0-1.733-0.555-2.094-1.351c-0.431,0.804-1.279,1.353-2.253,1.353c-0.974,0-1.823-0.549-2.253-1.353
	c-0.362,0.796-1.165,1.351-2.095,1.351c-0.93,0-1.732-0.555-2.094-1.351c-0.431,0.804-1.279,1.353-2.253,1.353
	c-0.974,0-1.822-0.549-2.253-1.353c-0.362,0.796-1.165,1.351-2.095,1.351c-0.93,0-1.732-0.555-2.094-1.351
	C9.78,19.101,8.932,19.65,7.958,19.65c-0.974,0-1.822-0.549-2.253-1.353C5.343,19.093,4.54,19.647,3.611,19.647z M26.227,30.115
	H5.784v-9.439h20.443V30.115z M28.717,34.106v-13.43h7.189v13.43H28.717z"/>
</svg>
