<?xml version="1.0" encoding="utf-8"?>
<!-- Generator: Adobe Illustrator 22.0.0, SVG Export Plug-In . SVG Version: 6.00 Build 0)  -->
<svg version="1.1" id="Layer_1" xmlns="http://www.w3.org/2000/svg" xmlns:xlink="http://www.w3.org/1999/xlink" x="0px" y="0px"
	 viewBox="0 0 42 42" style="enable-background:new 0 0 42 42;" xml:space="preserve">
<style type="text/css">
	.st0{fill-rule:evenodd;clip-rule:evenodd;fill:#FFFFFF;}
	.st1{fill:#FFFFFF;}
</style>
<path class="st0" d="M18.201,33.915c-0.465-0.493-0.852-0.904-1.175-1.252c-2.998-0.58-5.998-1.161-9.014-1.745
	c1.552-8.017,3.1-16.012,4.653-24.033c0.147,0.02,0.27,0.031,0.391,0.054c5.386,1.042,10.771,2.089,16.16,3.118
	c0.394,0.075,0.457,0.212,0.384,0.584c-0.681,3.495-1.36,6.991-2.037,10.487c0.041,0.031,0.081,0.061,0.121,0.094
	c0.099-0.044,0.201-0.084,0.305-0.118c0.469-0.156,0.959-0.205,1.438-0.158c0.844-4.358,1.688-8.715,2.53-13.073
	c0.037-0.193,0.075-0.389,0.084-0.585c0.084-1.81-1.112-3.264-3.036-3.642c-4.428-0.869-8.858-1.729-13.293-2.564
	c-0.528-0.099-1.111-0.12-1.63-0.006c-1.595,0.35-2.456,1.431-2.76,3.004c-1.866,9.65-3.735,19.3-5.603,28.949
	c-0.021,0.111-0.044,0.222-0.06,0.333c-0.295,1.995,0.896,3.68,2.874,4.064c4.527,0.878,9.054,1.755,13.582,2.629
	c0.645,0.125,1.264,0.086,1.819-0.09C23.249,39.257,21.745,37.665,18.201,33.915z M20.171,5.056c1.057,0.174,2.11,0.378,3.155,0.611
	c0.14,0.031,0.231,0.28,0.344,0.428c-0.159,0.074-0.327,0.225-0.475,0.207c-0.531-0.066-1.054-0.19-1.58-0.292
	c-0.526-0.102-1.058-0.183-1.574-0.32c-0.141-0.037-0.237-0.244-0.354-0.373C19.85,5.225,20.028,5.033,20.171,5.056z M18.888,4.819
	c0.124,0.009,0.233,0.206,0.441,0.412c-0.267,0.114-0.44,0.257-0.558,0.221c-0.125-0.038-0.198-0.246-0.294-0.38
	C18.614,4.979,18.758,4.809,18.888,4.819z M15.622,37.346c-0.957,0-1.733-0.776-1.733-1.733c0-0.957,0.776-1.733,1.733-1.733
	c0.957,0,1.733,0.776,1.733,1.733C17.354,36.57,16.579,37.346,15.622,37.346z"/>
<path class="st1" d="M17.511,22.333c-0.245-0.186-0.472-0.399-0.678-0.637c-0.768-0.891-1.142-2.029-1.055-3.202
	c0.171-2.286,2.097-4.077,4.387-4.077c0.11,0,0.223,0.004,0.333,0.012c2.422,0.181,4.245,2.298,4.064,4.72
	c-0.001,0.015-0.003,0.031-0.005,0.046l1.348,1.348c0.124-0.409,0.206-0.835,0.239-1.276c0.246-3.294-2.234-6.175-5.529-6.42
	c-0.15-0.011-0.302-0.017-0.451-0.017c-3.115,0-5.737,2.436-5.969,5.545c-0.119,1.596,0.39,3.143,1.434,4.355
	c0.532,0.618,1.171,1.11,1.88,1.462V22.333z"/>
<path class="st1" d="M25.749,39.147c-0.11-0.087-0.704-0.712-6.189-6.516c-1.384-1.465-2.557-2.745-2.611-2.847
	c-0.244-0.466-0.044-1.152,0.42-1.44c0.411-0.256,1.036-0.314,1.474-0.136c0.306,0.124,0.677,0.42,1.341,1.075
	c0.592,0.582,1.172,1.043,1.359,1.078c0.195,0.035,0.364-0.032,0.509-0.205c0.069-0.082,0.129-0.157,0.134-0.166
	c0.005-0.009-0.815-2.523-1.821-5.586l-1.826-5.569l0.037-0.317c0.077-0.666,0.482-1.161,1.116-1.373
	c0.634-0.211,1.254-0.057,1.717,0.429l0.22,0.231l1.083,3.203c1.064,3.146,1.085,3.199,1.087,2.92
	c0.006-0.586,0.253-1.05,0.739-1.386c0.636-0.439,1.543-0.329,2.1,0.257c0.207,0.216,0.239,0.283,0.522,1.08l0.3,0.849l0.002-0.28
	c0.003-0.582,0.253-1.048,0.738-1.384c0.636-0.439,1.543-0.329,2.1,0.257c0.207,0.215,0.241,0.29,0.558,1.152
	c0.186,0.507,0.319,0.854,0.297,0.771c-0.065-0.248,0.035-0.812,0.191-1.09c0.225-0.397,0.466-0.595,0.9-0.741
	c0.632-0.212,1.248-0.057,1.718,0.432l0.219,0.228l1.538,4.575c1.351,4.016,1.546,4.623,1.58,4.951
	C37.488,39.332,29.606,42.051,25.749,39.147L25.749,39.147z"/>
</svg>
