<?xml version="1.0" encoding="utf-8"?>
<!-- Generator: Adobe Illustrator 22.0.0, SVG Export Plug-In . SVG Version: 6.00 Build 0)  -->
<svg version="1.1" id="Layer_1" xmlns="http://www.w3.org/2000/svg" xmlns:xlink="http://www.w3.org/1999/xlink" x="0px" y="0px"
	 viewBox="0 0 42 42" style="enable-background:new 0 0 42 42;" xml:space="preserve">
<style type="text/css">
	.st0{fill:url(#SVGID_1_);}
	.st1{fill:#FFFFFF;}
</style>
<linearGradient id="SVGID_1_" gradientUnits="userSpaceOnUse" x1="1" y1="21" x2="41" y2="21" gradientTransform="matrix(1 0 0 -1 0 42)">
	<stop  offset="0" style="stop-color:#8BC53F"/>
	<stop  offset="1" style="stop-color:#EC0080"/>
</linearGradient>
<path class="st0" d="M21,41C9.973,41,1,32.028,1,21S9.973,1,21,1s20,8.972,20,20S32.027,41,21,41z M21,2.031
	C10.541,2.031,2.032,10.541,2.032,21S10.541,39.969,21,39.969S39.968,31.459,39.968,21S31.459,2.031,21,2.031z"/>
<path id="Twitter_2_" class="st1" d="M33.176,13.256c-0.895,0.407-1.858,0.683-2.869,0.806c1.032-0.633,1.824-1.637,2.197-2.833
	c-0.966,0.586-2.034,1.013-3.175,1.242c-0.909-0.995-2.208-1.617-3.646-1.617c-2.757,0-4.994,2.294-4.994,5.123
	c0,0.402,0.043,0.791,0.129,1.167c-4.152-0.214-7.833-2.251-10.298-5.354c-0.43,0.759-0.676,1.64-0.676,2.578
	c0,1.776,0.882,3.345,2.222,4.264c-0.818-0.025-1.589-0.258-2.264-0.639v0.063c0,2.483,1.723,4.554,4.009,5.023
	c-0.419,0.12-0.861,0.18-1.317,0.18c-0.321,0-0.636-0.031-0.941-0.091c0.636,2.035,2.48,3.516,4.667,3.556
	c-1.709,1.374-3.865,2.194-6.204,2.194c-0.403,0-0.802-0.024-1.192-0.07c2.211,1.451,4.838,2.299,7.658,2.299
	c9.191,0,14.215-7.805,14.215-14.575c0-0.222-0.004-0.445-0.013-0.664C31.66,15.185,32.508,14.284,33.176,13.256"/>
</svg>
