<?xml version="1.0" encoding="utf-8"?>
<!-- Generator: Adobe Illustrator 22.0.0, SVG Export Plug-In . SVG Version: 6.00 Build 0)  -->
<svg version="1.1" id="Layer_1" xmlns="http://www.w3.org/2000/svg" xmlns:xlink="http://www.w3.org/1999/xlink" x="0px" y="0px"
	 viewBox="0 0 42 42" style="enable-background:new 0 0 42 42;" xml:space="preserve">
<style type="text/css">
	.st0{fill:url(#SVGID_1_);}
	.st1{fill:#FFFFFF;}
</style>
<linearGradient id="SVGID_1_" gradientUnits="userSpaceOnUse" x1="1" y1="21" x2="41" y2="21">
	<stop  offset="0" style="stop-color:#8BC53F"/>
	<stop  offset="1" style="stop-color:#EC0080"/>
</linearGradient>
<path class="st0" d="M21,41C9.972,41,1,32.028,1,21C1,9.972,9.972,1,21,1s20,8.972,20,20C41,32.028,32.028,41,21,41z M21,2.032
	C10.541,2.032,2.032,10.541,2.032,21S10.541,39.968,21,39.968S39.968,31.459,39.968,21S31.459,2.032,21,2.032z"/>
<path id="Youtube_2_" class="st1" d="M18.756,23.839l-0.001-6.149l5.871,3.085L18.756,23.839z M31.649,16.623
	c0,0-0.213-1.508-0.864-2.172c-0.827-0.872-1.753-0.876-2.177-0.927c-3.041-0.221-7.603-0.221-7.603-0.221h-0.009
	c0,0-4.562,0-7.603,0.221c-0.425,0.051-1.351,0.055-2.178,0.927c-0.651,0.664-0.863,2.172-0.863,2.172s-0.217,1.771-0.217,3.542
	v1.661c0,1.771,0.217,3.542,0.217,3.542s0.212,1.508,0.863,2.172c0.827,0.872,1.913,0.845,2.397,0.936
	c1.738,0.168,7.388,0.22,7.388,0.22s4.567-0.007,7.607-0.229c0.425-0.051,1.351-0.055,2.177-0.927
	c0.651-0.664,0.864-2.172,0.864-2.172s0.217-1.771,0.217-3.542v-1.661C31.866,18.396,31.649,16.623,31.649,16.623L31.649,16.623z"/>
</svg>
