<svg width="145" height="42" viewBox="0 0 145 42" fill="none" xmlns="http://www.w3.org/2000/svg">
<g clip-path="url(#clip0_1065_163)">
<path d="M136.09 0H8.9104C3.98932 0 0 3.81421 0 8.51929V33.4807C0 38.1858 3.98932 42 8.9104 42H136.09C141.011 42 145 38.1858 145 33.4807V8.51929C145 3.81421 141.011 0 136.09 0Z" fill="white"/>
<path d="M45.9539 12.133V11.3903L48.7601 11.3856V13.7365C48.3587 14.0483 47.9088 14.2983 47.4267 14.4774C46.9765 14.6415 46.4987 14.7256 46.0168 14.7258C45.3993 14.734 44.7892 14.5966 44.2404 14.3258C43.7214 14.0719 43.2997 13.6673 43.036 13.1701C42.7602 12.6465 42.6207 12.0668 42.6294 11.4806C42.6251 10.8832 42.7635 10.2928 43.0341 9.75441C43.277 9.24756 43.6853 8.82978 44.1978 8.56392C44.7038 8.30513 45.2867 8.17554 45.9465 8.17515C46.3906 8.16904 46.8318 8.24475 47.2459 8.39814C47.6013 8.52448 47.9155 8.73837 48.1567 9.01817C48.3763 9.28325 48.5435 9.62875 48.6583 10.0547L47.8697 10.2647C47.7956 9.99187 47.6701 9.7342 47.4995 9.50428C47.333 9.30617 47.1149 9.15339 46.8671 9.06123C46.5777 8.94752 46.2673 8.89093 45.9545 8.89487C45.5991 8.88745 45.2457 8.94761 44.9148 9.07185C44.6462 9.17299 44.4046 9.3302 44.2077 9.532C44.0318 9.71644 43.8903 9.92835 43.7894 10.1585C43.6182 10.5632 43.5322 10.9963 43.5364 11.4328C43.5364 11.9979 43.638 12.4699 43.8412 12.8486C44.032 13.2165 44.3443 13.5141 44.7297 13.6952C45.1144 13.878 45.5385 13.972 45.9681 13.9695C46.349 13.9692 46.7262 13.8981 47.0787 13.7601C47.4403 13.6201 47.7145 13.471 47.9012 13.3129V12.133H45.9539Z" fill="black"/>
<path d="M50.0706 14.6179V8.2832H54.8612V9.03124H50.9474V10.9727H54.6125V11.716H50.9474V13.8723H55.0148V14.6197L50.0706 14.6179Z" fill="black"/>
<path d="M57.9112 14.618V9.03124H55.7288V8.2832H60.9802V9.03124H58.788V14.618H57.9112Z" fill="black"/>
<path d="M64.4324 14.618V8.2832H65.3092V14.618H64.4324Z" fill="black"/>
<path d="M66.8456 14.618V8.2832H67.7452L71.2252 13.257V8.2832H72.0681V14.618H71.1685L67.6872 9.64006V14.618H66.8456Z" fill="black"/>
<path d="M75.8436 11.5327C75.8436 10.4814 76.1388 9.65823 76.7291 9.06318C77.3194 8.46813 78.0816 8.1708 79.0158 8.17119C79.5969 8.16344 80.1691 8.30832 80.67 8.59005C81.1569 8.86522 81.5476 9.27208 81.793 9.75931C82.0509 10.2588 82.1796 10.8255 82.1792 11.4595C82.1792 12.1018 82.0437 12.6763 81.7726 13.1833C81.5211 13.6711 81.119 14.0733 80.6206 14.3355C80.128 14.5951 79.574 14.7298 79.0114 14.7266C78.4226 14.7358 77.843 14.5859 77.3393 14.2942C76.8549 14.0134 76.4669 13.6032 76.2231 13.1143C75.9715 12.6218 75.8417 12.0807 75.8436 11.5327ZM76.7476 11.5456C76.7476 12.309 76.9621 12.9104 77.3911 13.3497C77.8202 13.789 78.3588 14.0086 79.0071 14.0086C79.6653 14.0086 80.2083 13.7868 80.6361 13.3432C81.0639 12.8995 81.2771 12.2703 81.2759 11.4554C81.2759 10.9398 81.1846 10.4898 81.002 10.1056C80.8343 9.73722 80.5549 9.42544 80.1998 9.21066C79.8461 8.99849 79.4358 8.88829 79.0182 8.89328C78.7218 8.88879 78.4274 8.94054 78.152 9.04555C77.8767 9.15056 77.6258 9.30674 77.414 9.50504C76.9697 9.91249 76.7476 10.5927 76.7476 11.5456Z" fill="black"/>
<path d="M83.2979 14.618V8.2832H84.1969L87.6769 13.257V8.2832H88.5173V14.618H87.6183L84.1383 9.64006V14.618H83.2979Z" fill="black"/>
<path d="M42.1142 30.5468L46.8652 18.7227H48.6287L53.6883 30.5468H51.8236L50.381 26.9653H45.2098L43.8523 30.5468H42.1142ZM45.6824 25.691H49.8781L48.5843 22.418C48.1906 21.4234 47.8981 20.6061 47.7068 19.9662C47.5466 20.7345 47.3238 21.4895 47.0405 22.2245L45.6824 25.691Z" fill="black"/>
<path d="M54.8014 33.8289V21.9806H56.1853V23.0938C56.5111 22.6584 56.8795 22.3318 57.2904 22.1139C57.7014 21.8961 58.1989 21.7871 58.783 21.7871C59.5481 21.7871 60.2231 21.9753 60.8081 22.3517C61.393 22.7281 61.8344 23.259 62.1322 23.9445C62.4364 24.6602 62.5885 25.4267 62.5795 26.1993C62.5795 27.0751 62.415 27.8641 62.0859 28.5661C61.7568 29.2681 61.2793 29.8059 60.6532 30.1796C60.0631 30.5426 59.3768 30.7371 58.675 30.74C58.2013 30.7476 57.733 30.6421 57.3126 30.4332C56.9293 30.2441 56.5916 29.9805 56.3211 29.6592V33.8289H54.8014ZM56.1767 26.3113C56.1767 27.4126 56.4101 28.2273 56.877 28.7554C57.3439 29.2836 57.9091 29.5469 58.5726 29.5454C59.2472 29.5454 59.8249 29.2726 60.3058 28.7271C60.7867 28.1816 61.0271 27.3361 61.0271 26.1904C61.0271 25.099 60.7924 24.2818 60.3231 23.7386C59.8537 23.1955 59.2927 22.9239 58.6399 22.9239C57.9932 22.9239 57.421 23.213 56.9233 23.7911C56.4256 24.3693 56.1767 25.2093 56.1767 26.3113Z" fill="black"/>
<path d="M64.4102 33.8289V21.9806H65.7936V23.0938C66.1194 22.6584 66.4877 22.3318 66.8987 22.1139C67.3096 21.8961 67.8073 21.7871 68.3919 21.7871C69.1561 21.7871 69.831 21.9753 70.4163 22.3517C71.0016 22.7281 71.443 23.259 71.7404 23.9445C72.0447 24.6602 72.1967 25.4267 72.1878 26.1993C72.1878 27.0751 72.0232 27.8641 71.6941 28.5661C71.3651 29.2681 70.8871 29.8059 70.2602 30.1796C69.6701 30.5427 68.9838 30.7371 68.282 30.74C67.8083 30.7474 67.3401 30.642 66.9196 30.4332C66.5365 30.2441 66.1989 29.9805 65.9287 29.6592V33.8289H64.4102ZM65.7849 26.3113C65.7849 27.4126 66.0184 28.2273 66.4853 28.7554C66.9521 29.2836 67.5173 29.5471 68.1808 29.546C68.8559 29.546 69.4338 29.2732 69.9147 28.7277C70.3955 28.1822 70.6358 27.3366 70.6353 26.191C70.6353 25.0996 70.4007 24.2823 69.9313 23.7392C69.462 23.1961 68.9009 22.9245 68.2481 22.9245C67.6014 22.9245 67.0293 23.2136 66.5315 23.7917C66.0338 24.3699 65.7849 25.2097 65.7849 26.3113Z" fill="black"/>
<path d="M78.4555 26.7469L79.9981 26.6183C80.0717 27.2083 80.2418 27.6934 80.5083 28.0737C80.7749 28.454 81.1906 28.7606 81.7553 28.9934C82.3559 29.2344 83.0021 29.354 83.6533 29.3444C84.2777 29.3444 84.8289 29.2555 85.3069 29.0778C85.7849 28.9 86.1405 28.6567 86.3737 28.348C86.6015 28.0554 86.7244 27.7004 86.7242 27.3357C86.7299 26.9841 86.6094 26.6412 86.383 26.3641C86.158 26.0887 85.7878 25.8561 85.2724 25.6662C84.9404 25.5431 84.2066 25.3509 83.0708 25.0898C81.9351 24.8286 81.1393 24.5826 80.6836 24.3518C80.0929 24.056 79.6527 23.6891 79.3631 23.251C79.0731 22.8096 78.9231 22.2973 78.9312 21.7761C78.9311 21.1802 79.116 20.5977 79.4625 20.1025C79.8167 19.5837 80.3341 19.1904 81.0149 18.9226C81.7361 18.6462 82.5074 18.5091 83.2843 18.5191C84.2004 18.5191 85.0087 18.6603 85.7092 18.9426C86.4097 19.225 86.9482 19.6403 87.3246 20.1886C87.7037 20.7438 87.9141 21.3888 87.9323 22.0516L86.3633 22.1649C86.2785 21.4176 85.993 20.8531 85.5068 20.4712C85.0206 20.0893 84.3022 19.8983 83.3516 19.8983C82.3619 19.8983 81.6406 20.0718 81.1877 20.4187C80.7348 20.7655 80.5085 21.1836 80.509 21.6729C80.5034 21.8707 80.5436 22.0672 80.6266 22.2484C80.7097 22.4297 80.8337 22.5911 80.9896 22.7212C81.3043 22.9965 82.127 23.2775 83.4577 23.5642C84.7884 23.8509 85.7008 24.1022 86.1948 24.3181C86.9147 24.6355 87.4461 25.0375 87.7892 25.524C88.1357 26.0215 88.3152 26.6083 88.3038 27.2059C88.3027 27.8389 88.106 28.4574 87.7386 28.984C87.3622 29.5409 86.8209 29.9735 86.1146 30.2818C85.4083 30.5902 84.6134 30.7455 83.7298 30.7479C82.6105 30.7479 81.6729 30.5919 80.9168 30.2801C80.1897 29.9914 79.5697 29.5012 79.1367 28.8725C78.7039 28.2398 78.4677 27.5028 78.4555 26.7469Z" fill="black"/>
<path d="M93.657 29.2483L93.8761 30.5302C93.4994 30.6108 93.115 30.6541 92.729 30.6594C92.1782 30.6594 91.7509 30.576 91.4469 30.4093C91.1634 30.2636 90.938 30.0326 90.8058 29.7521C90.6824 29.4807 90.6207 28.9095 90.6207 28.0383V23.11H89.507V21.9809H90.6207V19.8571L92.1305 18.9863V21.9785H93.6577V23.1076H92.1305V28.1162C92.1305 28.5303 92.1573 28.7966 92.2107 28.915C92.2643 29.0334 92.356 29.1323 92.4724 29.1976C92.5933 29.2672 92.7663 29.302 92.9913 29.302C93.2142 29.2982 93.4366 29.2803 93.657 29.2483Z" fill="black"/>
<path d="M94.5764 26.2636C94.5764 24.6774 95.0375 23.5025 95.9598 22.7387C96.7306 22.1047 97.67 21.7875 98.7777 21.7871C100.009 21.7871 101.016 22.1729 101.797 22.9446C102.579 23.7162 102.97 24.7822 102.97 26.1426C102.97 27.2438 102.797 28.1108 102.451 28.7437C102.114 29.3672 101.589 29.8799 100.945 30.2155C100.283 30.5656 99.5373 30.7462 98.7808 30.74C97.5262 30.74 96.5124 30.3556 95.7395 29.5867C94.9666 28.8178 94.5789 27.7101 94.5764 26.2636ZM96.1369 26.2636C96.1369 27.3601 96.3872 28.1814 96.8878 28.7277C97.119 28.9903 97.4088 29.2 97.7358 29.3416C98.0628 29.4832 98.4188 29.553 98.7777 29.546C99.5309 29.546 100.158 29.2718 100.659 28.7236C101.16 28.1753 101.41 27.3392 101.409 26.2152C101.409 25.1557 101.158 24.3531 100.655 23.8076C100.152 23.2621 99.526 22.9892 98.7777 22.9888C98.4192 22.9818 98.0635 23.0513 97.7366 23.1922C97.4097 23.3332 97.1197 23.542 96.8878 23.8035C96.3876 24.3467 96.1373 25.1667 96.1369 26.2636Z" fill="black"/>
<path d="M104.733 30.5461V21.9802H106.1V23.2781C106.449 22.6705 106.771 22.2699 107.066 22.0764C107.351 21.8857 107.692 21.7843 108.04 21.7862C108.552 21.7862 109.072 21.9421 109.601 22.254L109.078 23.6008C108.744 23.4019 108.36 23.2932 107.967 23.2864C107.644 23.2838 107.329 23.3845 107.073 23.5725C106.801 23.7736 106.604 24.0518 106.508 24.3671C106.334 24.9162 106.249 25.4873 106.255 26.0608V30.5444L104.733 30.5461Z" fill="black"/>
<path d="M116.636 27.7862L118.205 27.9714C117.958 28.8481 117.5 29.5283 116.831 30.012C116.161 30.4958 115.306 30.7378 114.266 30.7382C112.955 30.7382 111.917 30.3524 111.149 29.5808C110.381 28.8091 109.997 27.7276 109.997 26.3361C109.997 24.8947 110.385 23.7764 111.161 22.9811C111.938 22.1859 112.945 21.7879 114.185 21.7871C115.383 21.7871 116.361 22.1769 117.12 22.9564C117.879 23.7359 118.259 24.833 118.259 26.2476C118.259 26.3338 118.259 26.4624 118.25 26.6346H111.566C111.622 27.5754 111.901 28.2959 112.402 28.7962C112.903 29.2964 113.526 29.5464 114.272 29.546C114.829 29.546 115.304 29.4062 115.698 29.1265C116.092 28.8469 116.405 28.4001 116.636 27.7862ZM111.651 25.4388H116.653C116.586 24.7183 116.395 24.1779 116.08 23.8177C115.596 23.2592 114.969 22.9798 114.198 22.9794C113.499 22.9794 112.913 23.2024 112.439 23.6484C111.966 24.0944 111.703 24.6918 111.651 25.4406V25.4388Z" fill="black"/>
<path d="M33.1754 16.7768C33.1754 16.7768 28.6915 19.2168 30.6863 24.2029C31.1546 25.3739 32.2906 26.5285 33.9004 27.1968C33.6795 27.8803 33.4026 28.546 33.0723 29.1879C32.5004 30.3259 31.4946 31.8013 30.2957 33.0296C30.2957 33.0296 29.4134 33.9322 28.4169 34.1416C27.7999 34.2708 27.0446 34.2755 26.1444 33.9646C26.1444 33.9646 24.9529 33.4443 24.178 33.2797C23.3141 33.0956 22.1856 33.1959 21.6087 33.3882C21.0318 33.5806 19.8341 34.0372 19.8341 34.0372C19.3284 34.2397 18.776 34.3123 18.2318 34.2478C17.6877 34.1833 17.1706 33.984 16.7318 33.6696C15.2478 32.639 13.5504 29.9678 13.2444 29.3826C13.008 28.9313 11.9159 27.0429 11.4457 24.1115C11.3075 23.2484 11.2736 22.2892 11.3304 21.2521C11.4877 18.369 13.0525 16.424 14.1835 15.578C14.5086 15.3311 14.8585 15.1155 15.2281 14.9344C15.5606 14.7757 17.6055 13.7144 19.9304 14.4831C21.7056 15.0701 22.2381 15.368 22.8304 15.3609C22.9663 15.3525 23.1008 15.3307 23.2321 15.296C23.5875 15.2135 23.9353 15.1038 24.2724 14.968C24.6451 14.8097 25.0261 14.6697 25.4139 14.5486C25.7639 14.4352 26.12 14.3399 26.4807 14.2631C26.6658 14.2247 26.8478 14.1929 27.036 14.1704C27.2476 14.1426 27.4611 14.1298 27.6746 14.1321C28.0463 14.1384 28.4172 14.1664 28.7853 14.2159C29.1296 14.2646 29.4695 14.3384 29.8021 14.4365C30.1047 14.5254 30.4018 14.6308 30.6919 14.7521C31.3619 15.0306 32.0376 15.4848 32.6602 16.1497L33.1754 16.7768Z" fill="black"/>
<path d="M28.1146 7.72852C28.1146 7.72852 27.0323 7.72852 25.6977 8.44529C24.199 9.24937 22.2066 11.2634 22.5385 13.8202C22.5385 13.8202 23.2068 13.9836 24.2421 13.6108C24.3544 13.5707 24.4692 13.5188 24.5926 13.4692C26.0155 12.8958 27.2754 11.5779 27.8314 10.0476C28.1022 9.30306 28.2195 8.56269 28.1146 7.72852Z" fill="black"/>
</g>
<defs>
<clipPath id="clip0_1065_163">
<rect width="145" height="42" fill="white"/>
</clipPath>
</defs>
</svg>
