<?xml version="1.0" encoding="utf-8"?>
<!-- Generator: Adobe Illustrator 22.0.1, SVG Export Plug-In . SVG Version: 6.00 Build 0)  -->
<svg version="1.1" id="Layer_1" xmlns="http://www.w3.org/2000/svg" xmlns:xlink="http://www.w3.org/1999/xlink" x="0px" y="0px"
	 viewBox="0 0 64 64" style="enable-background:new 0 0 64 64;" xml:space="preserve">
<style type="text/css">
	.st0{fill:none;stroke:#E40076;stroke-width:3;stroke-miterlimit:10;}
	.st1{fill:#8BC53F;}
</style>
<circle class="st0" cx="32" cy="32" r="29"/>
<path class="st1" d="M41.238,12.942h-5.674c0,0-4.389,0.02-7.129,0.04c0.001-0.013,0.001-0.027,0.002-0.04h-5.674
	c-1.519,0-2.762,1.243-2.762,2.762v1.361v1.368v7.742v17.369v2.532v0.377c0,0.633,0.129,1.237,0.363,1.788
	c0.234,0.55,0.572,1.047,0.989,1.464c0.313,0.313,0.67,0.581,1.062,0.795c0.261,0.142,0.537,0.26,0.825,0.35
	c0.432,0.135,0.89,0.208,1.365,0.208h14.793c2.532,0,4.604-2.071,4.604-4.604v-0.377v-2.532V26.176v-7.742v-1.368v-1.361
	C44,14.185,42.757,12.942,41.238,12.942z M34.218,47.804c0,1.226-0.993,2.219-2.218,2.219c-1.225,0-2.218-0.993-2.218-2.219
	c0-1.227,0.993-2.219,2.218-2.219C33.225,45.585,34.218,46.577,34.218,47.804z M40.317,44.039L40.317,44.039H23.684h-0.001V28.37
	v-11.3c0-0.18,0.048-0.349,0.124-0.498h2.48H29.7h10.493c0.076,0.149,0.124,0.318,0.124,0.498v11.3V44.039z"/>
</svg>
