<?xml version="1.0" encoding="UTF-8"?>
<svg xmlns="http://www.w3.org/2000/svg" width="32" height="32" version="1.1" viewBox="0 0 32 32">
  <defs>
    <style>
      .cls-1 {
        fill: #fff;
      }
    </style>
  </defs>
  <!-- Generator: Adobe Illustrator 28.7.1, SVG Export Plug-In . SVG Version: 1.2.0 Build 142)  -->
  <g>
    <g id="Layer_1">
      <path class="cls-1" d="M16,13.415h6.461v-2.585h-6.461v2.585ZM16,21.168h6.461v-2.585h-6.461v2.585ZM12.123,14.707c.711,0,1.319-.253,1.825-.759s.759-1.115.759-1.825-.253-1.319-.759-1.825-1.115-.759-1.825-.759-1.319.253-1.825.759-.759,1.115-.759,1.825.253,1.319.759,1.825,1.115.759,1.825.759ZM12.123,22.461c.711,0,1.319-.253,1.825-.759s.759-1.115.759-1.825-.253-1.319-.759-1.825-1.115-.759-1.825-.759-1.319.253-1.825.759-.759,1.115-.759,1.825.253,1.319.759,1.825,1.115.759,1.825.759Z"/>
      <path class="cls-1" d="M16.001,31.244C7.595,31.244.756,24.405.756,15.999S7.595.756,16.001.756s15.243,6.839,15.243,15.243-6.839,15.245-15.243,15.245ZM16.001,3.341c-6.981,0-12.66,5.679-12.66,12.659s5.679,12.66,12.66,12.66,12.659-5.679,12.659-12.66S22.981,3.341,16.001,3.341Z"/>
    </g>
  </g>
</svg>