<svg id="Layer_1" xmlns="http://www.w3.org/2000/svg" viewBox="0 0 100 32"><style>.st0{fill:#1b75bb}</style><path id="XMLID_71_" class="st0" d="M18.8 1.5c.3.1.7.1 1 .2 1.4.4 2.7 1.1 3.8 2 3.3 2.6 6 5.7 8.1 9.3.4.7.6 1.4.6 2.3l-.2-.2c-2-3-4.2-5.7-6.8-8.1-.9-.8-1.9-1.7-2.9-2.3-2.3-1.3-4.6-1.3-7 .1-.9.5-1.7 1.2-2.5 1.9-1.9 1.7-3.8 3.5-5.6 5.2-.1.1-.2.1-.3.2-.2.1-.3.1-.4-.1-.6-.6-1.1-1.2-1.7-1.8l.3-.3C6.7 8.5 8.3 7 9.9 5.6c.8-.7 1.5-1.4 2.3-2 1.4-1.2 3.1-1.8 5-2.1h1.6z"/><path id="XMLID_70_" class="st0" d="M3.2 16.7c.4.6.8 1.3 1.3 1.9 1.8 2.5 3.9 4.9 6.2 7 .8.7 1.6 1.4 2.6 1.9 2.4 1.2 4.7 1 7-.4 1.2-.8 2.3-1.8 3.3-2.7 1.5-1.3 2.9-2.7 4.3-4.1l.2-.2c.4-.4.5-.3.9 0 .5.5 1 1.1 1.5 1.7-.6.6-1.3 1.2-1.9 1.8l-5.4 4.8c-1.8 1.5-3.9 2.2-6.3 2.1-1.1 0-2.2-.4-3.2-1-1.6-.8-2.9-2-4.2-3.2-2.2-2.1-4.1-4.5-5.7-7.2-.3-.6-.6-1.2-.6-1.9v-.1-.4z"/><path id="XMLID_68_" d="M31.2 20.6c-.6-.7-1.1-1.3-1.7-2-1.4-1.6-2.8-3.1-4.4-4.4-.6-.5-1.7-.8-2.6 0-1.9 1.8-3.9 3.5-5.8 5.3-.4.4-.9.8-1.3 1.1-1.1.9-2.3.9-3.4.2-.7-.5-1.3-1.1-1.9-1.6-1.7-1.6-3.4-3.3-5-5.1-.4-.4-.7-.9-1-1.4-.1-.1-.1-.3-.1-.4 0-.3.1-.6.3-.9.4.5.7.9 1.1 1.3 1.4 1.6 2.8 3.2 4.5 4.6.2.2.5.4.7.6.8.5 1.7.5 2.4-.2 1-.9 2-1.8 3.1-2.8 1.2-1.1 2.5-2.3 3.7-3.4.6-.5 1.3-.9 2.1-.9.6 0 1.2.1 1.7.5.4.3.8.6 1.1.9 2.2 2.1 4.4 4.2 6.2 6.6.2.3.4.5.6.8.1.1.1.2 0 .3 0 .3-.2.6-.3.9z" fill="#8bc53f"/><path id="XMLID_67_" class="st0" d="M8.4 14.1c.3-.3.6-.6.9-.8 2.2-2 4.3-4 6.5-6.1.8-.7 1.7-1.2 2.8-1.4 1.1-.2 2.2 0 3.2.5 1.1.5 2.1 1.2 2.9 2 .9.9 1.8 1.7 2.7 2.6 1.7 1.7 3.1 3.6 4.5 5.6.2.3.3.7.2 1.1 0 .2-.1.4-.1.6-.1-.1-.1-.2-.2-.2-1.9-2.5-3.9-4.8-6.2-6.9-.8-.7-1.5-1.4-2.4-2-1.7-1.1-3.4-1-5 .4-2.4 2-4.6 4.2-6.9 6.3-.4.4-.8.4-1.2 0-.5-.5-1-.9-1.4-1.4 0-.1-.1-.2-.3-.3z"/><path id="XMLID_66_" class="st0" d="M3.4 13.8c.6.7 1.1 1.4 1.7 2.1 2 2.4 4.1 4.6 6.4 6.6.7.6 1.4 1 2.3 1.2 1.2.2 2.2-.2 3.1-.9 2.4-2 4.6-4.1 6.8-6.3.1-.1.2-.2.4-.3.3-.2.6-.2.9.1.6.6 1.2 1.1 1.8 1.7v.1c-2.4 2.4-4.9 4.8-7.5 7.1-1 .9-2.2 1.3-3.5 1.3-.9 0-1.8-.3-2.6-.8-1.2-.6-2.1-1.5-3.1-2.3-2.5-2.3-4.7-4.9-6.7-7.7-.2-.3-.3-.6-.2-.9.1-.5.2-.7.2-1z"/><path id="XMLID_62_" class="st0" d="M45.7 12.9v3.9h-1.4v-3.9h-5.2V5.7h5.2V3.2h1.4v2.5h5.2v7.2h-5.2zm3.9-5.8h-3.8v4.6h3.8V7.1zm-5.3 4.6V7.1h-3.8v4.6h3.8z"/><path id="XMLID_59_" class="st0" d="M66.1 3.7v12.7H54.2V3.7h11.9zM55.5 5v10.2h9.3V5h-9.3z"/><path id="XMLID_58_" class="st0" d="M77.3 9.5c-.1 0-.1 0-.2.1-.8.3-1.6.7-2.4 1h-.2c-.2-.3-.5-.6-.7-.9 1.1-.4 2.1-.9 3.2-1.3-.5-.4-.9-.8-1.4-1.2.3-.3.6-.5.9-.8L78 7.6c.5-.2 1.6-1.3 2-2H76.6c-.2 0-.3 0-.4.2-.6.6-1.1 1.3-1.7 1.9-.4-.3-.7-.6-1.1-.9 1.3-1 2.2-2.3 3-3.7.4.2.8.3 1.2.5-.1.3-.3.5-.4.8h4.3c0 .6.1 1.1-.3 1.6-.9 1.3-2 2.3-3.3 3.1-.1 0-.1.1-.2.1.4.1.8.1 1.2.2l-.3.6H82c0 .5 0 1-.1 1.4-.7 2-2.1 3.4-3.9 4.3-1.3.6-2.7.9-4.1 1-.1 0-.2 0-.2-.1-.2-.3-.3-.6-.5-1 1.4-.1 2.8-.3 4.1-.9-.4-.4-.8-.8-1.3-1.2.3-.3.7-.5 1-.8.5.5.9 1 1.4 1.5 1.1-.7 1.9-1.6 2.2-2.9h-2.1c-.4 0-.7.1-1 .4-.8.9-1.8 1.6-2.8 2.2-.1.1-.2.1-.3 0l-.8-.8c.5-.3 1-.7 1.5-1 .9-.6 1.6-1.4 2.2-2.3-.1-.1 0-.2 0-.3z"/><path id="XMLID_57_" class="st0" d="M91.8 7.3h-1.7V6h1.7V3.2h1.4V6h3.6v.2c-.1 2-.1 4-.2 6 0 .7 0 1.4-.1 2.1 0 .3-.1.6-.2.8-.3.7-.8 1.2-1.6 1.3h-1.8c-.1-.4-.2-.9-.3-1.4h1.6c.5 0 .7-.3.8-.8.1-2.3.2-4.5.3-6.8v-.2h-2.1c-.2 0-.2 0-.2.2 0 .9 0 1.7-.1 2.6-.1 1.9-.6 3.6-1.7 5.2-.5.6-1 1.2-1.7 1.6-.3-.3-.7-.6-1-.9.3-.2.5-.4.7-.6 1.3-1.2 2-2.6 2.2-4.3.2-1.2.2-2.4.2-3.6.3.1.3 0 .2-.1z"/><path id="XMLID_56_" class="st0" d="M69.4 14.1c-.3-.4-.7-.7-.9-1 .4-.7.9-1.4 1.2-2.2.4-.7.6-1.5 1-2.3h-2V7.4h2.1V5.5c-.6.1-1.1.2-1.7.3-.1-.4-.2-.8-.2-1.2 1.6-.2 3.2-.5 4.9-.7 0 .3.1.7.2 1.1-.6.1-1.1.3-1.7.4-.2 0-.2.1-.2.3v1.7H74v1.2h-1.9v.6c0 .1.1.2.2.2.6.5 1.3 1.1 1.9 1.6l.1.1c-.3.4-.6.7-.9 1-.4-.4-.9-.8-1.3-1.3v5.9h-1.3v-5.3c-.5 1-.9 1.8-1.4 2.7z"/><path id="XMLID_55_" class="st0" d="M75.3 27.3h-1.1v-5.5l-.3.6c-.7 1.6-1.3 3.2-2 4.8-.1.2-.2.2-.4.2s-.3 0-.4-.2c-.7-1.7-1.4-3.5-2.2-5.2 0-.1-.1-.1-.1-.2v5.6h-1.1v-7.5h1.4c.1 0 .1.1.2.2.7 1.7 1.4 3.4 2.1 5 0 .1.1.2.1.3.4-.9.7-1.8 1.1-2.6.4-.9.8-1.8 1.1-2.7.1-.2.1-.2.3-.2h1.2c.1 2.4.1 4.9.1 7.4z"/><path id="XMLID_54_" class="st0" d="M90.5 8.1v1.3H87.7c-.2 0-.3.1-.4.3l-.6 1.8c-.2.5-.3.9-.5 1.4-.2.5-.4.9-.6 1.4 1-.2 1.9-.5 2.9-.7l-.9-2.1c.4-.2.8-.3 1.2-.5.5 1.2 1 2.3 1.6 3.5-.4.2-.9.3-1.3.5 0 0-.1 0-.1-.1 0-.2-.2-.3-.4-.2-1.4.4-2.8.7-4.3 1.1h-.2l-.3-.9v-.1c.8-1.1 1.3-2.5 1.7-3.8.2-.5.3-1 .4-1.5h-2.2V8.2c2.4-.1 4.6-.1 6.8-.1z"/><path id="XMLID_53_" class="st0" d="M46.6 24.8c-.4 1.5-2.3 2.7-4 2.5-2-.2-3.4-1.9-3.5-3.8 0-2 1.3-3.6 3.2-3.9 2-.3 3.7 1 4.2 2.4h-1c-.1 0-.1-.1-.2-.1-.6-.9-1.4-1.3-2.5-1.3-1.4 0-2.6 1.2-2.7 2.6-.1 1.5.9 2.8 2.3 3.1 1.1.2 2.3-.3 2.9-1.3.1-.1.1-.2.3-.2h1z"/><path id="XMLID_50_" class="st0" d="M83.3 26.9c-.2.4-.2.4-.6.4h-.3v-8.1h1.1v3c.1 0 .1 0 .1-.1 1.2-.9 2.7-.2 3.2.7.6 1.1.5 2.7-.3 3.6-.7 1-2 1.5-3.2.5zm2.5-3.5c-.1-.4-.4-.6-.8-.6-.5-.1-1 .1-1.3.4-.1.1-.1.2-.1.3v2.3c0 .1 0 .2.1.2.4.6 1.7.8 2.2 0 .3-1.3-.1-2.6-.1-2.6z"/><path id="XMLID_49_" class="st0" d="M51.9 27.3h-1.1V27v-3.1-.3c0-.8-.5-1.2-1.3-.9-.4.1-.7.4-1 .8v3.8h-1.1v-8.1h1v3.2c.1-.1.1-.1.2-.1.5-.5 1.2-.6 1.9-.5.7.1 1.2.7 1.3 1.5V27c.1.1.1.2.1.3z"/><path id="XMLID_46_" class="st0" d="M64.7 27.3h-.8c-.1 0-.1-.1-.2-.1 0-.1 0-.2-.1-.3-.3.1-.6.3-.9.4-.9.3-1.7.1-2.2-.6-.7-1.1-.1-2.5 1.2-2.7.6-.1 1.1 0 1.6.1h.1c.1-.7-.3-1.3-1.1-1.4-.5 0-1 .1-1.5.3-.1 0-.1.1-.2.1v-.9c0-.1.1-.1.1-.1.8-.3 1.6-.4 2.4-.2.9.3 1.4.9 1.4 1.8v3.5c.2 0 .2 0 .2.1zm-1.1-1.7v-.4c0-.1-.1-.1-.1-.1-.4-.1-.9-.2-1.3-.1-.5.1-.8.5-.7 1 .1.4.5.7 1 .6.2 0 .5-.1.7-.2.3-.3.5-.5.4-.8z"/><path id="XMLID_38_" class="st0" d="M96.4 26.2v.8c0 .1-.1.1-.1.1-1 .4-2 .5-3 0-.5-.2-.9-.6-1-1.1-.4-1.1-.3-2.1.2-3.2.5-.9 1.7-1.3 2.7-.9.6.2 1 .6 1.2 1.2.2.5.3 1.2.2 1.8H93c-.1.6.4 1.2 1 1.4.6.2 1.3.1 1.9 0 .2 0 .4-.1.5-.1zm-.9-2.3c0-.8-.5-1.2-1.1-1.2-.6 0-1.2.6-1.3 1.2h2.4z"/><path id="XMLID_34_" class="st0" d="M81.7 24.6c0 1.5-1.3 2.8-2.8 2.8-1.5 0-2.8-1.3-2.8-2.8 0-1.6 1.2-2.8 2.8-2.8 1.5-.1 2.8 1.2 2.8 2.8zm-2.8 1.8c1 0 1.8-.8 1.9-1.9 0-1-.8-1.9-1.8-1.9s-1.9.8-1.9 1.9c-.1 1.1.7 1.9 1.8 1.9z"/><path id="XMLID_33_" class="st0" d="M55.2 21.9h.8c.1.2.1.4.2.6l.2-.2c.6-.6 1.3-.7 2.1-.5.7.2 1.2.8 1.2 1.7V27.3h-1.1V27v-3.1-.3c0-.7-.4-1-1.1-.9-.5.1-.8.4-1.1.8v3.8h-1c-.2-1.8-.2-3.6-.2-5.4z"/><path id="XMLID_25_" class="st0" d="M90.2 19.2h1v8.1h-1v-8.1z"/><path id="XMLID_24_" class="st0" d="M90 4.5v1.2h-5.6V4.5H90z"/><path id="XMLID_21_" class="st0" d="M54.1 27.3h-1v-5.4h1v5.4z"/><path id="XMLID_20_" class="st0" d="M89 27.3h-1v-5.4h1v5.4z"/><path id="XMLID_18_" class="st0" d="M54.1 20.9h-1v-1.2h1v1.2z"/><path id="XMLID_17_" class="st0" d="M88 19.7h1v1.2h-1v-1.2z"/><path id="XMLID_15_" class="st0" d="M59.5 8.9V7.1h-3.1V5.9h7.5v1.2h-3.1v1.7h2.8V10h-2.8v2.8h3.3V14h-7.9v-1.2h3.3V10h-2.9V8.8c.9.1 1.9.1 2.9.1z"/><path id="XMLID_14_" class="st0" d="M63.6 11.9c-.4.3-.7.5-1 .8l-1.5-1.8c.3-.2.6-.5.9-.7.6.6 1.1 1.2 1.6 1.7z"/></svg>