<svg width="145" height="42" viewBox="0 0 145 42" fill="none" xmlns="http://www.w3.org/2000/svg">
<g clip-path="url(#clip0_1064_137)">
<path d="M136.09 0H8.9104C3.98932 0 0 3.81421 0 8.51929V33.4807C0 38.1858 3.98932 42 8.9104 42H136.09C141.011 42 145 38.1858 145 33.4807V8.51929C145 3.81421 141.011 0 136.09 0Z" fill="white"/>
<path d="M33.598 18.4014C35.72 19.557 35.7181 22.4819 33.5943 23.6347L27.922 26.713L21.8647 20.9776L27.9418 15.3213L33.598 18.4014Z" fill="#FBBC04"/>
<path d="M27.9419 15.321L21.8648 20.9774L10.147 9.88299C10.693 8.09666 12.902 7.13152 14.7265 8.12498L27.9419 15.321Z" fill="#34A853"/>
<path d="M21.8648 20.9775L27.9221 26.7129L14.7221 33.8771C12.8353 34.9012 10.54 33.8323 10.0945 31.9303L21.8648 20.9775Z" fill="#EA4335"/>
<path d="M21.8648 20.9777L10.0963 31.9293C10.0457 31.7094 10.0202 31.4848 10.0204 31.2597V10.7411C10.0187 10.451 10.0603 10.1622 10.1438 9.8833L21.8648 20.9777Z" fill="#4285F4"/>
<path d="M45.9539 12.0348V11.2914L48.7602 11.2873V13.6382C48.3587 13.95 47.9088 14.2 47.4268 14.3792C46.9767 14.5442 46.4989 14.6294 46.0169 14.6305C45.3993 14.6383 44.7892 14.5005 44.2405 14.2293C43.7214 13.9754 43.2998 13.5708 43.036 13.0736C42.7614 12.5503 42.6227 11.9713 42.6319 11.3858C42.6275 10.7885 42.766 10.1981 43.0367 9.65967C43.2795 9.15282 43.6879 8.73505 44.2004 8.46918C44.7063 8.21 45.2892 8.08041 45.949 8.08041C46.393 8.07439 46.8342 8.1499 47.2484 8.30282C47.6037 8.42948 47.9178 8.64332 48.1592 8.92284C48.3788 9.18831 48.546 9.53402 48.6608 9.95995L47.8698 10.1676C47.7956 9.89478 47.6702 9.63711 47.4996 9.40718C47.333 9.20907 47.1149 9.05629 46.8671 8.96414C46.5778 8.85042 46.2674 8.79384 45.9546 8.79778C45.5992 8.79036 45.2458 8.85052 44.9149 8.97476C44.646 9.07545 44.4044 9.23272 44.2078 9.43491C44.0319 9.61934 43.8904 9.83125 43.7894 10.0614C43.6183 10.4661 43.5323 10.8992 43.5365 11.3357C43.5365 11.9001 43.6381 12.372 43.8413 12.7515C44.032 13.1194 44.3443 13.417 44.7298 13.5981C45.1144 13.7812 45.5385 13.8753 45.9681 13.873C46.349 13.8727 46.7263 13.8016 47.0788 13.6636C47.4403 13.5236 47.7145 13.3745 47.9013 13.2164V12.0348H45.9539Z" fill="black"/>
<path d="M50.0707 14.5213V8.18652H54.8612V8.93397H50.9475V10.8743H54.6126V11.6176H50.9475V13.7738H55.0149V14.5213H50.0707Z" fill="black"/>
<path d="M57.9112 14.5213V8.93397H55.7288V8.18652H60.9802V8.93397H58.788V14.5213H57.9112Z" fill="black"/>
<path d="M64.4325 14.5213V8.18652H65.3093V14.5213H64.4325Z" fill="black"/>
<path d="M66.8456 14.5213V8.18652H67.7452L71.2252 13.1603V8.18652H72.068V14.5213H71.1684L67.6872 9.54338V14.5213H66.8456Z" fill="black"/>
<path d="M75.8436 11.436C75.8436 10.3847 76.1388 9.56155 76.7291 8.9665C77.3194 8.37145 78.0816 8.07412 79.0158 8.07451C79.5969 8.06676 80.1691 8.21164 80.67 8.49337C81.1569 8.76854 81.5476 9.1754 81.793 9.66263C82.0509 10.1625 82.1796 10.7292 82.1792 11.3628C82.1792 12.0051 82.0437 12.5797 81.7726 13.0866C81.521 13.5742 81.1189 13.9762 80.6206 14.2382C80.128 14.4978 79.574 14.6325 79.0114 14.6293C78.4226 14.6385 77.843 14.4886 77.3393 14.1969C76.8549 13.9161 76.4669 13.506 76.2231 13.017C75.9716 12.5247 75.8418 11.9838 75.8436 11.436ZM76.7476 11.449C76.7476 12.2123 76.9621 12.8137 77.3911 13.253C77.8202 13.6923 78.3588 13.9119 79.0071 13.9119C79.6653 13.9119 80.2083 13.6901 80.6361 13.2465C81.0639 12.8029 81.2771 12.1736 81.2759 11.3587C81.2759 10.8431 81.1846 10.3932 81.002 10.0089C80.8343 9.64054 80.5549 9.32876 80.1998 9.11399C79.8461 8.90181 79.4358 8.79161 79.0182 8.7966C78.7219 8.79216 78.4275 8.84388 78.1522 8.94878C77.8768 9.05368 77.6259 9.20968 77.414 9.40777C76.9697 9.81522 76.7476 10.4956 76.7476 11.449Z" fill="black"/>
<path d="M83.2979 14.5213V8.18652H84.1968L87.6768 13.1603V8.18652H88.5172V14.5213H87.6182L84.1382 9.54338V14.5213H83.2979Z" fill="black"/>
<path d="M49.2592 25.8113V24.4232L54.4978 24.4149V28.8029C53.7488 29.3852 52.9092 29.8518 52.0093 30.1857C51.1688 30.4923 50.2767 30.6495 49.3771 30.6494C48.1628 30.6494 47.0592 30.4008 46.0662 29.9037C45.0975 29.4295 44.3107 28.6743 43.8183 27.7463C43.312 26.8052 43.0588 25.7539 43.0588 24.5925C43.0504 23.4774 43.3087 22.3753 43.814 21.3703C44.3171 20.3729 45.0411 19.6321 45.9859 19.148C46.9308 18.6638 48.019 18.422 49.2506 18.4224C50.1449 18.4224 50.9534 18.56 51.6761 18.8353C52.3989 19.1106 52.9655 19.4984 53.376 19.9987C53.7874 20.4938 54.0994 21.139 54.312 21.9343L52.8361 22.3213C52.6506 21.7168 52.42 21.2429 52.1444 20.8995C51.8688 20.5562 51.4752 20.2809 50.9635 20.0736C50.4231 19.8612 49.8434 19.7554 49.2592 19.7627C48.5114 19.7627 47.8646 19.8716 47.3187 20.0895C46.7729 20.3074 46.3329 20.5935 45.9989 20.9479C45.671 21.2926 45.4071 21.6882 45.2184 22.1177C44.8986 22.8733 44.738 23.6819 44.7457 24.4969C44.7457 25.5506 44.9356 26.4323 45.3152 27.1422C45.671 27.8292 46.2537 28.3849 46.9732 28.7233C47.6909 29.0656 48.4825 29.2424 49.2845 29.2395C49.9962 29.2387 50.701 29.1056 51.3596 28.8477C52.0346 28.587 52.5465 28.3087 52.8953 28.013V25.8113H49.2592Z" fill="black"/>
<path d="M56.1489 26.1669C56.1489 24.5807 56.61 23.4058 57.5323 22.642C58.3032 22.008 59.2423 21.6908 60.3496 21.6904C61.5836 21.6904 62.5904 22.0762 63.3699 22.8479C64.1494 23.6195 64.5402 24.6855 64.5423 26.0459C64.5423 27.1472 64.3695 28.0142 64.024 28.647C63.6864 29.2722 63.1601 29.786 62.5135 30.1218C61.8515 30.4719 61.1061 30.6525 60.3496 30.6463C59.0958 30.6463 58.0823 30.2618 57.3089 29.4929C56.5356 28.7241 56.1489 27.6154 56.1489 26.1669ZM57.7094 26.1669C57.7094 27.2634 57.9597 28.0848 58.4603 28.631C58.6915 28.8935 58.9811 29.1032 59.308 29.2448C59.6349 29.3863 59.9908 29.4562 60.3496 29.4493C61.1036 29.4493 61.7307 29.1752 62.2309 28.6269C62.7311 28.0787 62.9814 27.2425 62.9818 26.1185C62.9818 25.059 62.7301 24.2565 62.2266 23.711C61.7231 23.1655 61.0983 22.8917 60.3521 22.8898C59.9936 22.8827 59.638 22.9522 59.3112 23.0931C58.9843 23.234 58.6945 23.4429 58.4628 23.7045C57.9626 24.2496 57.7123 25.0704 57.7118 26.1669H57.7094Z" fill="black"/>
<path d="M65.7596 26.1669C65.7596 24.5807 66.2208 23.4058 67.143 22.642C67.9135 22.008 68.8528 21.6908 69.9609 21.6904C71.1925 21.6904 72.1991 22.0762 72.9806 22.8479C73.7622 23.6195 74.153 24.6855 74.153 26.0459C74.153 27.1472 73.98 28.0142 73.6341 28.647C73.2965 29.272 72.7705 29.7858 72.1242 30.1218C71.4622 30.4718 70.7168 30.6524 69.9603 30.6463C68.7061 30.6463 67.6924 30.2618 66.919 29.4929C66.1457 28.7241 65.7592 27.6154 65.7596 26.1669ZM67.3201 26.1669C67.3201 27.2634 67.5704 28.0848 68.071 28.631C68.3022 28.8936 68.592 29.1033 68.919 29.2449C69.246 29.3865 69.602 29.4563 69.9609 29.4493C70.7145 29.4493 71.3416 29.1752 71.8422 28.6269C72.3428 28.0787 72.5929 27.2425 72.5925 26.1185C72.5925 25.059 72.341 24.2565 71.8379 23.711C71.3348 23.1655 70.7092 22.8917 69.9609 22.8898C69.6024 22.8826 69.2466 22.952 68.9197 23.093C68.5927 23.2339 68.3028 23.4428 68.071 23.7045C67.5704 24.2496 67.3201 25.0704 67.3201 26.1669Z" fill="black"/>
<path d="M75.6549 31.1591L77.1314 31.3686C77.1931 31.8047 77.3646 32.1221 77.646 32.3207C78.0224 32.5889 78.5366 32.7233 79.1885 32.7236C79.8911 32.7236 80.4337 32.5893 80.8162 32.3207C81.1988 32.0521 81.4575 31.6755 81.5925 31.191C81.6714 30.8956 81.708 30.2746 81.7023 29.328C81.0384 30.0752 80.2116 30.4488 79.2219 30.4488C77.9903 30.4488 77.0372 30.0241 76.3626 29.1746C75.688 28.3251 75.3505 27.3061 75.35 26.1175C75.3417 25.341 75.4996 24.5711 75.814 23.8551C76.123 23.1645 76.5715 22.6308 77.1598 22.254C77.748 21.8773 78.4382 21.6891 79.2305 21.6895C80.2881 21.6895 81.1597 22.0981 81.8454 22.9153V21.8865H83.2461V29.2878C83.2461 30.6211 83.1039 31.5662 82.8197 32.1231C82.5355 32.68 82.0857 33.1195 81.4703 33.4416C80.8533 33.7645 80.0954 33.9257 79.1966 33.9253C78.1271 33.9253 77.2632 33.6955 76.6051 33.2357C75.9469 32.776 75.6302 32.0838 75.6549 31.1591ZM76.9117 26.0161C76.9117 27.1397 77.1452 27.9597 77.612 28.4761C78.0789 28.9925 78.6639 29.2507 79.3669 29.2507C80.0641 29.2507 80.649 28.9939 81.1217 28.4802C81.5943 27.9666 81.8304 27.1603 81.83 26.0615C81.83 25.0134 81.5867 24.223 81.1001 23.6905C80.6134 23.158 80.0273 22.891 79.3416 22.8894C78.6665 22.8894 78.0929 23.1515 77.6207 23.6758C77.1485 24.2 76.9121 24.9801 76.9117 26.0161Z" fill="black"/>
<path d="M85.5081 30.4496V18.6255H87.0266V30.4496H85.5081Z" fill="black"/>
<path d="M95.5149 27.691L97.084 27.8762C96.8372 28.7529 96.3787 29.4331 95.7086 29.9168C95.0385 30.4005 94.1838 30.6426 93.1443 30.643C91.8337 30.643 90.7947 30.2572 90.0271 29.4856C89.2595 28.7139 88.8757 27.6324 88.8757 26.2409C88.8757 24.7999 89.2638 23.6814 90.0401 22.8853C90.8163 22.0893 91.8228 21.6915 93.0597 21.6919C94.258 21.6919 95.2366 22.0816 95.9955 22.8611C96.7545 23.6407 97.1341 24.7377 97.1346 26.1524C97.1346 26.2381 97.1317 26.3671 97.1259 26.5394H90.443C90.4993 27.4806 90.7776 28.2011 91.2778 28.7009C91.778 29.2008 92.4024 29.4508 93.1511 29.4508C93.7076 29.4508 94.1827 29.3109 94.5764 29.0313C94.9701 28.7517 95.2829 28.3049 95.5149 27.691ZM90.5293 25.3436H95.5315C95.4645 24.6231 95.2732 24.0827 94.9577 23.7225C94.474 23.1632 93.8471 22.8836 93.077 22.8836C92.3777 22.8836 91.7914 23.1068 91.3179 23.5531C90.8444 23.9995 90.581 24.5964 90.5275 25.3436H90.5293Z" fill="black"/>
<path d="M103.982 30.4496V18.6255H108.648C109.47 18.6255 110.097 18.663 110.529 18.7382C111.136 18.8349 111.645 19.0192 112.055 19.2909C112.466 19.5627 112.796 19.943 113.047 20.4319C113.3 20.9349 113.429 21.4871 113.422 22.0454C113.422 23.0506 113.087 23.9015 112.418 24.598C111.749 25.2945 110.54 25.6426 108.791 25.6422H105.619V30.4496H103.982ZM105.619 24.2464H108.816C109.874 24.2464 110.625 24.0582 111.069 23.6818C111.513 23.3055 111.735 22.7759 111.735 22.0931C111.735 21.5984 111.604 21.1748 111.343 20.8224C111.096 20.48 110.729 20.2328 110.309 20.1251C110.034 20.0551 109.525 20.0201 108.783 20.0201H105.619V24.2464Z" fill="black"/>
<path d="M115.278 30.4496V18.6255H116.797V30.4496H115.278Z" fill="black"/>
<path d="M124.996 29.3932C124.433 29.8499 123.892 30.1724 123.372 30.3607C122.837 30.5516 122.269 30.6474 121.698 30.6433C120.714 30.6433 119.957 30.4134 119.429 29.9537C118.9 29.4939 118.636 28.9065 118.635 28.1915C118.631 27.79 118.734 27.3941 118.935 27.0418C119.123 26.7075 119.392 26.4212 119.719 26.207C120.054 25.9925 120.423 25.8318 120.812 25.7315C121.257 25.6316 121.707 25.5587 122.162 25.5132C123.388 25.374 124.29 25.2074 124.87 25.0135C124.875 24.8147 124.878 24.6879 124.878 24.6342C124.878 24.0443 124.734 23.6276 124.446 23.3841C124.058 23.0561 123.482 22.8921 122.719 22.8921C122.004 22.8921 121.477 23.0119 121.137 23.2514C120.797 23.4909 120.545 23.9143 120.381 24.5215L118.9 24.328C119.035 23.7204 119.257 23.2298 119.566 22.8561C119.875 22.4825 120.322 22.1948 120.908 21.9931C121.493 21.7913 122.171 21.6904 122.944 21.6904C123.716 21.6904 124.338 21.7766 124.809 21.9488C125.286 22.1203 125.638 22.3366 125.863 22.5978C126.101 22.8861 126.263 23.225 126.335 23.5859C126.386 23.8333 126.411 24.2795 126.411 24.9245V26.8606C126.411 28.2104 126.443 29.0641 126.508 29.4216C126.574 29.7826 126.704 30.1303 126.892 30.4498H125.306C125.137 30.1181 125.033 29.7603 124.996 29.3932ZM124.873 26.1486C124.322 26.3633 123.495 26.546 122.392 26.6966C121.769 26.7828 121.327 26.8795 121.068 26.9869C120.824 27.0835 120.615 27.2479 120.469 27.4588C120.296 27.7177 120.226 28.0273 120.271 28.3315C120.316 28.6357 120.474 28.9142 120.716 29.1166C121.023 29.3746 121.471 29.5036 122.062 29.5036C122.606 29.5132 123.144 29.3868 123.622 29.1366C124.059 28.9115 124.41 28.5606 124.626 28.1337C124.79 27.8057 124.873 27.3218 124.873 26.6819V26.1486Z" fill="black"/>
<path d="M128.691 33.7478L128.526 32.3874C128.808 32.4665 129.1 32.5099 129.394 32.5166C129.732 32.5166 130.002 32.4628 130.204 32.355C130.407 32.247 130.578 32.0918 130.702 31.9037C130.798 31.7586 130.952 31.3983 131.166 30.8229C131.194 30.7421 131.239 30.6235 131.301 30.469L127.898 21.8866H129.534L131.399 26.842C131.641 27.4713 131.857 28.1328 132.049 28.8266C132.221 28.1659 132.429 27.5143 132.673 26.8745L134.585 21.8818H136.104L132.695 30.5929C132.33 31.5336 132.046 32.1816 131.844 32.5367C131.574 33.0149 131.265 33.3658 130.918 33.5891C130.572 33.8125 130.155 33.924 129.67 33.9236C129.335 33.917 129.005 33.8576 128.691 33.7478Z" fill="black"/>
</g>
<defs>
<clipPath id="clip0_1064_137">
<rect width="145" height="42" fill="white"/>
</clipPath>
</defs>
</svg>
