<?xml version="1.0" encoding="UTF-8"?>
<svg xmlns="http://www.w3.org/2000/svg" width="32" height="32" version="1.1" viewBox="0 0 32 32">
  <defs>
    <style>
      .cls-1 {
        fill: #ff0083;
        stroke-width: .307px;
      }

      .cls-1, .cls-2 {
        stroke: #ff0083;
      }

      .cls-1, .cls-2, .cls-3 {
        stroke-miterlimit: 10;
      }

      .cls-2 {
        fill: none;
        stroke-width: 1.535px;
      }

      .cls-3 {
        display: none;
        fill: #ff0083;
        stroke: #fff;
      }
    </style>
  </defs>
  <!-- Generator: Adobe Illustrator 28.7.1, SVG Export Plug-In . SVG Version: 1.2.0 Build 142)  -->
  <g>
    <g id="Layer_1">
      <path class="cls-3" d="M51.466,75.707c-4.82,0-9.444-1.392-13.442-4.036-6.867,2.679-14.115,4.036-21.563,4.036-14.332,0-28.09-5.13-38.877-14.47-1.126.346-2.295.52-3.488.52-6.551,0-11.881-5.304-11.881-11.824,0-2.126.561-4.169,1.631-5.976-4.479-8.5-6.84-18.052-6.84-27.705,0-15.881,6.184-30.811,17.414-42.041C-14.35-37.019.581-43.203,16.461-43.203c13.45,0,26.555,4.589,37.041,12.947,1.261-.444,2.582-.668,3.942-.668,6.551,0,11.881,5.304,11.881,11.824,0,1.958-.481,3.858-1.4,5.565,5.232,9.023,7.992,19.296,7.992,29.789,0,7.448-1.357,14.696-4.036,21.563,2.644,3.998,4.036,8.622,4.036,13.442,0,13.482-10.968,24.45-24.45,24.45ZM38.542,67.222l.887.645c3.522,2.56,7.684,3.913,12.037,3.913,11.316,0,20.522-9.206,20.522-20.522,0-4.353-1.353-8.515-3.913-12.037l-.645-.887.417-1.014c2.747-6.684,4.14-13.772,4.14-21.066,0-10.176-2.778-20.128-8.033-28.781l-.659-1.086.72-1.047c.904-1.313,1.381-2.848,1.381-4.439,0-4.354-3.568-7.896-7.953-7.896-1.2,0-2.355.26-3.43.773l-1.134.541-.966-.803c-9.93-8.248-22.521-12.79-35.453-12.79-14.832,0-28.776,5.776-39.264,16.263C-33.29-12.524-39.066,1.42-39.066,16.252c0,9.391,2.393,18.678,6.919,26.859l.615,1.111-.761,1.017c-1.023,1.368-1.564,2.991-1.564,4.695,0,4.354,3.568,7.896,7.953,7.896,1.088,0,2.145-.216,3.14-.643l1.155-.495.933.841c10.192,9.187,23.38,14.246,37.137,14.246,7.295,0,14.382-1.393,21.066-4.14l1.014-.417ZM15.057,69.195l-2.642-.972c-4.939-1.817-9.468-6.765-13.098-14.31-4.404-9.156-7.044-21.313-7.433-34.233l-.061-2.023H8.512l.472,1.287c.809,2.207,2.549,3.932,4.774,4.733l1.298.468v45.05ZM-4.11,21.585c.572,11.618,3.024,22.429,6.967,30.626,2.423,5.036,5.29,8.796,8.272,10.906V26.817c-2.278-1.138-4.122-2.969-5.272-5.233H-4.11ZM17.866,69.195V24.145l1.298-.468c2.224-.801,3.965-2.526,4.774-4.734l.472-1.287h16.69l-.061,2.024c-.146,4.82-.605,9.565-1.363,14.103l-.127.759-.609.471c-5.082,3.929-7.996,9.849-7.996,16.243,0,1.766.227,3.523.674,5.222l.213.807-.434.713c-3.2,5.263-6.967,8.802-10.894,10.234l-2.637.962ZM21.794,26.817v36.314c2.017-1.426,3.99-3.62,5.821-6.489-.398-1.763-.599-3.57-.599-5.385,0-7.357,3.236-14.187,8.906-18.86.557-3.501.929-7.126,1.111-10.812h-9.967c-1.149,2.264-2.993,4.095-5.272,5.233ZM51.466,68.97c-9.767,0-17.713-7.946-17.713-17.713s7.946-17.713,17.713-17.713,17.713,7.946,17.713,17.713-7.946,17.713-17.713,17.713ZM51.466,37.471c-7.601,0-13.785,6.184-13.785,13.785s6.184,13.785,13.785,13.785,13.785-6.184,13.785-13.785-6.184-13.785-13.785-13.785ZM27.265,68.294l5.835-7.539,1.595,2.314,1.535,2.138-2.742.952-6.222,2.135ZM5.602,68.265l-6.174-2.102c-6.558-2.233-12.539-5.705-17.777-10.322l-1.142-1.007.691-1.357c.564-1.109.851-2.302.851-3.544,0-4.354-3.568-7.896-7.954-7.896-.621,0-1.246.074-1.859.22l-1.467.35-.717-1.327c-3.608-6.68-5.692-13.924-6.194-21.53l-.138-2.093H-10.984l.055,1.908c.383,13.389,3.123,26.02,7.715,35.567,1.454,3.024,3.079,5.706,4.829,7.972l3.987,5.162ZM-14.68,53.812c2.969,2.471,6.181,4.558,9.603,6.243-.581-1.031-1.14-2.105-1.677-3.221-4.605-9.573-7.436-22.027-8.032-35.249h-17.253c.63,5.813,2.274,11.378,4.901,16.589.411-.043.822-.065,1.233-.065,6.552,0,11.882,5.304,11.882,11.824,0,1.338-.221,2.637-.658,3.88ZM-25.904,55.02c-2.836,0-5.144-2.282-5.144-5.086s2.308-5.086,5.144-5.086,5.144,2.282,5.144,5.086-2.308,5.086-5.144,5.086ZM-25.904,48.775c-.671,0-1.216.52-1.216,1.158s.546,1.158,1.216,1.158,1.216-.52,1.216-1.158-.546-1.158-1.216-1.158ZM65.422,36.002l-2.132-1.509c-3.475-2.458-7.563-3.758-11.824-3.758-1.98,0-3.941.284-5.827.844l-2.862.85.353-2.965c.384-3.225.627-6.556.723-9.899l.055-1.908h25.29l-.136,2.091c-.305,4.716-1.242,9.355-2.782,13.787l-.858,2.467ZM51.466,26.807c4.191,0,8.242,1.055,11.858,3.071.786-2.704,1.334-5.479,1.638-8.293h-17.252c-.084,1.872-.213,3.735-.385,5.574,1.364-.234,2.749-.352,4.142-.352ZM16.461,21.338c-2.836,0-5.144-2.282-5.144-5.086s2.308-5.086,5.144-5.086,5.144,2.282,5.144,5.086-2.308,5.086-5.144,5.086ZM16.461,15.093c-.671,0-1.216.52-1.216,1.158s.546,1.158,1.216,1.158,1.216-.52,1.216-1.158-.546-1.158-1.216-1.158ZM8.512,14.847H-8.174l.062-2.024c.113-3.701.411-7.377.886-10.926l.192-1.438,1.431-.239C-1.76-.42,1.029-3.694,1.029-7.564c0-2.488-1.21-4.863-3.236-6.351l-1.192-.876.513-1.388c3.837-10.385,9.271-17.325,15.302-19.543l2.642-.972V8.359l-1.298.468c-2.224.801-3.964,2.526-4.774,4.733l-.472,1.288ZM-4.105,10.919H5.857c1.149-2.264,2.993-4.095,5.272-5.233V-30.617c-3.676,2.597-7.141,7.682-9.841,14.518,2.32,2.217,3.669,5.311,3.669,8.535C4.957-2.267,1.478,2.283-3.503,3.76c-.281,2.345-.482,4.742-.602,7.159ZM69.2,14.847h-25.293l-.055-1.908c-.383-13.389-3.123-26.021-7.715-35.567-1.451-3.017-3.072-5.693-4.816-7.954l-3.986-5.167,6.175,2.108c5.877,2.007,11.308,5.014,16.144,8.938l1.183.96-.635,1.384c-.472,1.03-.712,2.126-.712,3.257,0,4.354,3.568,7.896,7.954,7.896.728,0,1.455-.101,2.161-.299l1.451-.408.769,1.296c4.194,7.066,6.696,15.148,7.237,23.371l.137,2.093ZM47.708,10.919h17.252c-.704-6.418-2.694-12.688-5.816-18.319-.563.081-1.131.122-1.699.122-6.552,0-11.882-5.304-11.882-11.824,0-1.172.171-2.318.509-3.424-2.529-1.935-5.223-3.608-8.06-5.004.576,1.024,1.132,2.091,1.665,3.199,4.606,9.573,7.436,22.027,8.032,35.249ZM41.1,14.847h-16.689l-.472-1.288c-.81-2.207-2.55-3.932-4.774-4.733l-1.298-.468v-45.05l2.642.972c4.939,1.817,9.468,6.765,13.098,14.309C38.01-12.254,40.65-.096,41.039,12.824l.061,2.023ZM27.066,10.919h9.967c-.572-11.618-3.024-22.429-6.967-30.626-2.423-5.036-5.29-8.796-8.272-10.906V5.687c2.279,1.138,4.122,2.968,5.272,5.233ZM-10.981,14.847h-25.295l.136-2.092C-35.311.025-29.869-11.972-20.816-21.025c5.785-5.785,12.601-10.039,20.257-12.642l6.172-2.099-3.986,5.159c-2.841,3.677-5.298,8.345-7.302,13.872l-.44,1.215-1.29.076c-4.191.248-7.474,3.709-7.474,7.88,0,2.788,1.513,5.4,3.95,6.817l1.137.661-.179,1.303c-.52,3.795-.841,7.739-.956,11.722l-.055,1.908ZM-32.038,10.919H-14.782c.137-3.049.391-6.068.76-9.009-2.979-2.219-4.784-5.739-4.784-9.474,0-5.805,4.237-10.693,9.864-11.652,1.157-3.035,2.453-5.824,3.876-8.348-4.773,2.343-9.118,5.462-12.972,9.316C-25.919-10.367-30.843-.078-32.038,10.919ZM-6.925-2.477c-2.836,0-5.144-2.282-5.144-5.087s2.308-5.086,5.144-5.086S-1.78-10.369-1.78-7.564-4.088-2.477-6.925-2.477ZM-6.925-8.722c-.671,0-1.216.52-1.216,1.158s.546,1.159,1.216,1.159,1.216-.52,1.216-1.159-.546-1.158-1.216-1.158ZM57.444-14.015c-2.837,0-5.145-2.282-5.145-5.087s2.308-5.086,5.145-5.086,5.144,2.282,5.144,5.086-2.307,5.087-5.144,5.087ZM57.444-20.26c-.671,0-1.217.52-1.217,1.158s.546,1.159,1.217,1.159,1.216-.52,1.216-1.159-.545-1.158-1.216-1.158Z"/>
      <path class="cls-3" d="M50.401,60.804c-1.415,0-2.767-.551-3.759-1.543l-4.233-4.233c-1.007-1.007-1.562-2.346-1.562-3.771s.555-2.764,1.562-3.771c2.04-2.04,5.335-2.078,7.422-.115l2.654-3.544c.854-1.14,2.1-1.88,3.51-2.082,1.411-.203,2.815.157,3.955,1.011h0c1.14.854,1.88,2.101,2.082,3.511.203,1.41-.157,2.815-1.011,3.955l-6.34,8.466c-.92,1.226-2.337,1.993-3.892,2.103-.129.009-.259.014-.388.014ZM46.179,49.853c-.36,0-.719.137-.994.411-.265.265-.411.618-.411.993s.146.728.411.994l4.233,4.233c.277.277.674.419,1.091.388.417-.03.792-.227,1.027-.541l6.34-8.465c.225-.301.32-.671.266-1.042-.053-.371-.248-.7-.548-.925h0c-.301-.225-.67-.32-1.042-.266-.371.053-.7.248-.924.549l-5.369,7.169-3.087-3.087c-.274-.274-.634-.41-.993-.41Z"/>
      <g>
        <circle class="cls-2" cx="15.985" cy="16" r="14.998"/>
        <path class="cls-1" d="M24.621,23.043c-1.112.098-2.13-.357-3.118-.925-1.921-1.104-3.455-2.655-4.948-4.256-.076-.082-.131-.184-.206-.267-.23-.253-.426-.244-.649.012-1.41,1.62-2.965,3.088-4.748,4.286-1.474.99-3.107,1.433-4.886,1.046-1.794-.39-3.243-1.329-4.295-2.846-.89-1.284-1.325-2.721-1.23-4.274.07-1.154.427-2.243,1.062-3.233.62-.967,1.417-1.738,2.409-2.31,1.48-.853,3.068-1.176,4.731-.762,1.008.251,1.909.792,2.756,1.404,1.55,1.119,2.901,2.449,4.17,3.87.262.294.481.272.738-.027,1.324-1.537,2.766-2.954,4.483-4.048.721-.459,1.492-.871,2.291-1.167.947-.351,1.962-.254,2.931-.033,1.397.318,2.604,1.018,3.567,2.086,1.482,1.643,2.051,3.58,1.689,5.76-.34,2.046-1.43,3.609-3.198,4.696-1.198.737-2.402,1.026-3.549.987ZM24.789,21.774c.01.036.021.071.031.107.68-.19,1.402-.292,2.032-.588,1.441-.677,2.487-1.761,3.022-3.3.494-1.421.417-2.821-.232-4.151-.788-1.614-2.113-2.628-3.852-3.073-.733-.187-1.492-.238-2.224.004-.908.3-1.729.786-2.48,1.371-1.421,1.107-2.733,2.333-3.906,3.705-.217.254-.227.482-.004.73,1.475,1.637,3.025,3.192,4.904,4.372.821.516,1.687.938,2.708.824ZM7.288,21.79c.138,0,.275.004.413,0,1.054-.038,1.901-.595,2.729-1.148,1.645-1.097,3.007-2.515,4.334-3.963.413-.451.399-.479-.002-.928-1.43-1.597-2.951-3.096-4.776-4.243-.674-.423-1.377-.829-2.212-.857-2.423-.083-4.212,1.028-5.332,3.094-1.014,1.869-.821,3.804.365,5.545,1.053,1.546,2.578,2.402,4.481,2.5Z"/>
      </g>
    </g>
  </g>
</svg>