<?xml version="1.0" encoding="utf-8"?>
<!-- Generator: Adobe Illustrator 22.0.1, SVG Export Plug-In . SVG Version: 6.00 Build 0)  -->
<svg version="1.1" id="Layer_1" xmlns="http://www.w3.org/2000/svg" xmlns:xlink="http://www.w3.org/1999/xlink" x="0px" y="0px"
	 viewBox="0 0 64 64" style="enable-background:new 0 0 64 64;" xml:space="preserve">
<style type="text/css">
	.st0{fill:none;stroke:#E40076;stroke-width:3;stroke-miterlimit:10;}
	.st1{fill:#007EBB;}
</style>
<circle class="st0" cx="32" cy="32" r="29"/>
<g id="Icons">
	<g id="Color-" transform="translate(-702.000000, -265.000000)">
		<path id="LinkedIn" class="st1" d="M750.775,309.25h-7.415v-10.722c0-2.807-1.16-4.722-3.71-4.722
			c-1.951,0-3.036,1.293-3.541,2.539c-0.189,0.447-0.16,1.07-0.16,1.693v11.212h-7.346c0,0,0.095-18.993,0-20.719h7.346v3.251
			c0.434-1.422,2.781-3.451,6.527-3.451c4.647,0,8.299,2.98,8.299,9.398V309.25L750.775,309.25z M721.174,285.939h-0.047
			c-2.367,0-3.902-1.584-3.902-3.592c0-2.047,1.58-3.597,3.995-3.597c2.413,0,3.896,1.547,3.943,3.592
			C725.163,284.349,723.632,285.939,721.174,285.939L721.174,285.939L721.174,285.939z M718.071,288.531h6.539v20.719h-6.539
			V288.531L718.071,288.531z"/>
	</g>
</g>
</svg>
