<?xml version="1.0" encoding="utf-8"?>
<!-- Generator: Adobe Illustrator 22.0.1, SVG Export Plug-In . SVG Version: 6.00 Build 0)  -->
<svg version="1.1" id="Layer_1" xmlns="http://www.w3.org/2000/svg" xmlns:xlink="http://www.w3.org/1999/xlink" x="0px" y="0px"
	 viewBox="0 0 64 64" style="enable-background:new 0 0 64 64;" xml:space="preserve">
<style type="text/css">
	.st0{fill:#007EBB;}
</style>
<g id="Icons">
	<g id="Color-" transform="translate(-702.000000, -265.000000)">
		<path id="LinkedIn" class="st0" d="M763,323.364h-12.819v-18.536c0-4.852-2.005-8.164-6.414-8.164
			c-3.373,0-5.248,2.235-6.121,4.389c-0.327,0.773-0.276,1.85-0.276,2.927v19.383H724.67c0,0,0.164-32.834,0-35.819h12.699v5.621
			c0.75-2.458,4.808-5.966,11.284-5.966c8.034,0,14.347,5.152,14.347,16.247V323.364L763,323.364z M711.827,283.064h-0.082
			c-4.092,0-6.745-2.738-6.745-6.209c0-3.538,2.732-6.219,6.906-6.219c4.171,0,6.735,2.674,6.817,6.209
			C718.722,280.316,716.076,283.064,711.827,283.064L711.827,283.064L711.827,283.064z M706.463,287.545h11.305v35.819h-11.305
			V287.545L706.463,287.545z"/>
	</g>
</g>
</svg>
