<?xml version="1.0" encoding="utf-8"?>
<!-- Generator: Adobe Illustrator 26.3.1, SVG Export Plug-In . SVG Version: 6.00 Build 0)  -->
<svg version="1.1" id="Layer_1" xmlns="http://www.w3.org/2000/svg" xmlns:xlink="http://www.w3.org/1999/xlink" x="0px" y="0px"
	 width="116px" height="35px" viewBox="0 0 116 35" style="enable-background:new 0 0 116 35;" xml:space="preserve">
<style type="text/css">
	.st0{fill:#A3A3A3;}
	.st1{fill:#FFFFFF;}
	.st2{fill:#CA0F30;}
	.st3{fill-rule:evenodd;clip-rule:evenodd;fill:#FFFFFF;}
</style>
<path d="M111.356,34.574H4.644c-2.348,0-4.269-1.921-4.269-4.269V4.694c0-2.348,1.921-4.269,4.269-4.269h106.713
	c2.348,0,4.269,1.921,4.269,4.269v25.611C115.625,32.653,113.704,34.574,111.356,34.574z"/>
<path class="st0" d="M111.356,1.109c1.977,0,3.586,1.609,3.586,3.586v25.611c0,1.977-1.608,3.586-3.586,3.586H4.644
	c-1.977,0-3.586-1.609-3.586-3.586V4.694c0-1.977,1.608-3.586,3.586-3.586H111.356 M111.356,0.426H4.644
	c-2.348,0-4.269,1.921-4.269,4.269v25.611c0,2.348,1.921,4.269,4.269,4.269h106.713c2.348,0,4.269-1.921,4.269-4.269V4.694
	C115.625,2.347,113.704,0.426,111.356,0.426L111.356,0.426z"/>
<path id="AppGallery_3_" class="st1" d="M39.34,21.938l-1.916-5.176l-1.907,5.176H39.34z M32.661,25.779l3.971-10.406h1.592
	l3.971,10.406h-1.467l-0.949-2.671h-4.685l-0.949,2.671H32.661z M44.894,24.61v4.138h-1.282V17.973h1.282v1.178
	c0.271-0.464,0.61-0.806,1.02-1.029c0.416-0.229,0.907-0.342,1.475-0.342c0.949,0,1.719,0.378,2.311,1.133
	c0.598,0.75,0.895,1.74,0.895,2.972c0,1.226-0.297,2.213-0.895,2.972c-0.592,0.75-1.362,1.124-2.311,1.124
	c-0.568,0-1.059-0.11-1.475-0.333C45.503,25.419,45.164,25.071,44.894,24.61z M49.261,21.885c0-0.943-0.196-1.684-0.589-2.222
	c-0.381-0.538-0.91-0.809-1.592-0.809c-0.678,0-1.217,0.271-1.609,0.809c-0.387,0.538-0.58,1.279-0.58,2.222
	c0,0.943,0.193,1.684,0.58,2.222c0.393,0.532,0.928,0.8,1.609,0.8c0.678,0,1.211-0.268,1.592-0.8
	C49.064,23.569,49.261,22.828,49.261,21.885z M53.964,24.61v4.138h-1.291V17.973h1.291v1.178c0.271-0.464,0.607-0.806,1.011-1.029
	c0.416-0.229,0.91-0.342,1.484-0.342c0.943,0,1.711,0.378,2.302,1.133c0.598,0.75,0.895,1.74,0.895,2.972
	c0,1.226-0.297,2.213-0.895,2.972c-0.592,0.75-1.359,1.124-2.302,1.124c-0.574,0-1.068-0.11-1.484-0.333
	C54.571,25.419,54.231,25.071,53.964,24.61z M58.322,21.885c0-0.943-0.196-1.684-0.589-2.222c-0.381-0.538-0.91-0.809-1.592-0.809
	c-0.678,0-1.217,0.271-1.609,0.809c-0.381,0.538-0.571,1.279-0.571,2.222c0,0.943,0.19,1.684,0.571,2.222
	c0.393,0.532,0.928,0.8,1.609,0.8c0.678,0,1.211-0.268,1.592-0.8C58.125,23.569,58.322,22.828,58.322,21.885z M68.885,24.294v-2.793
	h-2.294v-1.16h3.692v4.474c-0.544,0.387-1.145,0.678-1.803,0.878c-0.651,0.193-1.348,0.289-2.091,0.289
	c-1.63,0-2.903-0.476-3.823-1.425c-0.913-0.949-1.371-2.273-1.371-3.971s0.458-3.022,1.371-3.971
	c0.919-0.955,2.195-1.434,3.823-1.434c0.678,0,1.321,0.086,1.925,0.256c0.616,0.164,1.181,0.411,1.696,0.738v1.502
	c-0.521-0.446-1.074-0.779-1.66-1.003c-0.586-0.223-1.202-0.333-1.844-0.333c-1.27,0-2.228,0.354-2.874,1.062
	c-0.634,0.714-0.949,1.776-0.949,3.18c0,1.404,0.315,2.463,0.949,3.171c0.646,0.708,1.603,1.062,2.874,1.062
	c0.497,0,0.943-0.042,1.336-0.122C68.228,24.61,68.576,24.476,68.885,24.294z M77.578,21.849h-1.273
	c-1.038,0-1.755,0.119-2.154,0.36c-0.399,0.235-0.598,0.64-0.598,1.214c0,0.458,0.149,0.821,0.449,1.089
	c0.297,0.265,0.705,0.396,1.223,0.396c0.714,0,1.285-0.253,1.713-0.756c0.428-0.503,0.643-1.175,0.643-2.014v-0.289H77.578z
	 M78.86,21.323v4.456h-1.282v-1.187c-0.292,0.476-0.657,0.827-1.089,1.056c-0.44,0.223-0.976,0.333-1.609,0.333
	c-0.797,0-1.434-0.223-1.907-0.669c-0.47-0.452-0.702-1.056-0.702-1.812c0-0.872,0.292-1.535,0.878-1.987
	c0.592-0.446,1.47-0.669,2.636-0.669h1.794v-0.122c0-0.592-0.193-1.05-0.58-1.371c-0.387-0.321-0.931-0.482-1.633-0.482
	c-0.446,0-0.878,0.054-1.3,0.158c-0.422,0.104-0.83,0.268-1.223,0.482v-1.187c0.47-0.181,0.925-0.315,1.371-0.405
	c0.44-0.095,0.866-0.14,1.282-0.14c1.13,0,1.975,0.292,2.532,0.878C78.583,19.246,78.86,20.133,78.86,21.323z M81.504,25.779V14.936
	h1.282v10.843H81.504z M85.47,25.779V14.936h1.282v10.843H85.47z M96.075,21.552v0.634h-5.896c0.054,0.878,0.315,1.553,0.791,2.02
	c0.479,0.458,1.145,0.684,1.996,0.684c0.491,0,0.967-0.06,1.425-0.176c0.47-0.122,0.928-0.303,1.38-0.544v1.214
	c-0.458,0.193-0.928,0.342-1.416,0.449c-0.479,0.098-0.97,0.149-1.467,0.149c-1.243,0-2.228-0.363-2.963-1.089
	c-0.726-0.72-1.089-1.699-1.089-2.936c0-1.282,0.345-2.297,1.038-3.04c0.69-0.756,1.624-1.133,2.793-1.133
	c1.05,0,1.877,0.339,2.487,1.02C95.769,19.475,96.075,20.392,96.075,21.552z M90.215,21.183h4.578
	c-0.012-0.702-0.211-1.264-0.598-1.687c-0.381-0.416-0.886-0.625-1.52-0.625c-0.714,0-1.288,0.202-1.722,0.607
	C90.524,19.883,90.28,20.451,90.215,21.183z M102.649,17.851l0.009,1.318c-0.146-0.083-0.303-0.143-0.476-0.184
	c-0.173-0.042-0.354-0.062-0.553-0.062c-0.726,0-1.285,0.238-1.678,0.711c-0.387,0.47-0.58,1.145-0.58,2.029v4.114h-1.282v-7.803
	h1.282v1.214c0.271-0.476,0.622-0.827,1.056-1.056c0.434-0.235,0.958-0.351,1.574-0.351c0.089,0,0.187,0.009,0.297,0.027
	C102.402,17.812,102.521,17.827,102.649,17.851z M110.681,17.973l-3.427,8.526c-0.363,0.931-0.717,1.541-1.062,1.827
	c-0.345,0.283-0.806,0.422-1.38,0.422h-1.029v-1.071h0.756c0.351,0,0.628-0.086,0.827-0.256c0.193-0.164,0.408-0.559,0.643-1.187
	l0.238-0.58l-3.165-7.681h1.362l2.442,6.098l2.433-6.098H110.681z"/>
<path id="EXPLORE_IT_ON_3_" class="st1" d="M32.581,11.717v-5.37h3.391v0.607h-2.671v1.592h2.558v0.616h-2.558v1.943h2.743v0.616
	h-3.463V11.717z M38.646,8.852l-1.669-2.505h0.782l1.336,1.996l1.336-1.996h0.782l-1.722,2.576l1.835,2.793h-0.782l-1.502-2.285
	l-1.529,2.285h-0.782L38.646,8.852z M43.918,6.945h-0.913v2.014h0.913c0.339,0,0.604-0.086,0.791-0.256
	c0.181-0.176,0.274-0.428,0.274-0.756c0-0.315-0.092-0.562-0.274-0.738C44.522,7.035,44.257,6.945,43.918,6.945z M42.285,11.717
	v-5.37h1.633c0.604,0,1.059,0.134,1.371,0.405c0.303,0.277,0.458,0.672,0.458,1.196c0,0.532-0.152,0.934-0.458,1.205
	c-0.309,0.271-0.767,0.405-1.371,0.405h-0.913v2.163h-0.72V11.717z M46.723,11.717v-5.37h0.729v4.754h2.618v0.616H46.723z
	 M52.75,6.841c-0.527,0-0.949,0.196-1.264,0.589c-0.303,0.393-0.458,0.928-0.458,1.609c0,0.672,0.152,1.211,0.458,1.609
	c0.315,0.393,0.738,0.589,1.264,0.589c0.527,0,0.943-0.196,1.246-0.589c0.309-0.399,0.467-0.934,0.467-1.609
	c0-0.678-0.155-1.217-0.467-1.609C53.693,7.035,53.277,6.841,52.75,6.841z M52.75,6.252c0.75,0,1.351,0.253,1.803,0.756
	s0.675,1.181,0.675,2.029c0,0.851-0.226,1.526-0.675,2.029c-0.452,0.503-1.053,0.756-1.803,0.756c-0.756,0-1.362-0.253-1.821-0.756
	c-0.452-0.503-0.675-1.181-0.675-2.029c0-0.851,0.226-1.526,0.675-2.029C51.388,6.502,51.994,6.252,52.75,6.252z M58.911,9.194
	c0.158,0.054,0.309,0.167,0.458,0.342c0.146,0.17,0.295,0.408,0.449,0.711l0.738,1.467h-0.782l-0.684-1.38
	c-0.181-0.357-0.354-0.595-0.518-0.711c-0.17-0.116-0.399-0.176-0.684-0.176h-0.791v2.267h-0.729V6.347h1.642
	c0.616,0,1.074,0.128,1.38,0.387c0.297,0.253,0.449,0.64,0.449,1.16c0,0.339-0.08,0.622-0.238,0.845
	C59.437,8.959,59.211,9.114,58.911,9.194z M58.006,6.945h-0.913v1.907h0.913c0.351,0,0.616-0.083,0.791-0.247
	c0.181-0.164,0.274-0.402,0.274-0.711c0-0.315-0.092-0.553-0.274-0.711C58.622,7.026,58.358,6.945,58.006,6.945z M61.487,11.717
	v-5.37h3.391v0.607h-2.662v1.592h2.558v0.616h-2.558v1.943h2.734v0.616h-3.463V11.717z M68.481,11.717v-5.37h0.729v5.37H68.481z
	 M69.915,6.954V6.347h4.543v0.607H72.55v4.763h-0.729V6.954H69.915z M79.678,6.841c-0.527,0-0.946,0.196-1.255,0.589
	c-0.309,0.393-0.467,0.928-0.467,1.609c0,0.672,0.155,1.211,0.467,1.609c0.309,0.393,0.729,0.589,1.255,0.589
	c0.527,0,0.946-0.196,1.255-0.589c0.303-0.399,0.458-0.934,0.458-1.609c0-0.678-0.152-1.217-0.458-1.609
	C80.624,7.035,80.204,6.841,79.678,6.841z M79.678,6.252c0.756,0,1.359,0.253,1.812,0.756c0.452,0.503,0.675,1.181,0.675,2.029
	c0,0.851-0.226,1.526-0.675,2.029c-0.449,0.503-1.056,0.756-1.812,0.756s-1.359-0.253-1.812-0.756
	c-0.452-0.503-0.675-1.181-0.675-2.029c0-0.851,0.226-1.526,0.675-2.029C78.318,6.502,78.922,6.252,79.678,6.252z M83.298,11.717
	v-5.37h0.976l2.383,4.492V6.347h0.711v5.37h-0.985L84,7.225v4.492H83.298z"/>
<path id="Path_5_3_" class="st2" d="M23.389,6.365h-9.561c-4.51,0-6.161,1.642-6.161,6.152v9.561c0,4.51,1.651,6.161,6.161,6.161
	h9.561c4.501,0,6.152-1.651,6.152-6.161v-9.561C29.541,8.007,27.898,6.365,23.389,6.365z"/>
<path id="Path_6_3_" class="st3" d="M17.002,19.565l-0.265,0.589h-0.589l1.255-2.856h0.509l1.255,2.856h-0.607l-0.256-0.589H17.002z
	 M17.21,19.047h0.878l-0.44-1.02L17.21,19.047z M26.527,17.298h0.58v2.856h-0.58V17.298z M24.251,19.636h1.592v0.518H23.68v-2.856
	h2.1v0.527h-1.529v0.58h1.056v0.527h-1.056V19.636z M22.606,17.298h0.607l-0.994,2.865h-0.491l-0.651-1.88l-0.651,1.88H19.95
	l-1.003-2.865h0.625l0.634,1.969l0.643-1.969h0.476l0.651,1.969L22.606,17.298z M15.27,17.298h0.58v1.618
	c0,0.818-0.449,1.291-1.24,1.291c-0.773,0-1.223-0.467-1.223-1.273v-1.633h0.58v1.618c0,0.482,0.229,0.738,0.651,0.738
	c0.422,0,0.651-0.256,0.651-0.72V17.298z M12.001,17.298h0.58v2.865h-0.58v-1.169h-1.309v1.169h-0.58v-2.865h0.58v1.151h1.309
	V17.298z M18.608,13.66c-2.014,0-3.638-1.633-3.638-3.638h0.509c0,1.722,1.407,3.121,3.129,3.121s3.129-1.398,3.129-3.121h0.509
	C22.246,12.023,20.613,13.66,18.608,13.66z"/>
</svg>
