<?xml version="1.0" encoding="UTF-8"?>
<svg xmlns="http://www.w3.org/2000/svg" width="645.073" height="148.098" version="1.1" viewBox="0 0 645.073 148.098">
  <defs>
    <style>
      .cls-1 {
        fill: #ce4870;
      }
    </style>
  </defs>
  <!-- Generator: Adobe Illustrator 28.7.1, SVG Export Plug-In . SVG Version: 1.2.0 Build 142)  -->
  <g>
    <g id="Layer_1">
      <g>
        <polygon class="cls-1" points="6.527 29.779 25.755 29.779 25.755 78.679 36.53 78.679 36.53 29.779 55.758 29.779 55.758 20.661 6.527 20.661 6.527 29.779"/>
        <polygon class="cls-1" points="103 44.615 72.997 44.615 72.997 20.661 62.222 20.661 62.222 78.679 72.997 78.679 72.997 53.814 103 53.814 103 78.679 113.692 78.679 113.692 20.661 103 20.661 103 44.615"/>
        <polygon class="cls-1" points="138.474 53.648 166.488 53.648 166.488 44.78 138.474 44.78 138.474 29.779 170.052 29.779 170.052 20.661 127.699 20.661 127.699 78.679 171.212 78.679 171.212 69.562 138.474 69.562 138.474 53.648"/>
        <polygon class="cls-1" points="226.843 20.581 208.363 20.581 208.363 120.096 278.877 120.096 278.877 104.458 226.843 104.458 226.843 20.581"/>
        <polygon class="cls-1" points="528.086 88.081 473.21 20.581 457.998 20.581 457.998 120.096 476.338 120.096 476.338 52.615 531.073 120.096 546.284 120.096 546.284 20.581 528.086 20.581 528.086 88.081"/>
        <path class="cls-1" d="M635.35,79.082c-2.133-3.363-4.954-6.064-8.459-8.103-3.507-2.037-7.347-3.696-11.515-4.976-4.173-1.279-8.388-2.392-12.653-3.341-4.265-.947-8.127-1.942-11.587-2.986-3.461-1.041-6.255-2.487-8.388-4.336-2.133-1.848-3.199-4.288-3.199-7.322,0-2.463.732-4.714,2.204-6.753,1.47-2.037,3.814-3.672,7.038-4.906,3.22-1.23,7.343-1.848,12.368-1.848,4.358,0,8.907.64,13.648,1.919,4.737,1.28,9.334,3.248,13.789,5.901l5.829-14.359c-4.36-2.844-9.477-5.023-15.353-6.54-5.877-1.516-11.801-2.275-17.771-2.275-9.1,0-16.612,1.351-22.534,4.052-5.925,2.701-10.332,6.303-13.222,10.804-2.893,4.503-4.337,9.454-4.337,14.857,0,5.308,1.066,9.667,3.199,13.078,2.132,3.412,4.952,6.138,8.459,8.175,3.506,2.039,7.368,3.72,11.587,5.047,4.215,1.329,8.434,2.441,12.653,3.341,4.215.902,8.055,1.897,11.516,2.986,3.458,1.09,6.276,2.559,8.459,4.407,2.179,1.848,3.269,4.289,3.269,7.322,0,2.465-.76,4.669-2.273,6.611-1.518,1.944-3.887,3.482-7.109,4.62-3.222,1.137-7.441,1.706-12.653,1.706-6.161,0-12.179-1.041-18.054-3.128-5.877-2.083-10.804-4.691-14.786-7.819l-6.398,14.359c4.265,3.507,9.928,6.376,16.99,8.601,7.059,2.226,14.477,3.342,22.248,3.342,9.099,0,16.635-1.351,22.604-4.052,5.972-2.701,10.401-6.301,13.293-10.805,2.888-4.5,4.334-9.405,4.334-14.714,0-5.211-1.066-9.5-3.197-12.866Z"/>
        <path class="cls-1" d="M324.254,8.687h-16.918c-5.497,8.436-9.763,18.364-12.796,29.784-3.033,11.422-4.548,23.67-4.548,36.749s1.516,25.283,4.548,36.607c3.033,11.325,7.299,21.3,12.796,29.925h16.918c-5.783-10.33-10.023-20.946-12.725-31.845-2.701-10.897-4.051-22.462-4.051-34.688s1.35-23.788,4.051-34.688c2.702-10.898,6.942-21.513,12.725-31.845Z"/>
        <path class="cls-1" d="M365.904,40.958c2.844,0,5.237-.995,7.181-2.985,1.942-1.991,2.914-4.408,2.914-7.251s-.972-5.235-2.914-7.179c-1.943-1.942-4.336-2.915-7.181-2.915-2.938,0-5.354.973-7.25,2.915-1.897,1.944-2.842,4.336-2.842,7.179s.945,5.26,2.842,7.251c1.896,1.99,4.312,2.985,7.25,2.985Z"/>
        <path class="cls-1" d="M386.092,56.81c-5.783-3.27-12.37-4.906-19.76-4.906-7.584,0-14.336,1.684-20.26,5.047-5.923,3.366-10.568,7.962-13.931,13.79-3.365,5.829-5.046,12.536-5.046,20.116s1.728,14.288,5.189,20.116c3.458,5.829,8.337,10.427,14.643,13.791,6.301,3.365,13.669,5.046,22.105,5.046,6.633,0,12.534-1.041,17.702-3.128,5.164-2.083,9.5-5.118,13.008-9.098l-9.668-11.089c-2.653,2.751-5.686,4.834-9.097,6.255-3.413,1.422-7.252,2.133-11.516,2.133-5.025,0-9.433-.971-13.222-2.915-3.793-1.941-6.707-4.666-8.743-8.174-1.286-2.209-2.164-4.627-2.639-7.251h59.576c.092-.757.164-1.634.212-2.629.046-.996.071-1.824.071-2.488,0-8.054-1.658-15.021-4.975-20.898-3.319-5.875-7.869-10.449-13.648-13.719ZM347.138,77.068c1.799-3.412,4.383-6.042,7.748-7.89,3.365-1.848,7.181-2.772,11.446-2.772,4.358,0,8.148.924,11.373,2.772,3.22,1.848,5.758,4.456,7.605,7.819,1.297,2.36,2.104,4.946,2.444,7.749h-43.028c.393-2.797,1.19-5.36,2.413-7.677Z"/>
        <path class="cls-1" d="M424.478,8.687h-16.918c5.875,10.332,10.166,20.947,12.865,31.845,2.702,10.9,4.053,22.462,4.053,34.688s-1.352,23.791-4.053,34.688c-2.7,10.898-6.99,21.514-12.865,31.845h16.918c5.687-8.625,10.021-18.601,13.008-29.925,2.985-11.324,4.478-23.528,4.478-36.607s-1.493-25.327-4.478-36.749c-2.987-11.42-7.321-21.348-13.008-29.784Z"/>
      </g>
    </g>
  </g>
</svg>