<?xml version="1.0" encoding="utf-8"?>
<!-- Generator: Adobe Illustrator 26.3.1, SVG Export Plug-In . SVG Version: 6.00 Build 0)  -->
<svg version="1.1" id="Layer_1" xmlns="http://www.w3.org/2000/svg" xmlns:xlink="http://www.w3.org/1999/xlink" x="0px" y="0px"
	 width="116px" height="35px" viewBox="0 0 116 35" style="enable-background:new 0 0 116 35;" xml:space="preserve">
<style type="text/css">
	.st0{fill:#A3A3A3;}
	.st1{fill:#FFFFFF;}
	.st2{fill:#4285F4;}
	.st3{fill:#EA4335;}
	.st4{fill:#FBBC04;}
	.st5{fill:#34A853;}
</style>
<path d="M4.625,0.42h106.75c2.358,0,4.27,1.912,4.27,4.27v25.62c0,2.358-1.912,4.27-4.27,4.27H4.625c-2.358,0-4.27-1.912-4.27-4.27
	V4.69C0.355,2.332,2.267,0.42,4.625,0.42z"/>
<path class="st0" d="M111.355,1.1c1.977,0,3.58,1.603,3.58,3.58v0.01v25.62c0.006,1.977-1.593,3.584-3.57,3.59h-0.01H4.625
	c-1.983,0-3.59-1.607-3.59-3.59V4.69c0-1.983,1.607-3.59,3.59-3.59H111.355 M111.355,0.42H4.625C2.269,0.425,0.36,2.334,0.355,4.69
	v25.62c0.005,2.356,1.914,4.265,4.27,4.27h106.73c2.356-0.006,4.265-1.914,4.27-4.27V4.69C115.62,2.334,113.711,0.425,111.355,0.42z
	"/>
<path class="st1" d="M40.845,9.17c0.03,0.632-0.198,1.249-0.63,1.71c-0.491,0.508-1.174,0.784-1.88,0.76
	c-1.469,0.006-2.664-1.181-2.67-2.65l0-0.03c-0.011-1.469,1.171-2.669,2.64-2.68l0.05,0c0.363,0,0.722,0.067,1.06,0.2
	c0.314,0.123,0.595,0.318,0.82,0.57l-0.47,0.47c-0.164-0.198-0.373-0.352-0.61-0.45c-0.254-0.104-0.526-0.158-0.8-0.16
	c-0.532-0.003-1.043,0.206-1.42,0.58c-0.387,0.39-0.597,0.921-0.58,1.47c-0.019,0.542,0.183,1.069,0.56,1.46
	c0.377,0.374,0.888,0.583,1.42,0.58c0.461,0.013,0.912-0.14,1.27-0.43c0.336-0.294,0.547-0.705,0.59-1.15h-1.84V8.78h2.48
	C40.848,8.91,40.852,9.04,40.845,9.17z"/>
<polygon class="st1" points="44.785,6.42 44.785,7.05 42.455,7.05 42.455,8.65 44.555,8.65 44.555,9.27 42.455,9.27 42.455,10.89 
	44.785,10.89 44.785,11.52 41.785,11.52 41.785,6.42 "/>
<polygon class="st1" points="47.565,7.03 47.565,11.52 46.905,11.52 46.905,7.03 45.475,7.03 45.475,6.42 48.995,6.42 48.995,7.05 
	"/>
<rect x="51.545" y="6.42" class="st1" width="0.65" height="5.1"/>
<polygon class="st1" points="55.115,7.03 55.115,11.52 54.465,11.52 54.465,7.03 53.025,7.03 53.025,6.42 56.555,6.42 56.555,7.05 
	"/>
<path class="st1" d="M63.975,8.96c0.016,0.71-0.259,1.396-0.76,1.9c-0.491,0.511-1.172,0.793-1.88,0.78
	c-0.706,0.016-1.385-0.268-1.87-0.78c-0.505-0.501-0.781-1.189-0.76-1.9c-0.021-0.711,0.255-1.399,0.76-1.9
	c1.026-1.036,2.698-1.043,3.733-0.017l0.017,0.017C63.714,7.565,63.989,8.25,63.975,8.96z M59.375,8.96
	c-0.012,0.541,0.189,1.066,0.56,1.46c0.778,0.762,2.022,0.762,2.8,0c0.38-0.393,0.582-0.924,0.56-1.47
	c0.022-0.546-0.18-1.077-0.56-1.47c-0.778-0.762-2.022-0.762-2.8,0c-0.384,0.396-0.592,0.929-0.58,1.48H59.375z"/>
<polygon class="st1" points="65.555,11.52 64.895,11.52 64.895,6.42 65.695,6.42 68.185,10.42 68.185,9.42 68.185,6.42 68.845,6.42 
	68.845,11.52 68.155,11.52 65.555,7.34 65.555,8.34 "/>
<path class="st1" d="M58.545,19c-2.005,0.005-3.625,1.635-3.62,3.64c0.006,2.005,1.635,3.626,3.64,3.62
	c2.001-0.005,3.62-1.629,3.62-3.63c0.028-1.977-1.552-3.602-3.529-3.63L58.545,19z M58.545,24.83
	c-1.217,0.088-2.276-0.827-2.364-2.044s0.827-2.276,2.044-2.364c1.217-0.088,2.276,0.827,2.364,2.044l0.006,0.164
	c0.056,1.158-0.839,2.143-1.997,2.198L58.545,24.83z M50.545,19c-2.005,0.011-3.621,1.645-3.61,3.65s1.645,3.621,3.65,3.61
	c1.997-0.011,3.61-1.633,3.61-3.63c0.033-1.971-1.538-3.596-3.509-3.63l-0.101,0H50.545z M50.545,24.83
	c-1.217,0.088-2.276-0.827-2.364-2.044s0.827-2.276,2.044-2.364c1.217-0.088,2.276,0.827,2.364,2.044l0.006,0.164
	c0.056,1.158-0.837,2.143-1.996,2.199l-0.014,0.001H50.545z M41.085,20.11v1.54h3.69c-0.053,0.723-0.349,1.407-0.84,1.94
	c-0.748,0.762-1.783,1.173-2.85,1.13c-2.264,0-4.1-1.836-4.1-4.1s1.836-4.1,4.1-4.1c1.036-0.015,2.035,0.38,2.78,1.1l1.09-1.09
	c-1.029-1.016-2.424-1.574-3.87-1.55c-3.115,0-5.64,2.524-5.641,5.639c0,3.115,2.524,5.64,5.639,5.641h0.001
	c1.479,0.062,2.913-0.514,3.94-1.58c0.898-0.983,1.376-2.279,1.33-3.61c0.004-0.335-0.023-0.67-0.08-1L41.085,20.11z M79.775,21.31
	c-0.445-1.345-1.684-2.268-3.1-2.31c-1.905,0.008-3.443,1.56-3.435,3.465l0.005,0.165c-0.044,1.96,1.509,3.585,3.469,3.629
	l0.131,0.001c1.206-0.004,2.331-0.607,3-1.61l-1.24-0.83c-0.377,0.628-1.058,1.008-1.79,1c-0.757,0.031-1.456-0.406-1.76-1.1l4.86-2
	L79.775,21.31z M74.865,22.52c-0.057-1.103,0.792-2.043,1.895-2.1l0.005,0c0.563-0.034,1.093,0.268,1.35,0.77L74.865,22.52z
	 M70.865,26.04h1.6V15.36h-1.6V26.04z M68.355,19.81h-0.06c-0.495-0.544-1.205-0.841-1.94-0.81c-2.005,0-3.63,1.625-3.63,3.63
	c0,2.005,1.625,3.63,3.63,3.63c0.723,0.011,1.414-0.296,1.89-0.84h0.11v0.53c0,1.39-0.74,2.13-1.94,2.13
	c-0.816-0.016-1.54-0.527-1.83-1.29l-1.44,0.63c0.549,1.283,1.814,2.112,3.21,2.1c1.87,0,3.45-1.1,3.45-3.78v-6.52h-1.45V19.81z
	 M66.525,24.81c-1.148-0.043-2.044-1.008-2.002-2.156l0.002-0.034c-0.067-1.152,0.812-2.141,1.965-2.208l0.035-0.002
	c1.104,0.027,1.977,0.944,1.951,2.048l-0.01,0.162c0.116,1.098-0.68,2.083-1.779,2.199l-0.211,0.011L66.525,24.81z M87.345,15.34
	h-3.87v10.7h1.6v-4.05h2.22c1.831,0.101,3.397-1.302,3.497-3.133c0.101-1.831-1.302-3.397-3.133-3.497
	c-0.121-0.007-0.243-0.007-0.364,0L87.345,15.34z M87.345,20.49h-2.27v-3.64h2.28c1.011,0,1.83,0.819,1.831,1.829
	c0,1.011-0.819,1.83-1.829,1.831h-0.001L87.345,20.49z M97.195,18.96c-1.19-0.063-2.305,0.585-2.84,1.65l1.41,0.59
	c0.516-0.798,1.58-1.027,2.378-0.511c0.388,0.251,0.659,0.648,0.752,1.101v0.11c-0.512-0.269-1.082-0.41-1.66-0.41
	c-1.52,0-3.08,0.84-3.08,2.4c0.063,1.363,1.218,2.417,2.581,2.354l0.069-0.004c0.797,0.045,1.558-0.336,2-1v0.82h1.54v-4.13
	c0.022-1.613-1.267-2.938-2.88-2.96c-0.093-0.001-0.187,0.002-0.28,0.01L97.195,18.96z M97.005,24.81c-0.52,0-1.25-0.26-1.25-0.91
	c0-0.82,0.9-1.14,1.69-1.14c0.507-0.016,1.009,0.109,1.45,0.36c-0.107,0.97-0.924,1.706-1.9,1.71L97.005,24.81z M106.005,19.19
	l-1.82,4.63h-0.06l-1.89-4.63h-1.72l2.84,6.49l-1.62,3.6h1.67l4.38-10.07L106.005,19.19z M91.675,26.04h1.6V15.36h-1.6V26.04z"/>
<path class="st2" d="M8.935,8.5c-0.053,0.209-0.073,0.425-0.06,0.64v16.77c-0.01,0.218,0.01,0.437,0.06,0.65l9.42-9.24L8.935,8.5z"
	/>
<path class="st3" d="M17.815,17.21l-8.88,9.29c0.308,1.043,1.262,1.762,2.35,1.77c0.436,0.008,0.864-0.114,1.23-0.35l10.24-5.83
	L17.815,17.21z"/>
<path class="st4" d="M27.175,15.42L27.175,15.42l-4.42-2.57l-4.94,4.36l5,4.88l4.42-2.47c0.781-0.422,1.274-1.232,1.29-2.12
	C28.445,16.626,27.94,15.848,27.175,15.42z"/>
<path class="st5" d="M17.815,17.263l4.94-4.413l-10.18-5.76c-0.385-0.244-0.834-0.369-1.29-0.36c-1.094-0.012-2.059,0.715-2.35,1.77
	L17.815,17.263z"/>
</svg>
