<?xml version="1.0" encoding="UTF-8"?>
<svg xmlns="http://www.w3.org/2000/svg" version="1.1" viewBox="0 0 771.25 331.74">
  <defs>
    <style>
      .cls-1, .cls-2 {
        fill: #ed0180;
      }

      .cls-3 {
        fill: #8dc63f;
      }

      .cls-2 {
        font-family: ArcaMajora3-Bold, 'Arca Majora 3';
        font-size: 67.19px;
        font-weight: 700;
      }
    </style>
  </defs>
  <!-- Generator: Adobe Illustrator 28.6.0, SVG Export Plug-In . SVG Version: 1.2.0 Build 709)  -->
  <g>
    <g id="Layer_1">
      <polygon class="cls-3" points="5.34 118.46 91.62 118.46 0 242.9 0 258.02 140.33 258.02 140.33 231.3 45.96 231.3 135.44 106.4 135.44 106.4 135.44 106.24 135.59 106.09 135.44 106.09 135.44 90.82 5.34 90.82 5.34 118.46"/>
      <path class="cls-3" d="M367.99,121.66h48.25c17.71-.15,32.37,7.63,31,31.61v104.75h31.3v-108.87c.15-42.6-28.1-58.33-58.79-58.33h-84.74v167.35h32.98V121.66Z"/>
      <path class="cls-3" d="M491.37,174.8c0,47.95,43.21,86.88,96.35,86.88,19.09,0,37.72-5.19,54.05-15.12h.31v-68.41h-31.61v51.76c-6.57,1.98-13.28,2.9-20.16,2.9-36.04,0-65.35-26.57-65.35-59.09s29.32-59.09,65.35-59.09c13.9,0,27.64,4.12,39.24,11.91l12.52-23.51c-16.34-10.08-35.12-15.27-54.36-15.27-52.98,0-96.35,39.09-96.35,86.88"/>
      <path class="cls-3" d="M320.2,174.95c0-48.1-38.94-87.19-87.04-87.19s-87.19,38.94-87.19,87.04c0,45.35,34.81,83.07,80.01,86.88v-30.69c-31-3.97-52.98-32.37-49.01-63.37,3.97-31,32.37-52.98,63.37-49.01,31,3.97,52.98,32.37,49.01,63.37-3.21,25.5-23.36,45.66-49.01,49.01v30.69c45.2-3.82,79.86-41.53,80.01-86.88"/>
      <path class="cls-1" d="M707.88,0c-35,0-63.36,28.37-63.36,63.36s28.37,63.36,63.36,63.36,63.36-28.37,63.36-63.36S742.88,0,707.88,0ZM680.54,90.6c-8.09,0-14.99-5.04-17.66-12.24l9.05-3.64c1.26,3.49,4.6,5.93,8.61,5.93,5.04,0,9.13-4.08,9.13-9.2s-4.08-9.13-9.13-9.13c-2.74,0-5.19,1.19-6.83,2.97l-7.42-5.86,4.53-26.86h25.52v9.57h-17.58l-1.71,11.13c1.11-.22,2.3-.3,3.49-.3,10.39,0,18.77,8.38,18.77,18.77s-8.38,18.84-18.77,18.84ZM752.74,82.11c-2.71,2.64-5.87,4.75-9.41,6.18-7.23,2.94-15.29,2.86-22.44-.15-3.46-1.43-6.63-3.62-9.34-6.25-2.71-2.71-4.82-5.87-6.33-9.34-3.09-7.31-3.09-15.52,0-22.82,1.51-3.54,3.62-6.7,6.33-9.34,2.64-2.64,5.87-4.75,9.34-6.25,7.16-3.01,15.21-3.09,22.44-.15,3.46,1.43,6.7,3.54,9.41,6.18l-6.93,6.85c-1.81-1.73-3.92-3.09-6.25-3.99-4.75-1.96-10.17-1.88-14.91.08-2.33.98-4.44,2.41-6.25,4.22-1.81,1.81-3.24,3.92-4.22,6.25-2.03,4.82-2.03,10.32,0,15.14,1.96,4.67,5.72,8.44,10.39,10.39,2.41,1.05,4.97,1.51,7.61,1.51,2.11,0,4.14-.3,6.1-.9,2.03-.6,3.92-1.58,5.57-2.86v-10.92h-11.6v-9.64h20.64v25.38l-.15.45Z"/>
      <text class="cls-2" transform="translate(95.92 330.4)"><tspan x="0" y="0">LIVE THE FUTURE</tspan></text>
    </g>
  </g>
</svg>