<?xml version="1.0" encoding="utf-8"?>
<!-- Generator: Adobe Illustrator 26.3.1, SVG Export Plug-In . SVG Version: 6.00 Build 0)  -->
<svg version="1.1" id="Layer_1" xmlns="http://www.w3.org/2000/svg" xmlns:xlink="http://www.w3.org/1999/xlink" x="0px" y="0px"
	 width="116px" height="35px" viewBox="0 0 116 35" style="enable-background:new 0 0 116 35;" xml:space="preserve">
<style type="text/css">
	.st0{fill:#A3A3A3;}
	.st1{fill:#FFFFFF;}
</style>
<path d="M111.374,34.58H4.626c-2.348,0-4.27-1.921-4.27-4.27V4.69c0-2.348,1.921-4.27,4.27-4.27h106.748
	c2.348,0,4.27,1.921,4.27,4.27v25.62C115.644,32.658,113.722,34.58,111.374,34.58z"/>
<path class="st0" d="M111.374,1.103c1.978,0,3.587,1.609,3.587,3.587v25.62c0,1.978-1.609,3.587-3.587,3.587H4.626
	c-1.978,0-3.587-1.609-3.587-3.587V4.69c0-1.978,1.609-3.587,3.587-3.587H111.374 M111.374,0.42H4.626
	c-2.348,0-4.27,1.921-4.27,4.27v25.62c0,2.348,1.921,4.27,4.27,4.27h106.748c2.348,0,4.27-1.921,4.27-4.27V4.69
	C115.644,2.342,113.722,0.42,111.374,0.42L111.374,0.42z"/>
<path class="st1" d="M26.357,16.785c-0.024-2.618,2.145-3.893,2.244-3.953c-1.227-1.792-3.132-2.036-3.8-2.056
	c-1.6-0.169-3.15,0.958-3.964,0.958c-0.832,0-2.087-0.94-3.437-0.914c-1.74,0.028-3.367,1.034-4.261,2.599
	c-1.842,3.189-0.467,7.875,1.297,10.452c0.882,1.261,1.915,2.673,3.264,2.622c1.321-0.054,1.814-0.841,3.41-0.841
	c1.579,0,2.043,0.841,3.421,0.811c1.417-0.023,2.309-1.268,3.162-2.542c1.02-1.446,1.43-2.871,1.446-2.944
	C29.104,20.965,26.385,19.926,26.357,16.785"/>
<path class="st1" d="M23.756,9.081c0.71-0.888,1.196-2.096,1.062-3.324c-1.028,0.047-2.315,0.712-3.054,1.581
	c-0.657,0.765-1.242,2.022-1.09,3.2C21.828,10.625,23.014,9.957,23.756,9.081"/>
<path class="st1" d="M42.206,23.426h-4.335L36.83,26.5h-1.837L39.1,15.128h1.908L45.113,26.5h-1.868L42.206,23.426z M38.32,22.007
	h3.435l-1.693-4.987h-0.049L38.32,22.007z"/>
<path class="st1" d="M53.981,22.355c0,2.576-1.378,4.232-3.46,4.232c-1.182,0-2.121-0.529-2.61-1.451h-0.037v4.107h-1.702V18.208
	h1.647v1.38h0.031c0.473-0.89,1.482-1.466,2.639-1.466C52.595,18.122,53.981,19.786,53.981,22.355 M52.232,22.355
	c0-1.68-0.867-2.784-2.192-2.784c-1.299,0-2.174,1.128-2.174,2.784c0,1.67,0.876,2.789,2.174,2.789
	C51.364,25.144,52.232,24.048,52.232,22.355"/>
<path class="st1" d="M63.107,22.355c0,2.576-1.378,4.232-3.46,4.232c-1.182,0-2.121-0.529-2.61-1.451h-0.037v4.107h-1.702V18.208
	h1.647v1.38h0.031c0.473-0.89,1.482-1.466,2.639-1.466C61.721,18.122,63.107,19.786,63.107,22.355 M61.358,22.355
	c0-1.68-0.867-2.784-2.192-2.784c-1.3,0-2.174,1.128-2.174,2.784c0,1.67,0.874,2.789,2.174,2.789
	C60.49,25.144,61.358,24.048,61.358,22.355"/>
<path class="st1" d="M69.138,23.331c0.126,1.128,1.221,1.868,2.719,1.868c1.435,0,2.468-0.739,2.468-1.757
	c0-0.882-0.624-1.411-2.098-1.772l-1.472-0.355c-2.09-0.506-3.059-1.48-3.059-3.066c0-1.963,1.71-3.311,4.138-3.311
	c2.404,0,4.052,1.347,4.107,3.311h-1.717c-0.104-1.135-1.041-1.821-2.413-1.821c-1.372,0-2.309,0.694-2.309,1.702
	c0,0.804,0.598,1.278,2.064,1.641l1.253,0.306c2.333,0.551,3.303,1.488,3.303,3.153c0,2.127-1.694,3.46-4.39,3.46
	c-2.523,0-4.225-1.3-4.335-3.359H69.138z"/>
<path class="st1" d="M79.795,16.246v1.963h1.577v1.347h-1.577v4.57c0,0.712,0.316,1.042,1.01,1.042c0.172,0,0.449-0.026,0.559-0.041
	v1.341c-0.188,0.047-0.567,0.078-0.945,0.078c-1.68,0-2.335-0.631-2.335-2.237v-4.754H76.88v-1.347h1.205v-1.963H79.795z"/>
<path class="st1" d="M82.284,22.355c0-2.609,1.537-4.249,3.933-4.249c2.403,0,3.933,1.641,3.933,4.249
	c0,2.615-1.522,4.248-3.933,4.248C83.805,26.603,82.284,24.97,82.284,22.355 M88.416,22.355c0-1.79-0.82-2.847-2.198-2.847
	c-1.38,0-2.2,1.064-2.2,2.847c0,1.795,0.82,2.844,2.2,2.844C87.596,25.199,88.416,24.15,88.416,22.355"/>
<path class="st1" d="M91.553,18.209h1.623v1.411h0.039c0.261-0.937,1.018-1.498,1.996-1.498c0.243,0,0.449,0.032,0.582,0.063v1.594
	c-0.133-0.055-0.433-0.104-0.764-0.104c-1.096,0-1.774,0.741-1.774,1.908V26.5h-1.702V18.209z"/>
<path class="st1" d="M103.641,24.065c-0.23,1.505-1.696,2.539-3.57,2.539c-2.413,0-3.909-1.616-3.909-4.21
	c0-2.599,1.505-4.287,3.836-4.287c2.294,0,3.737,1.576,3.737,4.09v0.582h-5.856v0.104c0,1.419,0.89,2.348,2.231,2.348
	c0.945,0,1.686-0.447,1.915-1.166H103.641z M97.887,21.591h4.146c-0.039-1.269-0.851-2.106-2.035-2.106
	C98.824,19.485,97.975,20.337,97.887,21.591"/>
<path class="st1" d="M38.107,6.566c1.62,0,2.571,0.997,2.571,2.716c0,1.746-0.944,2.751-2.571,2.751h-1.973V6.566H38.107z
	 M36.982,11.258h1.029c1.143,0,1.803-0.71,1.803-1.965c0-1.235-0.671-1.954-1.803-1.954h-1.029V11.258z"/>
<path class="st1" d="M41.636,9.968c0-1.329,0.743-2.138,1.946-2.138c1.203,0,1.944,0.809,1.944,2.138
	c0,1.336-0.738,2.143-1.944,2.143C42.376,12.111,41.636,11.304,41.636,9.968 M44.689,9.968c0-0.895-0.402-1.417-1.107-1.417
	c-0.707,0-1.104,0.522-1.104,1.417c0,0.901,0.397,1.42,1.104,1.42C44.287,11.388,44.689,10.866,44.689,9.968"/>
<polygon class="st1" points="50.697,12.032 49.852,12.032 49.001,8.994 48.936,8.994 48.088,12.032 47.251,12.032 46.115,7.908 
	46.94,7.908 47.679,11.053 47.739,11.053 48.587,7.908 49.369,7.908 50.217,11.053 50.28,11.053 51.016,7.908 51.83,7.908 "/>
<path class="st1" d="M52.785,7.908h0.783v0.655h0.062c0.201-0.459,0.61-0.734,1.231-0.734c0.921,0,1.427,0.553,1.427,1.532v2.672
	h-0.814V9.565c0-0.661-0.287-0.991-0.89-0.991c-0.601,0-0.984,0.4-0.984,1.046v2.412h-0.814V7.908z"/>
<rect x="57.584" y="6.298" class="st1" width="0.814" height="5.734"/>
<path class="st1" d="M59.529,9.968c0-1.329,0.743-2.138,1.946-2.138c1.201,0,1.946,0.809,1.946,2.138
	c0,1.336-0.739,2.143-1.946,2.143C60.269,12.111,59.529,11.304,59.529,9.968 M62.582,9.968c0-0.895-0.402-1.417-1.107-1.417
	c-0.707,0-1.104,0.522-1.104,1.417c0,0.901,0.397,1.42,1.104,1.42C62.18,11.388,62.582,10.866,62.582,9.968"/>
<path class="st1" d="M64.277,10.866c0-0.743,0.553-1.171,1.534-1.232l1.117-0.063V9.214c0-0.434-0.289-0.683-0.845-0.683
	c-0.454,0-0.77,0.169-0.859,0.46h-0.788c0.083-0.709,0.749-1.162,1.685-1.162c1.034,0,1.618,0.514,1.618,1.385v2.818h-0.785v-0.58
	H66.89c-0.246,0.413-0.697,0.649-1.24,0.649C64.856,12.1,64.277,11.62,64.277,10.866 M66.928,10.512v-0.344l-1.008,0.063
	c-0.568,0.039-0.824,0.232-0.824,0.595c0,0.371,0.321,0.589,0.764,0.589C66.474,11.416,66.928,11.023,66.928,10.512"/>
<path class="st1" d="M68.806,9.968c0-1.303,0.671-2.127,1.714-2.127c0.563,0,1.041,0.268,1.263,0.723h0.062V6.297h0.814v5.734h-0.78
	V11.38h-0.065c-0.245,0.451-0.726,0.718-1.294,0.718C69.469,12.098,68.806,11.274,68.806,9.968 M69.648,9.968
	c0,0.876,0.412,1.401,1.102,1.401c0.686,0,1.109-0.533,1.109-1.398c0-0.859-0.428-1.401-1.109-1.401
	C70.064,8.57,69.648,9.1,69.648,9.968"/>
<path class="st1" d="M76.025,9.968c0-1.329,0.743-2.138,1.947-2.138c1.201,0,1.944,0.809,1.944,2.138
	c0,1.336-0.739,2.143-1.944,2.143C76.764,12.111,76.025,11.304,76.025,9.968 M79.078,9.968c0-0.895-0.402-1.417-1.106-1.417
	c-0.709,0-1.106,0.522-1.106,1.417c0,0.901,0.397,1.42,1.106,1.42C78.676,11.388,79.078,10.866,79.078,9.968"/>
<path class="st1" d="M81.007,7.908h0.783v0.655h0.062c0.201-0.459,0.61-0.734,1.231-0.734c0.921,0,1.427,0.553,1.427,1.532v2.672
	h-0.814V9.565c0-0.661-0.289-0.991-0.89-0.991c-0.601,0-0.984,0.4-0.984,1.046v2.412h-0.814V7.908z"/>
<path class="st1" d="M89.108,6.88v1.047h0.893v0.684h-0.893v2.121c0,0.433,0.178,0.621,0.584,0.621c0.125,0,0.196-0.006,0.31-0.019
	v0.679c-0.131,0.023-0.284,0.041-0.443,0.041c-0.905,0-1.265-0.318-1.265-1.112v-2.33h-0.655V7.928h0.655V6.88H89.108z"/>
<path class="st1" d="M91.113,6.298h0.807v2.271h0.065c0.199-0.462,0.636-0.738,1.257-0.738c0.877,0,1.42,0.556,1.42,1.539v2.662
	h-0.814V9.571c0-0.66-0.308-0.994-0.882-0.994c-0.668,0-1.039,0.422-1.039,1.046v2.409h-0.814V6.298z"/>
<path class="st1" d="M99.408,10.917c-0.185,0.739-0.845,1.195-1.787,1.195c-1.182,0-1.905-0.811-1.905-2.13
	c0-1.316,0.738-2.153,1.902-2.153c1.146,0,1.839,0.783,1.839,2.079v0.284h-2.912v0.045c0.028,0.725,0.447,1.182,1.099,1.182
	c0.491,0,0.828-0.177,0.981-0.501H99.408z M96.544,9.589h2.083c-0.019-0.647-0.412-1.068-1.015-1.068
	C97.011,8.521,96.59,8.946,96.544,9.589"/>
</svg>
