<svg xmlns="http://www.w3.org/2000/svg" viewBox="0 0 64 64"><path d="M53.022 18.629a16.845 16.845 0 0 1-4.953 1.391 8.825 8.825 0 0 0 3.793-4.892 16.992 16.992 0 0 1-5.481 2.144 8.507 8.507 0 0 0-6.295-2.791c-4.76 0-8.622 3.96-8.622 8.845 0 .694.074 1.366.222 2.015-7.169-.37-13.523-3.887-17.78-9.244a9.004 9.004 0 0 0-1.167 4.451c0 3.067 1.522 5.775 3.837 7.362a8.479 8.479 0 0 1-3.909-1.103v.108c0 4.287 2.974 7.863 6.922 8.672a8.209 8.209 0 0 1-2.273.311 8.366 8.366 0 0 1-1.624-.157c1.098 3.513 4.282 6.071 8.057 6.139-2.951 2.373-6.673 3.788-10.712 3.788-.696 0-1.385-.041-2.058-.121 3.818 2.505 8.353 3.97 13.222 3.97 15.868 0 24.542-13.476 24.542-25.164 0-.384-.007-.769-.022-1.147a17.673 17.673 0 0 0 4.301-4.577" fill="#00aaec"/><circle cx="32" cy="32" r="29" fill="none" stroke="#e40076" stroke-width="3" stroke-miterlimit="10"/></svg>