<?xml version="1.0" encoding="utf-8"?>
<!-- Generator: Adobe Illustrator 22.0.1, SVG Export Plug-In . SVG Version: 6.00 Build 0)  -->
<svg version="1.1" id="Layer_1" xmlns="http://www.w3.org/2000/svg" xmlns:xlink="http://www.w3.org/1999/xlink" x="0px" y="0px"
	 viewBox="0 0 64 64" style="enable-background:new 0 0 64 64;" xml:space="preserve">
<style type="text/css">
	.st0{fill:#00AAEC;}
</style>
<path id="Twitter" class="st0" d="M63,12.283c-2.278,1.037-4.731,1.739-7.304,2.052c2.627-1.612,4.644-4.168,5.593-7.214
	c-2.46,1.493-5.178,2.579-8.082,3.161c-2.314-2.534-5.623-4.116-9.283-4.116c-7.02,0-12.715,5.84-12.715,13.043
	c0,1.023,0.109,2.015,0.328,2.971c-10.572-0.545-19.942-5.732-26.22-13.632c-1.095,1.933-1.721,4.176-1.721,6.564
	c0,4.523,2.245,8.516,5.659,10.856c-2.082-0.063-4.047-0.657-5.764-1.627v0.16c0,6.322,4.385,11.595,10.208,12.789
	c-1.066,0.306-2.191,0.459-3.352,0.459c-0.819,0-1.619-0.078-2.395-0.231c1.619,5.18,6.314,8.953,11.882,9.053
	c-4.352,3.5-9.84,5.586-15.797,5.586c-1.026,0-2.042-0.06-3.035-0.179c5.63,3.694,12.318,5.855,19.498,5.855
	c23.4,0,36.191-19.872,36.191-37.109c0-0.567-0.011-1.134-0.033-1.691C59.143,17.194,61.301,14.899,63,12.283"/>
</svg>
