<?xml version="1.0" encoding="utf-8"?>
<!-- Generator: Adobe Illustrator 22.0.1, SVG Export Plug-In . SVG Version: 6.00 Build 0)  -->
<svg version="1.1" id="Layer_1" xmlns="http://www.w3.org/2000/svg" xmlns:xlink="http://www.w3.org/1999/xlink" x="0px" y="0px"
	 viewBox="0 0 64 64" style="enable-background:new 0 0 64 64;" xml:space="preserve">
<style type="text/css">
	.st0{fill:#CE1312;}
</style>
<path id="Youtube" class="st0" d="M27.044,38.27l-0.002-13.582l12.969,6.815L27.044,38.27z M55.52,22.334
	c0,0-0.469-3.331-1.908-4.798c-1.826-1.926-3.872-1.935-4.809-2.047C42.086,15,32.01,15,32.01,15H31.99c0,0-10.076,0-16.792,0.489
	c-0.939,0.112-2.984,0.121-4.811,2.047c-1.439,1.467-1.907,4.798-1.907,4.798S8,26.247,8,30.158v3.668
	c0,3.913,0.48,7.824,0.48,7.824s0.468,3.331,1.907,4.798c1.827,1.926,4.225,1.866,5.293,2.067C19.52,48.885,32,49,32,49
	s10.086-0.015,16.803-0.505c0.938-0.113,2.984-0.122,4.809-2.048c1.439-1.467,1.908-4.798,1.908-4.798S56,37.738,56,33.826v-3.668
	C56,26.247,55.52,22.334,55.52,22.334L55.52,22.334z"/>
</svg>
