<svg xmlns="http://www.w3.org/2000/svg" viewBox="0 0 64 64"><path d="M28.21 36.795l-.002-10.386 9.917 5.211-9.915 5.175zm21.776-12.187s-.359-2.547-1.459-3.669c-1.396-1.473-2.961-1.48-3.677-1.565C39.713 19 32.008 19 32.008 19h-.015s-7.705 0-12.841.374c-.718.086-2.282.093-3.679 1.565-1.1 1.122-1.458 3.669-1.458 3.669s-.367 2.992-.367 5.983v2.805c0 2.992.367 5.983.367 5.983s.358 2.547 1.458 3.669c1.397 1.473 3.231 1.427 4.048 1.581C22.456 44.912 32 45 32 45s7.713-.011 12.849-.386c.717-.086 2.282-.093 3.677-1.566 1.1-1.122 1.459-3.669 1.459-3.669s.367-2.991.367-5.982v-2.805c.001-2.991-.366-5.984-.366-5.984z" fill="#ce1312"/><circle cx="32" cy="32" r="29" fill="none" stroke="#e40076" stroke-width="3" stroke-miterlimit="10"/></svg>